STARTFONT 2.1
FONT -FontForge-Gontserrat-Bold-R-Normal--20-190-75-75-P-114-ISO10646-1
SIZE 19 75 75
FONTBOUNDINGBOX 41 32 -10 -9
COMMENT "Generated by fontforge, http://fontforge.sourceforge.net"
COMMENT "Gontserrat is a derivative work of Montserrat under the Open Font License. Copyright 2020 Ospiro Enterprises (ospiro.com)"
COMMENT ""
COMMENT "Copyright notice for Montserrat: Copyright 2011 The Montserrat Project Authors (julieta.ulanovsky@gmail.com)"
STARTPROPERTIES 40
FOUNDRY "FontForge"
FAMILY_NAME "Gontserrat"
WEIGHT_NAME "Bold"
SLANT "R"
SETWIDTH_NAME "Normal"
ADD_STYLE_NAME ""
PIXEL_SIZE 20
POINT_SIZE 190
RESOLUTION_X 75
RESOLUTION_Y 75
SPACING "P"
AVERAGE_WIDTH 114
CHARSET_REGISTRY "ISO10646"
CHARSET_ENCODING "1"
FONTNAME_REGISTRY ""
CHARSET_COLLECTIONS "ISO8859-2 ISO8859-9 ISO8859-4 ISO10646-1"
FONT_NAME "Gontserrat-Bold"
FACE_NAME "Gontserrat Bold"
COPYRIGHT "Gontserrat is a derivative work of Montserrat under the Open Font License. Copyright 2020 Ospiro Enterprises (ospiro.com)"
FONT_VERSION "6.001"
FONT_ASCENT 16
FONT_DESCENT 4
UNDERLINE_POSITION -2
UNDERLINE_THICKNESS 1
X_HEIGHT 10
CAP_HEIGHT 13
DEFAULT_CHAR 3
RAW_ASCENT 800
RAW_DESCENT 200
NORM_SPACE 4
RELATIVE_WEIGHT 70
RELATIVE_SETWIDTH 50
SUPERSCRIPT_X 0
SUPERSCRIPT_Y 7
SUPERSCRIPT_SIZE 12
SUBSCRIPT_X 0
SUBSCRIPT_Y 1
SUBSCRIPT_SIZE 12
AVG_LOWERCASE_WIDTH 119
AVG_UPPERCASE_WIDTH 144
ENDPROPERTIES
CHARS 1597
STARTCHAR NULL
ENCODING 0
SWIDTH 0 0
DWIDTH 0 0
BBX 1 1 0 0
BITMAP
00
ENDCHAR
STARTCHAR nonmarkingreturn
ENCODING 13
SWIDTH 222 0
DWIDTH 4 0
BBX 1 1 0 0
BITMAP
00
ENDCHAR
STARTCHAR space
ENCODING 32
SWIDTH 222 0
DWIDTH 4 0
BBX 1 1 0 0
BITMAP
00
ENDCHAR
STARTCHAR exclam
ENCODING 33
SWIDTH 258 0
DWIDTH 5 0
BBX 3 14 1 0
BITMAP
E0
E0
E0
E0
E0
E0
E0
E0
60
00
00
E0
E0
E0
ENDCHAR
STARTCHAR quotedbl
ENCODING 34
SWIDTH 446 0
DWIDTH 9 0
BBX 7 6 1 8
BITMAP
EE
EE
EE
EE
EE
EE
ENDCHAR
STARTCHAR numbersign
ENCODING 35
SWIDTH 736 0
DWIDTH 15 0
BBX 14 14 0 0
BITMAP
0E30
0E70
0E70
7FFC
7FFC
7FFC
0C60
1C60
7FFC
FFFC
FFFC
18E0
18E0
18C0
ENDCHAR
STARTCHAR dollar
ENCODING 36
SWIDTH 646 0
DWIDTH 13 0
BBX 12 20 0 -3
BITMAP
0700
0700
0700
0FC0
3FF0
3FF0
7860
7810
7E00
3FC0
0FF0
01F0
4070
70F0
FFF0
7FE0
1FC0
0700
0700
0700
ENDCHAR
STARTCHAR percent
ENCODING 37
SWIDTH 994 0
DWIDTH 20 0
BBX 19 14 0 0
BITMAP
3C0700
7E0600
630C00
631C00
E33800
633380
676FE0
7EEC60
3CCC60
018C60
038C60
070C60
060FE0
0E03C0
ENDCHAR
STARTCHAR ampersand
ENCODING 38
SWIDTH 688 0
DWIDTH 14 0
BBX 13 14 1 0
BITMAP
1F00
3F80
39C0
31C0
3B80
3F00
3E00
7E60
E770
E3E0
E1E0
FFF0
7FF8
3E30
ENDCHAR
STARTCHAR quotesingle
ENCODING 39
SWIDTH 254 0
DWIDTH 5 0
BBX 3 6 1 8
BITMAP
E0
E0
E0
E0
E0
E0
ENDCHAR
STARTCHAR parenleft
ENCODING 40
SWIDTH 345 0
DWIDTH 7 0
BBX 6 17 1 -2
BITMAP
3C
38
78
70
70
F0
F0
F0
E0
F0
F0
F0
70
70
78
38
3C
ENDCHAR
STARTCHAR parenright
ENCODING 41
SWIDTH 345 0
DWIDTH 7 0
BBX 6 17 0 -2
BITMAP
F0
70
78
38
38
38
3C
3C
3C
3C
3C
38
38
38
78
70
F0
ENDCHAR
STARTCHAR asterisk
ENCODING 42
SWIDTH 381 0
DWIDTH 8 0
BBX 7 7 0 7
BITMAP
18
5E
FE
3C
FE
5E
18
ENDCHAR
STARTCHAR plus
ENCODING 43
SWIDTH 511 0
DWIDTH 10 0
BBX 9 9 1 2
BITMAP
1800
1800
1800
FF80
FF80
FF80
1800
1800
1800
ENDCHAR
STARTCHAR comma
ENCODING 44
SWIDTH 243 0
DWIDTH 5 0
BBX 4 6 0 -2
BITMAP
70
70
70
70
60
C0
ENDCHAR
STARTCHAR hyphen
ENCODING 45
SWIDTH 375 0
DWIDTH 8 0
BBX 5 3 1 5
BITMAP
F8
F8
F8
ENDCHAR
STARTCHAR period
ENCODING 46
SWIDTH 245 0
DWIDTH 5 0
BBX 3 3 1 0
BITMAP
E0
E0
E0
ENDCHAR
STARTCHAR slash
ENCODING 47
SWIDTH 355 0
DWIDTH 7 0
BBX 10 19 -1 -2
BITMAP
01C0
0380
0380
0380
0700
0700
0700
0E00
0E00
0E00
1C00
1C00
1C00
3800
3800
7000
7000
7000
E000
ENDCHAR
STARTCHAR zero
ENCODING 48
SWIDTH 703 0
DWIDTH 14 0
BBX 12 14 1 0
BITMAP
1F80
3FC0
7FE0
F0F0
F0F0
F0F0
F070
F070
F0F0
F0F0
F0F0
7FE0
3FC0
1F80
ENDCHAR
STARTCHAR one
ENCODING 49
SWIDTH 404 0
DWIDTH 8 0
BBX 6 14 0 0
BITMAP
FC
FC
FC
3C
3C
3C
3C
3C
3C
3C
3C
3C
3C
3C
ENDCHAR
STARTCHAR two
ENCODING 50
SWIDTH 605 0
DWIDTH 12 0
BBX 11 14 0 0
BITMAP
1F80
7FC0
FFE0
61E0
41E0
01E0
03C0
0780
0F00
1E00
3C00
7FE0
7FE0
7FE0
ENDCHAR
STARTCHAR three
ENCODING 51
SWIDTH 603 0
DWIDTH 12 0
BBX 11 14 0 0
BITMAP
7FE0
7FE0
7FC0
0380
0700
1E00
1FC0
1FE0
00E0
00E0
61E0
7FE0
FFC0
1F80
ENDCHAR
STARTCHAR four
ENCODING 52
SWIDTH 607 0
DWIDTH 12 0
BBX 11 14 0 0
BITMAP
0E00
1E00
1C00
3C00
3800
7BC0
73C0
F3C0
FFE0
FFE0
FFE0
03C0
03C0
03C0
ENDCHAR
STARTCHAR five
ENCODING 53
SWIDTH 625 0
DWIDTH 13 0
BBX 11 14 1 0
BITMAP
7FC0
7FC0
7FC0
7000
7000
7F00
7FC0
7FC0
01E0
01E0
C1E0
FFC0
FF80
3F00
ENDCHAR
STARTCHAR six
ENCODING 54
SWIDTH 630 0
DWIDTH 13 0
BBX 12 14 0 0
BITMAP
0FC0
1FE0
3FE0
7800
7780
7FC0
7FE0
F8E0
70F0
70F0
78E0
3FE0
3FC0
0F80
ENDCHAR
STARTCHAR seven
ENCODING 55
SWIDTH 589 0
DWIDTH 12 0
BBX 11 14 0 0
BITMAP
FFE0
FFE0
FFE0
E1E0
E1E0
03C0
03C0
0780
0780
0F00
0F00
1E00
1E00
3C00
ENDCHAR
STARTCHAR eight
ENCODING 56
SWIDTH 631 0
DWIDTH 13 0
BBX 12 14 0 0
BITMAP
1F80
3FC0
7FE0
70E0
70E0
3FC0
1FC0
7FE0
70E0
F0F0
F0F0
7FE0
7FE0
1F80
ENDCHAR
STARTCHAR nine
ENCODING 57
SWIDTH 629 0
DWIDTH 13 0
BBX 12 14 0 0
BITMAP
1F00
3FC0
7FC0
71E0
F0E0
71F0
7FF0
7FF0
1EE0
00E0
21E0
7FC0
7F80
3F00
ENDCHAR
STARTCHAR colon
ENCODING 58
SWIDTH 245 0
DWIDTH 5 0
BBX 3 9 1 0
BITMAP
E0
E0
E0
00
00
00
E0
E0
E0
ENDCHAR
STARTCHAR semicolon
ENCODING 59
SWIDTH 244 0
DWIDTH 5 0
BBX 4 11 0 -2
BITMAP
70
70
70
00
00
70
70
70
70
60
C0
ENDCHAR
STARTCHAR less
ENCODING 60
SWIDTH 511 0
DWIDTH 10 0
BBX 9 11 1 1
BITMAP
0080
0380
1F80
7E00
F000
C000
F000
7E00
1F80
0380
0080
ENDCHAR
STARTCHAR equal
ENCODING 61
SWIDTH 511 0
DWIDTH 10 0
BBX 9 7 1 3
BITMAP
FF80
FF80
FF80
0000
FF80
FF80
FF80
ENDCHAR
STARTCHAR greater
ENCODING 62
SWIDTH 511 0
DWIDTH 10 0
BBX 9 11 1 1
BITMAP
8000
E000
F800
3F00
0F80
0380
1F80
7E00
F000
C000
8000
ENDCHAR
STARTCHAR question
ENCODING 63
SWIDTH 474 0
DWIDTH 9 0
BBX 9 14 0 0
BITMAP
1F00
7F80
7F80
6380
E380
0380
0700
0E00
1C00
1C00
0000
1C00
1C00
1C00
ENDCHAR
STARTCHAR at
ENCODING 64
SWIDTH 912 0
DWIDTH 18 0
BBX 18 17 0 -3
BITMAP
03F000
0FFC00
1C0E00
380300
73D980
67F980
67F8C0
6E38C0
CE18C0
CE18C0
6F38C0
67FD80
73EF00
388600
1C0800
0FFC00
03F000
ENDCHAR
STARTCHAR A
ENCODING 65
SWIDTH 773 0
DWIDTH 15 0
BBX 16 14 0 0
BITMAP
03C0
07C0
07E0
0FE0
0EF0
0EF0
1E70
1C78
3C78
3FFC
7FFC
7FFE
701E
F01F
ENDCHAR
STARTCHAR B
ENCODING 66
SWIDTH 716 0
DWIDTH 14 0
BBX 13 14 1 0
BITMAP
FFC0
FFF0
FFF0
F0F0
F0F0
FFE0
FFE0
FFF0
F0F0
F078
F078
FFF0
FFF0
FFC0
ENDCHAR
STARTCHAR C
ENCODING 67
SWIDTH 692 0
DWIDTH 14 0
BBX 14 14 0 0
BITMAP
07E0
1FF8
3FFC
7C38
7810
7000
F000
F000
7000
7810
7C30
3FFC
1FF8
07E0
ENDCHAR
STARTCHAR D
ENCODING 68
SWIDTH 766 0
DWIDTH 15 0
BBX 14 14 1 0
BITMAP
FF80
FFE0
FFF0
F0F8
F078
F03C
F03C
F03C
F03C
F078
F078
FFF0
FFE0
FF80
ENDCHAR
STARTCHAR E
ENCODING 69
SWIDTH 675 0
DWIDTH 14 0
BBX 12 14 1 0
BITMAP
FFE0
FFE0
FFE0
F000
F000
FFE0
FFE0
FFE0
F000
F000
F000
FFF0
FFF0
FFF0
ENDCHAR
STARTCHAR F
ENCODING 70
SWIDTH 607 0
DWIDTH 12 0
BBX 11 14 1 0
BITMAP
FFE0
FFE0
FFE0
F000
F000
F000
FFC0
FFC0
FFC0
F000
F000
F000
F000
F000
ENDCHAR
STARTCHAR G
ENCODING 71
SWIDTH 743 0
DWIDTH 15 0
BBX 14 14 0 0
BITMAP
07F0
1FFC
3FF8
7C30
7800
7000
F0FC
F0FC
70FC
781C
7C1C
3FFC
1FFC
0FF0
ENDCHAR
STARTCHAR H
ENCODING 72
SWIDTH 785 0
DWIDTH 16 0
BBX 13 14 1 0
BITMAP
F038
F038
F038
F038
F038
F038
FFF8
FFF8
FFF8
F038
F038
F038
F038
F038
ENDCHAR
STARTCHAR I
ENCODING 73
SWIDTH 319 0
DWIDTH 6 0
BBX 4 14 1 0
BITMAP
F0
F0
F0
F0
F0
F0
F0
F0
F0
F0
F0
F0
F0
F0
ENDCHAR
STARTCHAR J
ENCODING 74
SWIDTH 539 0
DWIDTH 11 0
BBX 10 14 0 0
BITMAP
7FC0
7FC0
7FC0
03C0
03C0
03C0
03C0
03C0
03C0
03C0
63C0
FF80
FF80
3E00
ENDCHAR
STARTCHAR K
ENCODING 75
SWIDTH 749 0
DWIDTH 15 0
BBX 14 14 1 0
BITMAP
F07C
F0F0
F1E0
F3C0
F7C0
F780
FF80
FF80
FFC0
FBE0
F1E0
F0F0
F0F8
F07C
ENDCHAR
STARTCHAR L
ENCODING 76
SWIDTH 563 0
DWIDTH 11 0
BBX 10 14 1 0
BITMAP
F000
F000
F000
F000
F000
F000
F000
F000
F000
F000
F000
FFC0
FFC0
FFC0
ENDCHAR
STARTCHAR M
ENCODING 77
SWIDTH 939 0
DWIDTH 19 0
BBX 16 14 1 0
BITMAP
F80F
F80F
FC1F
FC1F
FE3F
FE3F
FF7F
F777
F7F7
F3E7
F3E7
F1C7
F1C7
F007
ENDCHAR
STARTCHAR N
ENCODING 78
SWIDTH 786 0
DWIDTH 16 0
BBX 13 14 1 0
BITMAP
F038
F838
F838
FC38
FE38
FF38
FF38
F7B8
F3F8
F1F8
F1F8
F0F8
F078
F038
ENDCHAR
STARTCHAR O
ENCODING 79
SWIDTH 804 0
DWIDTH 16 0
BBX 16 14 0 0
BITMAP
07E0
1FF8
3FFC
7C3E
781E
700E
F00F
F00F
700E
781E
7C3E
3FFC
1FF8
07E0
ENDCHAR
STARTCHAR P
ENCODING 80
SWIDTH 680 0
DWIDTH 14 0
BBX 12 14 1 0
BITMAP
FF80
FFE0
FFF0
F0F0
F070
F070
F0F0
FFF0
FFE0
FF80
F000
F000
F000
F000
ENDCHAR
STARTCHAR Q
ENCODING 81
SWIDTH 808 0
DWIDTH 16 0
BBX 16 17 0 -3
BITMAP
07E0
1FF8
3FFC
7C3E
781E
700E
F00F
F00F
700E
781E
7C3E
3FFC
1FF8
07E2
00FF
007F
003E
ENDCHAR
STARTCHAR R
ENCODING 82
SWIDTH 724 0
DWIDTH 14 0
BBX 13 14 1 0
BITMAP
FFC0
FFE0
FFF0
F070
F078
F070
F0F0
FFF0
FFE0
FFC0
F1E0
F0E0
F0F0
F078
ENDCHAR
STARTCHAR S
ENCODING 83
SWIDTH 646 0
DWIDTH 13 0
BBX 12 14 0 0
BITMAP
0FC0
3FF0
3FF0
7860
7800
7F00
3FC0
1FF0
01F0
40F0
70F0
FFF0
7FE0
0FC0
ENDCHAR
STARTCHAR T
ENCODING 84
SWIDTH 614 0
DWIDTH 12 0
BBX 12 14 0 0
BITMAP
FFF0
FFF0
FFF0
0F00
0F00
0F00
0F00
0F00
0F00
0F00
0F00
0F00
0F00
0F00
ENDCHAR
STARTCHAR U
ENCODING 85
SWIDTH 749 0
DWIDTH 15 0
BBX 13 14 1 0
BITMAP
F078
F078
F078
F078
F078
F078
F078
F078
F078
F078
78F0
7FF0
3FE0
0F80
ENDCHAR
STARTCHAR V
ENCODING 86
SWIDTH 732 0
DWIDTH 15 0
BBX 15 14 0 0
BITMAP
F01E
703C
783C
7838
3878
3C78
3C70
1CF0
1EE0
0EE0
0FE0
0FC0
07C0
0780
ENDCHAR
STARTCHAR W
ENCODING 87
SWIDTH 1113 0
DWIDTH 22 0
BBX 22 14 0 0
BITMAP
F0783C
F0783C
787C38
78FC38
78FC78
38FC70
3CEE70
3DCE70
1DCEE0
1DC7E0
0F87E0
0F87C0
0F87C0
0783C0
ENDCHAR
STARTCHAR X
ENCODING 88
SWIDTH 738 0
DWIDTH 15 0
BBX 15 14 0 0
BITMAP
F83C
7C78
3CF8
1EF0
1FE0
0FC0
07C0
07C0
0FE0
1FF0
1EF0
3C78
787C
F83E
ENDCHAR
STARTCHAR Y
ENCODING 89
SWIDTH 684 0
DWIDTH 14 0
BBX 14 14 0 0
BITMAP
F03C
7078
7870
38F0
3CE0
1FE0
1FC0
0FC0
0F80
0780
0780
0780
0780
0780
ENDCHAR
STARTCHAR Z
ENCODING 90
SWIDTH 676 0
DWIDTH 14 0
BBX 12 14 1 0
BITMAP
FFF0
FFF0
FFF0
03E0
03C0
0780
0F00
1F00
3E00
7C00
7800
FFF0
FFF0
FFF0
ENDCHAR
STARTCHAR bracketleft
ENCODING 91
SWIDTH 359 0
DWIDTH 7 0
BBX 6 18 1 -2
BITMAP
FC
FC
FC
E0
E0
E0
E0
E0
E0
E0
E0
E0
E0
E0
E0
FC
FC
FC
ENDCHAR
STARTCHAR backslash
ENCODING 92
SWIDTH 355 0
DWIDTH 7 0
BBX 10 19 -2 -2
BITMAP
E000
7000
7000
7000
3800
3800
3800
1C00
1C00
0E00
0E00
0E00
0700
0700
0700
0380
0380
0380
01C0
ENDCHAR
STARTCHAR bracketright
ENCODING 93
SWIDTH 359 0
DWIDTH 7 0
BBX 6 18 0 -2
BITMAP
FC
FC
FC
1C
1C
1C
1C
1C
1C
1C
1C
1C
1C
1C
1C
FC
FC
FC
ENDCHAR
STARTCHAR asciicircum
ENCODING 94
SWIDTH 578 0
DWIDTH 12 0
BBX 10 8 1 3
BITMAP
1C00
1E00
3E00
3700
7300
6380
E180
C1C0
ENDCHAR
STARTCHAR underscore
ENCODING 95
SWIDTH 585 0
DWIDTH 12 0
BBX 12 2 0 -4
BITMAP
FFF0
FFF0
ENDCHAR
STARTCHAR grave
ENCODING 96
SWIDTH 360 0
DWIDTH 7 0
BBX 5 3 1 12
BITMAP
E0
70
38
ENDCHAR
STARTCHAR a
ENCODING 97
SWIDTH 601 0
DWIDTH 12 0
BBX 10 11 1 0
BITMAP
3F00
FF80
7FC0
03C0
7FC0
FFC0
E3C0
E3C0
FFC0
FFC0
7BC0
ENDCHAR
STARTCHAR b
ENCODING 98
SWIDTH 686 0
DWIDTH 14 0
BBX 12 15 1 0
BITMAP
F000
F000
F000
F000
F7C0
FFE0
FFF0
F8F0
F070
F070
F070
F8F0
FFF0
FFE0
F7C0
ENDCHAR
STARTCHAR c
ENCODING 99
SWIDTH 562 0
DWIDTH 11 0
BBX 11 11 0 0
BITMAP
0F80
3FC0
7FE0
7880
7000
F000
7000
7880
7FE0
3FC0
1F80
ENDCHAR
STARTCHAR d
ENCODING 100
SWIDTH 687 0
DWIDTH 14 0
BBX 12 15 0 0
BITMAP
0070
0070
0070
0070
1F70
3FF0
7FF0
78F0
7070
F070
7070
78F0
7FF0
3FF0
1F70
ENDCHAR
STARTCHAR e
ENCODING 101
SWIDTH 603 0
DWIDTH 12 0
BBX 12 11 0 0
BITMAP
0F80
3FC0
7FE0
70E0
7FF0
FFF0
7000
78C0
7FE0
3FC0
0F80
ENDCHAR
STARTCHAR f
ENCODING 102
SWIDTH 396 0
DWIDTH 8 0
BBX 7 15 1 0
BITMAP
1E
3E
7E
78
FE
FE
FE
78
78
78
78
78
78
78
78
ENDCHAR
STARTCHAR g
ENCODING 103
SWIDTH 648 0
DWIDTH 13 0
BBX 12 15 0 -4
BITMAP
1EF0
3FF0
7FF0
70F0
70F0
F0F0
70F0
79F0
7FF0
3FF0
1EF0
20F0
3FE0
7FC0
1F80
ENDCHAR
STARTCHAR h
ENCODING 104
SWIDTH 679 0
DWIDTH 14 0
BBX 12 15 1 0
BITMAP
F000
F000
F000
F000
F7C0
FFE0
FFE0
F8F0
F0F0
F0F0
F0F0
F0F0
F0F0
F0F0
F0F0
ENDCHAR
STARTCHAR i
ENCODING 105
SWIDTH 313 0
DWIDTH 6 0
BBX 4 16 1 0
BITMAP
60
F0
F0
60
00
F0
F0
F0
F0
F0
F0
F0
F0
F0
F0
F0
ENDCHAR
STARTCHAR j
ENCODING 106
SWIDTH 312 0
DWIDTH 6 0
BBX 6 20 -1 -4
BITMAP
18
3C
3C
18
00
3C
3C
3C
3C
3C
3C
3C
3C
3C
3C
3C
3C
FC
F8
F0
ENDCHAR
STARTCHAR k
ENCODING 107
SWIDTH 633 0
DWIDTH 13 0
BBX 12 15 1 0
BITMAP
F000
F000
F000
F000
F1F0
F3C0
F780
FF00
FF00
FF00
FF80
FF80
F3C0
F1E0
F1F0
ENDCHAR
STARTCHAR l
ENCODING 108
SWIDTH 324 0
DWIDTH 6 0
BBX 4 15 1 0
BITMAP
F0
F0
F0
F0
F0
F0
F0
F0
F0
F0
F0
F0
F0
F0
F0
ENDCHAR
STARTCHAR m
ENCODING 109
SWIDTH 1037 0
DWIDTH 21 0
BBX 19 11 1 0
BITMAP
F7C780
FFFFC0
FFFFC0
F9F1E0
F0E1E0
F0E1E0
F0E1E0
F0E1E0
F0E1E0
F0E1E0
F0E1E0
ENDCHAR
STARTCHAR n
ENCODING 110
SWIDTH 674 0
DWIDTH 13 0
BBX 11 11 1 0
BITMAP
F7C0
FFE0
FFE0
F9E0
F0E0
F0E0
F0E0
F0E0
F0E0
F0E0
F0E0
ENDCHAR
STARTCHAR o
ENCODING 111
SWIDTH 638 0
DWIDTH 13 0
BBX 12 11 0 0
BITMAP
0F80
3FE0
7FE0
78F0
7070
F070
7070
78F0
7FE0
3FE0
0F80
ENDCHAR
STARTCHAR p
ENCODING 112
SWIDTH 686 0
DWIDTH 14 0
BBX 12 15 1 -4
BITMAP
F7C0
FFE0
FFF0
F8F0
F070
F070
F070
F8F0
FFF0
FFE0
F7C0
F000
F000
F000
F000
ENDCHAR
STARTCHAR q
ENCODING 113
SWIDTH 687 0
DWIDTH 14 0
BBX 12 15 0 -4
BITMAP
1F70
3FF0
7FF0
78F0
7070
F070
7070
78F0
7FF0
3FF0
1F70
0070
0070
0070
0070
ENDCHAR
STARTCHAR r
ENCODING 114
SWIDTH 430 0
DWIDTH 9 0
BBX 7 11 1 0
BITMAP
F6
FE
FE
F8
F0
F0
F0
F0
F0
F0
F0
ENDCHAR
STARTCHAR s
ENCODING 115
SWIDTH 517 0
DWIDTH 10 0
BBX 10 11 0 0
BITMAP
1F00
7FC0
7F80
7080
7C00
3F80
07C0
43C0
7FC0
FF80
3F00
ENDCHAR
STARTCHAR t
ENCODING 116
SWIDTH 437 0
DWIDTH 9 0
BBX 8 14 0 0
BITMAP
38
38
38
FF
FF
FF
38
38
38
38
38
3F
3F
1F
ENDCHAR
STARTCHAR u
ENCODING 117
SWIDTH 664 0
DWIDTH 13 0
BBX 11 11 1 0
BITMAP
F1E0
F1E0
F1E0
F1E0
F1E0
F1E0
F1E0
F1E0
FFE0
7FE0
3DE0
ENDCHAR
STARTCHAR v
ENCODING 118
SWIDTH 575 0
DWIDTH 12 0
BBX 12 11 0 0
BITMAP
F0F0
F0E0
71E0
79C0
39C0
3BC0
3B80
1F80
1F80
1F00
0F00
ENDCHAR
STARTCHAR w
ENCODING 119
SWIDTH 941 0
DWIDTH 19 0
BBX 19 11 0 0
BITMAP
F0E1E0
F1F1C0
71F1C0
79F3C0
39B380
3BBB80
3BBB80
1F3F00
1F1F00
1F1F00
0F1E00
ENDCHAR
STARTCHAR x
ENCODING 120
SWIDTH 611 0
DWIDTH 12 0
BBX 12 11 0 0
BITMAP
F8F0
79E0
3DC0
1FC0
1F80
0F80
1F80
3FC0
3DE0
79E0
F0F0
ENDCHAR
STARTCHAR y
ENCODING 121
SWIDTH 584 0
DWIDTH 12 0
BBX 12 15 0 -4
BITMAP
F0F0
F0E0
70E0
79C0
39C0
39C0
3F80
1F80
1F80
0F00
0F00
0E00
7E00
FC00
7800
ENDCHAR
STARTCHAR z
ENCODING 122
SWIDTH 555 0
DWIDTH 11 0
BBX 10 11 1 0
BITMAP
FF80
FF80
FF80
0F00
1E00
1C00
3C00
7800
FFC0
FFC0
FFC0
ENDCHAR
STARTCHAR braceleft
ENCODING 123
SWIDTH 363 0
DWIDTH 7 0
BBX 7 18 0 -2
BITMAP
1E
3E
3E
38
38
38
38
38
F8
E0
F8
38
38
38
38
3E
3E
1E
ENDCHAR
STARTCHAR bar
ENCODING 124
SWIDTH 302 0
DWIDTH 6 0
BBX 2 18 2 -2
BITMAP
C0
C0
C0
C0
C0
C0
C0
C0
C0
C0
C0
C0
C0
C0
C0
C0
C0
C0
ENDCHAR
STARTCHAR braceright
ENCODING 125
SWIDTH 363 0
DWIDTH 7 0
BBX 7 18 0 -2
BITMAP
F0
F8
F8
38
38
38
38
38
3E
0E
3E
38
38
38
38
F8
F8
F0
ENDCHAR
STARTCHAR asciitilde
ENCODING 126
SWIDTH 511 0
DWIDTH 10 0
BBX 8 4 1 5
BITMAP
73
FF
FF
EE
ENDCHAR
STARTCHAR uni00A0
ENCODING 160
SWIDTH 222 0
DWIDTH 4 0
BBX 1 1 0 0
BITMAP
00
ENDCHAR
STARTCHAR exclamdown
ENCODING 161
SWIDTH 258 0
DWIDTH 5 0
BBX 3 14 1 -3
BITMAP
E0
E0
E0
00
00
60
E0
E0
E0
E0
E0
E0
E0
E0
ENDCHAR
STARTCHAR cent
ENCODING 162
SWIDTH 600 0
DWIDTH 12 0
BBX 11 17 0 -3
BITMAP
0700
0700
0700
0F00
3FC0
7FE0
7880
7000
F000
7000
7880
7FE0
3FC0
0F80
0700
0700
0700
ENDCHAR
STARTCHAR sterling
ENCODING 163
SWIDTH 564 0
DWIDTH 11 0
BBX 10 14 1 0
BITMAP
1F00
3FC0
7FC0
7880
7800
7800
FF00
7800
7800
7800
7800
FFC0
FFC0
FFC0
ENDCHAR
STARTCHAR currency
ENCODING 164
SWIDTH 701 0
DWIDTH 14 0
BBX 14 12 0 0
BITMAP
2010
F7BC
7FF8
3FF0
3870
3870
3870
3870
3FF0
7FF8
F7BC
6018
ENDCHAR
STARTCHAR yen
ENCODING 165
SWIDTH 694 0
DWIDTH 14 0
BBX 14 14 0 0
BITMAP
F03C
7078
7878
38F0
3CF0
1FE0
1FE0
0FC0
7FF8
0780
7FF8
0780
0780
0780
ENDCHAR
STARTCHAR brokenbar
ENCODING 166
SWIDTH 302 0
DWIDTH 6 0
BBX 2 18 2 -2
BITMAP
C0
C0
C0
C0
C0
C0
C0
00
00
00
00
C0
C0
C0
C0
C0
C0
C0
ENDCHAR
STARTCHAR section
ENCODING 167
SWIDTH 549 0
DWIDTH 11 0
BBX 11 16 0 -2
BITMAP
1F00
3FC0
7FC0
7880
7C00
3F80
7FC0
73C0
71E0
7FC0
3F80
0F80
43C0
73C0
FF80
3F00
ENDCHAR
STARTCHAR dieresis
ENCODING 168
SWIDTH 426 0
DWIDTH 9 0
BBX 7 3 1 12
BITMAP
EC
EE
EC
ENDCHAR
STARTCHAR copyright
ENCODING 169
SWIDTH 723 0
DWIDTH 14 0
BBX 14 14 0 0
BITMAP
0780
1FE0
3870
7018
638C
4CCC
CC0C
CC0C
4C8C
67CC
6398
3830
1FE0
07C0
ENDCHAR
STARTCHAR ordfeminine
ENCODING 170
SWIDTH 394 0
DWIDTH 8 0
BBX 7 6 0 10
BITMAP
7C
7E
7E
E6
EE
7E
ENDCHAR
STARTCHAR guillemotleft
ENCODING 171
SWIDTH 506 0
DWIDTH 10 0
BBX 10 7 0 2
BITMAP
39C0
7380
7700
EF00
7700
7380
39C0
ENDCHAR
STARTCHAR logicalnot
ENCODING 172
SWIDTH 580 0
DWIDTH 12 0
BBX 9 6 1 3
BITMAP
FF80
FF80
FF80
0180
0180
0180
ENDCHAR
STARTCHAR uni00AD
ENCODING 173
SWIDTH 375 0
DWIDTH 8 0
BBX 5 3 1 5
BITMAP
F8
F8
F8
ENDCHAR
STARTCHAR registered
ENCODING 174
SWIDTH 723 0
DWIDTH 14 0
BBX 14 14 0 0
BITMAP
0780
1FE0
3870
7018
678C
44CC
C4CC
C7CC
448C
64CC
6018
3830
1FE0
07C0
ENDCHAR
STARTCHAR macron
ENCODING 175
SWIDTH 344 0
DWIDTH 7 0
BBX 7 2 0 13
BITMAP
FE
FE
ENDCHAR
STARTCHAR degree
ENCODING 176
SWIDTH 377 0
DWIDTH 8 0
BBX 4 4 2 12
BITMAP
70
90
90
F0
ENDCHAR
STARTCHAR plusminus
ENCODING 177
SWIDTH 511 0
DWIDTH 10 0
BBX 9 13 1 0
BITMAP
1800
1800
1800
1800
FF80
FF80
1800
1800
1800
0000
FF80
FF80
FF80
ENDCHAR
STARTCHAR uni00B2
ENCODING 178
SWIDTH 380 0
DWIDTH 8 0
BBX 7 9 0 7
BITMAP
3C
FE
4E
0E
1C
38
70
FE
FE
ENDCHAR
STARTCHAR uni00B3
ENCODING 179
SWIDTH 370 0
DWIDTH 7 0
BBX 7 9 0 7
BITMAP
7E
7E
1C
38
3C
0E
4E
FE
7C
ENDCHAR
STARTCHAR acute
ENCODING 180
SWIDTH 350 0
DWIDTH 7 0
BBX 5 3 1 12
BITMAP
38
70
E0
ENDCHAR
STARTCHAR uni00B5
ENCODING 181
SWIDTH 685 0
DWIDTH 14 0
BBX 11 15 1 -4
BITMAP
F0E0
F0E0
F0E0
F0E0
F0E0
F0E0
F0E0
F9E0
FFE0
FFE0
FEE0
F000
F000
F000
F000
ENDCHAR
STARTCHAR paragraph
ENCODING 182
SWIDTH 653 0
DWIDTH 13 0
BBX 12 17 0 -2
BITMAP
3FF0
7FF0
FE70
FE70
FE70
FE70
FE70
7E70
0E70
0E70
0E70
0E70
0E70
0E70
0E70
0E70
0E70
ENDCHAR
STARTCHAR periodcentered
ENCODING 183
SWIDTH 235 0
DWIDTH 5 0
BBX 4 4 0 4
BITMAP
70
F0
F0
70
ENDCHAR
STARTCHAR cedilla
ENCODING 184
SWIDTH 321 0
DWIDTH 6 0
BBX 5 5 1 -5
BITMAP
30
70
18
78
F0
ENDCHAR
STARTCHAR uni00B9
ENCODING 185
SWIDTH 261 0
DWIDTH 5 0
BBX 4 8 0 7
BITMAP
F0
F0
30
30
30
30
30
30
ENDCHAR
STARTCHAR ordmasculine
ENCODING 186
SWIDTH 414 0
DWIDTH 8 0
BBX 8 7 0 9
BITMAP
3C
7E
67
E7
67
7E
3C
ENDCHAR
STARTCHAR guillemotright
ENCODING 187
SWIDTH 511 0
DWIDTH 10 0
BBX 10 7 0 2
BITMAP
F700
7380
3B80
3DC0
3B80
7380
F700
ENDCHAR
STARTCHAR onequarter
ENCODING 188
SWIDTH 844 0
DWIDTH 17 0
BBX 17 14 0 0
BITMAP
F01C00
F03800
303000
306000
30E000
30CC00
319C00
339800
073800
063700
0C7F80
1C7F80
180700
300700
ENDCHAR
STARTCHAR onehalf
ENCODING 189
SWIDTH 885 0
DWIDTH 18 0
BBX 17 14 0 0
BITMAP
F01C00
F03800
303000
306000
30E000
30CF00
31BF80
339380
070380
060700
0C0E00
1C1C00
181F80
301F80
ENDCHAR
STARTCHAR threequarters
ENCODING 190
SWIDTH 922 0
DWIDTH 18 0
BBX 18 14 0 0
BITMAP
7E0700
7E0C00
1C1C00
381800
3C3000
0E7700
4EE600
FECE00
398C00
039D80
031FC0
061FC0
0E0180
1C0180
ENDCHAR
STARTCHAR questiondown
ENCODING 191
SWIDTH 474 0
DWIDTH 9 0
BBX 9 14 0 -3
BITMAP
0C00
1E00
0C00
0000
0000
1C00
1C00
3800
7000
E380
F380
FF80
7F00
3E00
ENDCHAR
STARTCHAR Agrave
ENCODING 192
SWIDTH 773 0
DWIDTH 15 0
BBX 16 19 0 0
BITMAP
0100
0F00
0780
0380
0000
03C0
07C0
07E0
0FE0
0EF0
0EF0
1E70
1C78
3C78
3FFC
7FFC
7FFE
701E
F01F
ENDCHAR
STARTCHAR Aacute
ENCODING 193
SWIDTH 773 0
DWIDTH 15 0
BBX 16 19 0 0
BITMAP
0080
00E0
01C0
0380
0000
03C0
07C0
07E0
0FE0
0EF0
0EF0
1E70
1C78
3C78
3FFC
7FFC
7FFE
701E
F01F
ENDCHAR
STARTCHAR Acircumflex
ENCODING 194
SWIDTH 773 0
DWIDTH 15 0
BBX 16 18 0 0
BITMAP
03C0
07C0
0EE0
0010
03C0
07C0
07E0
0FE0
0EF0
0EF0
1E70
1C78
3C78
3FFC
7FFC
7FFE
701E
F01F
ENDCHAR
STARTCHAR Atilde
ENCODING 195
SWIDTH 773 0
DWIDTH 15 0
BBX 16 18 0 0
BITMAP
0760
0FE0
0CE0
0000
03C0
07C0
07E0
0FE0
0EF0
0EF0
1E70
1C78
3C78
3FFC
7FFC
7FFE
701E
F01F
ENDCHAR
STARTCHAR Adieresis
ENCODING 196
SWIDTH 773 0
DWIDTH 15 0
BBX 16 18 0 0
BITMAP
0660
0EE0
06E0
0000
03C0
07C0
07E0
0FE0
0EF0
0EF0
1E70
1C78
3C78
3FFC
7FFC
7FFE
701E
F01F
ENDCHAR
STARTCHAR Aring
ENCODING 197
SWIDTH 773 0
DWIDTH 15 0
BBX 16 20 0 0
BITMAP
0380
02C0
0640
03C0
0380
0000
03C0
07C0
07E0
0FE0
0EF0
0EF0
1E70
1C78
3C78
3FFC
7FFC
7FFE
701E
F01F
ENDCHAR
STARTCHAR AE
ENCODING 198
SWIDTH 1106 0
DWIDTH 22 0
BBX 21 14 0 0
BITMAP
00FFF8
01FFF8
03FFF8
03BC00
07BC00
073FF0
0F3FF0
0E3FF0
1FFC00
3FFC00
3FFC00
783FF8
703FF8
F03FF8
ENDCHAR
STARTCHAR Ccedilla
ENCODING 199
SWIDTH 692 0
DWIDTH 14 0
BBX 14 19 0 -5
BITMAP
07E0
1FF8
3FFC
7C38
7810
7000
F000
F000
7000
7810
7C30
3FFC
1FF8
0FE0
0380
0380
01C0
07C0
0780
ENDCHAR
STARTCHAR Egrave
ENCODING 200
SWIDTH 675 0
DWIDTH 14 0
BBX 12 19 1 0
BITMAP
0400
1C00
0E00
0700
0000
FFE0
FFE0
FFE0
F000
F000
FFE0
FFE0
FFE0
F000
F000
F000
FFF0
FFF0
FFF0
ENDCHAR
STARTCHAR Eacute
ENCODING 201
SWIDTH 675 0
DWIDTH 14 0
BBX 12 19 1 0
BITMAP
0200
03C0
0700
0E00
0000
FFE0
FFE0
FFE0
F000
F000
FFE0
FFE0
FFE0
F000
F000
F000
FFF0
FFF0
FFF0
ENDCHAR
STARTCHAR Ecircumflex
ENCODING 202
SWIDTH 675 0
DWIDTH 14 0
BBX 12 18 1 0
BITMAP
0F00
1F80
39C0
0000
FFE0
FFE0
FFE0
F000
F000
FFE0
FFE0
FFE0
F000
F000
F000
FFF0
FFF0
FFF0
ENDCHAR
STARTCHAR Edieresis
ENCODING 203
SWIDTH 675 0
DWIDTH 14 0
BBX 12 18 1 0
BITMAP
1980
1F80
1980
0000
FFE0
FFE0
FFE0
F000
F000
FFE0
FFE0
FFE0
F000
F000
F000
FFF0
FFF0
FFF0
ENDCHAR
STARTCHAR Igrave
ENCODING 204
SWIDTH 319 0
DWIDTH 6 0
BBX 5 19 0 0
BITMAP
20
E0
70
38
00
78
78
78
78
78
78
78
78
78
78
78
78
78
78
ENDCHAR
STARTCHAR Iacute
ENCODING 205
SWIDTH 319 0
DWIDTH 6 0
BBX 6 19 1 0
BITMAP
20
3C
78
E0
00
F0
F0
F0
F0
F0
F0
F0
F0
F0
F0
F0
F0
F0
F0
ENDCHAR
STARTCHAR Icircumflex
ENCODING 206
SWIDTH 319 0
DWIDTH 6 0
BBX 8 18 -1 0
BITMAP
3C
3E
E7
00
3C
3C
3C
3C
3C
3C
3C
3C
3C
3C
3C
3C
3C
3C
ENDCHAR
STARTCHAR Idieresis
ENCODING 207
SWIDTH 319 0
DWIDTH 6 0
BBX 7 18 0 0
BITMAP
CC
EE
CC
00
78
78
78
78
78
78
78
78
78
78
78
78
78
78
ENDCHAR
STARTCHAR Eth
ENCODING 208
SWIDTH 766 0
DWIDTH 15 0
BBX 15 14 0 0
BITMAP
7FC0
7FF0
7FF8
787C
783C
781E
FF1E
FF1E
781E
783C
783C
7FF8
7FF0
7FC0
ENDCHAR
STARTCHAR Ntilde
ENCODING 209
SWIDTH 786 0
DWIDTH 16 0
BBX 13 18 1 0
BITMAP
0E60
0FC0
1DC0
0000
F038
F838
F838
FC38
FE38
FF38
FF38
F7B8
F3F8
F1F8
F1F8
F0F8
F078
F038
ENDCHAR
STARTCHAR Ograve
ENCODING 210
SWIDTH 804 0
DWIDTH 16 0
BBX 16 19 0 0
BITMAP
0100
0700
0380
01C0
0000
07E0
1FF8
3FFC
7C3E
781E
700E
F00F
F00F
700E
781E
7C3E
3FFC
1FF8
07E0
ENDCHAR
STARTCHAR Oacute
ENCODING 211
SWIDTH 804 0
DWIDTH 16 0
BBX 16 19 0 0
BITMAP
0080
00F0
01C0
0380
0000
07E0
1FF8
3FFC
7C3E
781E
700E
F00F
F00F
700E
781E
7C3E
3FFC
1FF8
07E0
ENDCHAR
STARTCHAR Ocircumflex
ENCODING 212
SWIDTH 804 0
DWIDTH 16 0
BBX 16 18 0 0
BITMAP
03C0
07E0
0E70
0000
07E0
1FF8
3FFC
7C3E
781E
700E
F00F
F00F
700E
781E
7C3E
3FFC
1FF8
07E0
ENDCHAR
STARTCHAR Otilde
ENCODING 213
SWIDTH 804 0
DWIDTH 16 0
BBX 16 18 0 0
BITMAP
0730
07F0
06E0
0000
07E0
1FF8
3FFC
7C3E
781E
700E
F00F
F00F
700E
781E
7C3E
3FFC
1FF8
07E0
ENDCHAR
STARTCHAR Odieresis
ENCODING 214
SWIDTH 804 0
DWIDTH 16 0
BBX 16 18 0 0
BITMAP
0660
07F0
0660
0000
07E0
1FF8
3FFC
7C3E
781E
700E
F00F
F00F
700E
781E
7C3E
3FFC
1FF8
07E0
ENDCHAR
STARTCHAR multiply
ENCODING 215
SWIDTH 511 0
DWIDTH 10 0
BBX 8 8 1 3
BITMAP
42
67
FF
3E
3C
7E
F7
62
ENDCHAR
STARTCHAR Oslash
ENCODING 216
SWIDTH 804 0
DWIDTH 16 0
BBX 16 17 0 -1
BITMAP
000C
001C
07F8
1FF8
3FFC
7C7E
78FE
70CE
F18F
F18F
730E
7F1E
7E3E
3FFC
1FF8
1FE0
3000
ENDCHAR
STARTCHAR Ugrave
ENCODING 217
SWIDTH 749 0
DWIDTH 15 0
BBX 13 19 1 0
BITMAP
0400
1E00
0E00
0700
0000
F078
F078
F078
F078
F078
F078
F078
F078
F078
F078
78F0
7FF0
3FE0
0F80
ENDCHAR
STARTCHAR Uacute
ENCODING 218
SWIDTH 749 0
DWIDTH 15 0
BBX 13 19 1 0
BITMAP
0100
03C0
0380
0700
0000
F078
F078
F078
F078
F078
F078
F078
F078
F078
F078
78F0
7FF0
3FE0
0F80
ENDCHAR
STARTCHAR Ucircumflex
ENCODING 219
SWIDTH 749 0
DWIDTH 15 0
BBX 13 18 1 0
BITMAP
0700
0F80
1DC0
0000
F078
F078
F078
F078
F078
F078
F078
F078
F078
F078
78F0
7FF0
3FE0
0F80
ENDCHAR
STARTCHAR Udieresis
ENCODING 220
SWIDTH 749 0
DWIDTH 15 0
BBX 13 18 1 0
BITMAP
0D80
1DC0
1DC0
0000
F078
F078
F078
F078
F078
F078
F078
F078
F078
F078
78F0
7FF0
3FE0
0F80
ENDCHAR
STARTCHAR Yacute
ENCODING 221
SWIDTH 684 0
DWIDTH 14 0
BBX 14 19 0 0
BITMAP
0100
01C0
0380
0700
0000
F03C
7078
7870
38F0
3CE0
1FE0
1FC0
0FC0
0F80
0780
0780
0780
0780
0780
ENDCHAR
STARTCHAR Thorn
ENCODING 222
SWIDTH 689 0
DWIDTH 14 0
BBX 12 14 1 0
BITMAP
F000
F000
FF80
FFE0
FFF0
F0F0
F070
F070
F0F0
FFF0
FFE0
FF80
F000
F000
ENDCHAR
STARTCHAR germandbls
ENCODING 223
SWIDTH 663 0
DWIDTH 13 0
BBX 12 15 1 0
BITMAP
1F00
7FC0
7FC0
F1E0
F1E0
F1C0
F7C0
F7C0
F7E0
F0E0
F0F0
F0F0
F7E0
F7C0
F780
ENDCHAR
STARTCHAR agrave
ENCODING 224
SWIDTH 601 0
DWIDTH 12 0
BBX 10 15 1 0
BITMAP
3800
1C00
0E00
0000
3F00
FF80
7FC0
03C0
7FC0
FFC0
E3C0
E3C0
FFC0
FFC0
7BC0
ENDCHAR
STARTCHAR aacute
ENCODING 225
SWIDTH 601 0
DWIDTH 12 0
BBX 10 15 1 0
BITMAP
0780
0E00
1C00
0000
3F00
FF80
7FC0
03C0
7FC0
FFC0
E3C0
E3C0
FFC0
FFC0
7BC0
ENDCHAR
STARTCHAR acircumflex
ENCODING 226
SWIDTH 601 0
DWIDTH 12 0
BBX 10 15 1 0
BITMAP
1E00
3F00
7380
0000
3F00
FF80
7FC0
03C0
7FC0
FFC0
E3C0
E3C0
FFC0
FFC0
7BC0
ENDCHAR
STARTCHAR atilde
ENCODING 227
SWIDTH 601 0
DWIDTH 12 0
BBX 10 15 1 0
BITMAP
3980
3F80
3700
4000
3F00
FF80
7FC0
03C0
7FC0
FFC0
E3C0
E3C0
FFC0
FFC0
7BC0
ENDCHAR
STARTCHAR adieresis
ENCODING 228
SWIDTH 601 0
DWIDTH 12 0
BBX 10 15 1 0
BITMAP
3300
3F00
3300
0000
3F00
FF80
7FC0
03C0
7FC0
FFC0
E3C0
E3C0
FFC0
FFC0
7BC0
ENDCHAR
STARTCHAR aring
ENCODING 229
SWIDTH 601 0
DWIDTH 12 0
BBX 10 17 1 0
BITMAP
0C00
1200
1200
1E00
0C00
0000
3F00
FF80
7FC0
03C0
7FC0
FFC0
E3C0
E3C0
FFC0
FFC0
7BC0
ENDCHAR
STARTCHAR ae
ENCODING 230
SWIDTH 965 0
DWIDTH 19 0
BBX 18 11 1 0
BITMAP
3F3E00
FFFF00
7FFF80
03C3C0
7FFFC0
FFFFC0
E1C000
E3E100
FFFF80
FE7F00
7C3E00
ENDCHAR
STARTCHAR ccedilla
ENCODING 231
SWIDTH 562 0
DWIDTH 11 0
BBX 11 16 0 -5
BITMAP
0F80
3FC0
7FE0
7880
7000
F000
7000
7880
7FE0
3FC0
1F80
0600
0E00
0300
0F00
1E00
ENDCHAR
STARTCHAR egrave
ENCODING 232
SWIDTH 603 0
DWIDTH 12 0
BBX 12 15 0 0
BITMAP
1C00
0E00
0700
0000
0F80
3FC0
7FE0
70E0
7FF0
FFF0
7000
78C0
7FE0
3FC0
0F80
ENDCHAR
STARTCHAR eacute
ENCODING 233
SWIDTH 603 0
DWIDTH 12 0
BBX 12 15 0 0
BITMAP
03C0
0700
0E00
0000
0F80
3FC0
7FE0
70E0
7FF0
FFF0
7000
78C0
7FE0
3FC0
0F80
ENDCHAR
STARTCHAR ecircumflex
ENCODING 234
SWIDTH 603 0
DWIDTH 12 0
BBX 12 15 0 0
BITMAP
0F00
1F80
39C0
0000
0F80
3FC0
7FE0
70E0
7FF0
FFF0
7000
78C0
7FE0
3FC0
0F80
ENDCHAR
STARTCHAR edieresis
ENCODING 235
SWIDTH 603 0
DWIDTH 12 0
BBX 12 15 0 0
BITMAP
1980
1F80
1980
0000
0F80
3FC0
7FE0
70E0
7FF0
FFF0
7000
78C0
7FE0
3FC0
0F80
ENDCHAR
STARTCHAR igrave
ENCODING 236
SWIDTH 313 0
DWIDTH 6 0
BBX 5 15 0 0
BITMAP
E0
70
38
00
78
78
78
78
78
78
78
78
78
78
78
ENDCHAR
STARTCHAR iacute
ENCODING 237
SWIDTH 313 0
DWIDTH 6 0
BBX 6 15 1 0
BITMAP
3C
78
E0
00
F0
F0
F0
F0
F0
F0
F0
F0
F0
F0
F0
ENDCHAR
STARTCHAR icircumflex
ENCODING 238
SWIDTH 313 0
DWIDTH 6 0
BBX 8 15 -1 0
BITMAP
3C
3E
E7
00
3C
3C
3C
3C
3C
3C
3C
3C
3C
3C
3C
ENDCHAR
STARTCHAR idieresis
ENCODING 239
SWIDTH 313 0
DWIDTH 6 0
BBX 7 15 0 0
BITMAP
CC
FE
CC
00
78
78
78
78
78
78
78
78
78
78
78
ENDCHAR
STARTCHAR eth
ENCODING 240
SWIDTH 605 0
DWIDTH 12 0
BBX 12 15 0 0
BITMAP
1C40
3FE0
0F80
1FC0
31C0
01E0
1EE0
7FE0
7FF0
F1F0
F0F0
71E0
7FE0
3FC0
1F00
ENDCHAR
STARTCHAR ntilde
ENCODING 241
SWIDTH 674 0
DWIDTH 13 0
BBX 11 15 1 0
BITMAP
1CC0
1FC0
1B80
0000
F7C0
FFE0
FFE0
F9E0
F0E0
F0E0
F0E0
F0E0
F0E0
F0E0
F0E0
ENDCHAR
STARTCHAR ograve
ENCODING 242
SWIDTH 638 0
DWIDTH 13 0
BBX 12 15 0 0
BITMAP
1E00
0E00
0700
0000
0F80
3FE0
7FE0
78F0
7070
F070
7070
78F0
7FE0
3FE0
0F80
ENDCHAR
STARTCHAR oacute
ENCODING 243
SWIDTH 638 0
DWIDTH 13 0
BBX 12 15 0 0
BITMAP
03C0
0380
0700
0000
0F80
3FE0
7FE0
78F0
7070
F070
7070
78F0
7FE0
3FE0
0F80
ENDCHAR
STARTCHAR ocircumflex
ENCODING 244
SWIDTH 638 0
DWIDTH 13 0
BBX 12 15 0 0
BITMAP
0700
0F80
1DC0
0000
0F80
3FE0
7FE0
78F0
7070
F070
7070
78F0
7FE0
3FE0
0F80
ENDCHAR
STARTCHAR otilde
ENCODING 245
SWIDTH 638 0
DWIDTH 13 0
BBX 12 15 0 0
BITMAP
0CC0
1FC0
1B80
0000
0F80
3FE0
7FE0
78F0
7070
F070
7070
78F0
7FE0
3FE0
0F80
ENDCHAR
STARTCHAR odieresis
ENCODING 246
SWIDTH 638 0
DWIDTH 13 0
BBX 12 15 0 0
BITMAP
1D80
1DC0
1D80
0000
0F80
3FE0
7FE0
78F0
7070
F070
7070
78F0
7FE0
3FE0
0F80
ENDCHAR
STARTCHAR divide
ENCODING 247
SWIDTH 511 0
DWIDTH 10 0
BBX 9 10 1 1
BITMAP
1800
3C00
1800
FF80
FF80
FF80
0000
1800
3C00
1800
ENDCHAR
STARTCHAR oslash
ENCODING 248
SWIDTH 638 0
DWIDTH 13 0
BBX 12 14 0 -1
BITMAP
0030
0020
0FE0
3FC0
7FE0
79F0
7370
F270
7470
7CF0
7FF0
3FE0
3F80
6000
ENDCHAR
STARTCHAR ugrave
ENCODING 249
SWIDTH 664 0
DWIDTH 13 0
BBX 11 15 1 0
BITMAP
3C00
1C00
0E00
0000
F1E0
F1E0
F1E0
F1E0
F1E0
F1E0
F1E0
F1E0
FFE0
7FE0
3DE0
ENDCHAR
STARTCHAR uacute
ENCODING 250
SWIDTH 664 0
DWIDTH 13 0
BBX 11 15 1 0
BITMAP
0380
0700
0E00
0000
F1E0
F1E0
F1E0
F1E0
F1E0
F1E0
F1E0
F1E0
FFE0
7FE0
3DE0
ENDCHAR
STARTCHAR ucircumflex
ENCODING 251
SWIDTH 664 0
DWIDTH 13 0
BBX 11 15 1 0
BITMAP
0E00
1F00
3B80
0000
F1E0
F1E0
F1E0
F1E0
F1E0
F1E0
F1E0
F1E0
FFE0
7FE0
3DE0
ENDCHAR
STARTCHAR udieresis
ENCODING 252
SWIDTH 664 0
DWIDTH 13 0
BBX 11 15 1 0
BITMAP
1980
3B80
1B80
0000
F1E0
F1E0
F1E0
F1E0
F1E0
F1E0
F1E0
F1E0
FFE0
7FE0
3DE0
ENDCHAR
STARTCHAR yacute
ENCODING 253
SWIDTH 584 0
DWIDTH 12 0
BBX 12 19 0 -4
BITMAP
0380
0700
0E00
0000
F0F0
F0E0
70E0
79C0
39C0
39C0
3F80
1F80
1F80
0F00
0F00
0E00
7E00
FC00
7800
ENDCHAR
STARTCHAR thorn
ENCODING 254
SWIDTH 686 0
DWIDTH 14 0
BBX 12 19 1 -4
BITMAP
F000
F000
F000
F000
F7C0
FFE0
FFF0
F8F0
F070
F070
F070
F8F0
FFF0
FFE0
F7C0
F000
F000
F000
F000
ENDCHAR
STARTCHAR ydieresis
ENCODING 255
SWIDTH 584 0
DWIDTH 12 0
BBX 12 19 0 -4
BITMAP
1980
3B80
1980
0000
F0F0
F0E0
70E0
79C0
39C0
39C0
3F80
1F80
1F80
0F00
0F00
0E00
7E00
FC00
7800
ENDCHAR
STARTCHAR Amacron
ENCODING 256
SWIDTH 773 0
DWIDTH 15 0
BBX 16 17 0 0
BITMAP
0FE0
0FE0
0000
03C0
07C0
07E0
0FE0
0EF0
0EF0
1E70
1C78
3C78
3FFC
7FFC
7FFE
701E
F01F
ENDCHAR
STARTCHAR amacron
ENCODING 257
SWIDTH 601 0
DWIDTH 12 0
BBX 10 15 1 0
BITMAP
3F00
3F00
0000
0000
3F00
FF80
7FC0
03C0
7FC0
FFC0
E3C0
E3C0
FFC0
FFC0
7BC0
ENDCHAR
STARTCHAR Abreve
ENCODING 258
SWIDTH 773 0
DWIDTH 15 0
BBX 16 18 0 0
BITMAP
0E60
07E0
03C0
0000
03C0
07C0
07E0
0FE0
0EF0
0EF0
1E70
1C78
3C78
3FFC
7FFC
7FFE
701E
F01F
ENDCHAR
STARTCHAR abreve
ENCODING 259
SWIDTH 601 0
DWIDTH 12 0
BBX 10 15 1 0
BITMAP
3300
3F00
1E00
0000
3F00
FF80
7FC0
03C0
7FC0
FFC0
E3C0
E3C0
FFC0
FFC0
7BC0
ENDCHAR
STARTCHAR Aogonek
ENCODING 260
SWIDTH 773 0
DWIDTH 15 0
BBX 16 19 0 -5
BITMAP
03C0
07C0
07E0
0FE0
0EF0
0EF0
1E70
1C78
3C78
3FFC
7FFC
7FFE
701E
F01F
001C
0018
0038
001C
001E
ENDCHAR
STARTCHAR aogonek
ENCODING 261
SWIDTH 601 0
DWIDTH 12 0
BBX 10 15 1 -4
BITMAP
3F00
FF80
7FC0
03C0
7FC0
FFC0
E3C0
E3C0
FFC0
FFC0
7BC0
0380
0700
0780
0380
ENDCHAR
STARTCHAR Cacute
ENCODING 262
SWIDTH 692 0
DWIDTH 14 0
BBX 14 19 0 0
BITMAP
0080
00F0
01E0
0380
0000
07E0
1FF8
3FFC
7C38
7810
7000
F000
F000
7000
7810
7C30
3FFC
1FF8
07E0
ENDCHAR
STARTCHAR cacute
ENCODING 263
SWIDTH 562 0
DWIDTH 11 0
BBX 11 15 0 0
BITMAP
03C0
0700
0E00
0000
0F80
3FC0
7FE0
7880
7000
F000
7000
7880
7FE0
3FC0
1F80
ENDCHAR
STARTCHAR Ccircumflex
ENCODING 264
SWIDTH 692 0
DWIDTH 14 0
BBX 14 18 0 0
BITMAP
03C0
03E0
0E70
0000
07E0
1FF8
3FFC
7C38
7810
7000
F000
F000
7000
7810
7C30
3FFC
1FF8
07E0
ENDCHAR
STARTCHAR ccircumflex
ENCODING 265
SWIDTH 562 0
DWIDTH 11 0
BBX 11 15 0 0
BITMAP
0F00
1F80
39C0
0000
0F80
3FC0
7FE0
7880
7000
F000
7000
7880
7FE0
3FC0
1F80
ENDCHAR
STARTCHAR Cdotaccent
ENCODING 266
SWIDTH 692 0
DWIDTH 14 0
BBX 14 19 0 0
BITMAP
0180
03C0
03C0
0180
0000
07E0
1FF8
3FFC
7C38
7810
7000
F000
F000
7000
7810
7C30
3FFC
1FF8
07E0
ENDCHAR
STARTCHAR cdotaccent
ENCODING 267
SWIDTH 562 0
DWIDTH 11 0
BBX 11 16 0 0
BITMAP
0600
0F00
0F00
0600
0000
0F80
3FC0
7FE0
7880
7000
F000
7000
7880
7FE0
3FC0
1F80
ENDCHAR
STARTCHAR Ccaron
ENCODING 268
SWIDTH 692 0
DWIDTH 14 0
BBX 14 18 0 0
BITMAP
0E70
07E0
03C0
0000
07E0
1FF8
3FFC
7C38
7810
7000
F000
F000
7000
7810
7C30
3FFC
1FF8
07E0
ENDCHAR
STARTCHAR ccaron
ENCODING 269
SWIDTH 562 0
DWIDTH 11 0
BBX 11 15 0 0
BITMAP
39C0
1F80
0F00
0000
0F80
3FC0
7FE0
7880
7000
F000
7000
7880
7FE0
3FC0
1F80
ENDCHAR
STARTCHAR Dcaron
ENCODING 270
SWIDTH 766 0
DWIDTH 15 0
BBX 14 18 1 0
BITMAP
39C0
1F80
0F00
0000
FF80
FFE0
FFF0
F0F8
F078
F03C
F03C
F03C
F03C
F078
F078
FFF0
FFE0
FF80
ENDCHAR
STARTCHAR dcaron
ENCODING 271
SWIDTH 802 0
DWIDTH 16 0
BBX 17 15 0 0
BITMAP
007380
007300
007300
007300
1F7000
3FF000
7FF000
78F000
707000
F07000
707000
78F000
7FF000
3FF000
1F7000
ENDCHAR
STARTCHAR Dcroat
ENCODING 272
SWIDTH 766 0
DWIDTH 15 0
BBX 15 14 0 0
BITMAP
7FC0
7FF0
7FF8
787C
783C
781E
FF1E
FF1E
781E
783C
783C
7FF8
7FF0
7FC0
ENDCHAR
STARTCHAR dcroat
ENCODING 273
SWIDTH 686 0
DWIDTH 14 0
BBX 14 15 0 0
BITMAP
0070
0070
07FC
07FC
0070
1E70
3FF0
7FF0
78F0
F070
7070
78F0
7FF0
3FF0
1F70
ENDCHAR
STARTCHAR Emacron
ENCODING 274
SWIDTH 675 0
DWIDTH 14 0
BBX 12 17 1 0
BITMAP
3F80
3F80
0000
FFE0
FFE0
FFE0
F000
F000
FFE0
FFE0
FFE0
F000
F000
F000
FFF0
FFF0
FFF0
ENDCHAR
STARTCHAR emacron
ENCODING 275
SWIDTH 603 0
DWIDTH 12 0
BBX 12 15 0 0
BITMAP
1F80
1F80
0000
0000
0F80
3FC0
7FE0
70E0
7FF0
FFF0
7000
78C0
7FE0
3FC0
0F80
ENDCHAR
STARTCHAR Ebreve
ENCODING 276
SWIDTH 675 0
DWIDTH 14 0
BBX 12 18 1 0
BITMAP
1980
1F80
0F00
0000
FFE0
FFE0
FFE0
F000
F000
FFE0
FFE0
FFE0
F000
F000
F000
FFF0
FFF0
FFF0
ENDCHAR
STARTCHAR ebreve
ENCODING 277
SWIDTH 603 0
DWIDTH 12 0
BBX 12 15 0 0
BITMAP
1980
1F80
0F00
0000
0F80
3FC0
7FE0
70E0
7FF0
FFF0
7000
78C0
7FE0
3FC0
0F80
ENDCHAR
STARTCHAR Edotaccent
ENCODING 278
SWIDTH 675 0
DWIDTH 14 0
BBX 12 19 1 0
BITMAP
0600
0F00
0F00
0600
0000
FFE0
FFE0
FFE0
F000
F000
FFE0
FFE0
FFE0
F000
F000
F000
FFF0
FFF0
FFF0
ENDCHAR
STARTCHAR edotaccent
ENCODING 279
SWIDTH 603 0
DWIDTH 12 0
BBX 12 16 0 0
BITMAP
0600
0F00
0F00
0600
0000
0F80
3FC0
7FE0
70E0
7FF0
FFF0
7000
78C0
7FE0
3FC0
0F80
ENDCHAR
STARTCHAR Eogonek
ENCODING 280
SWIDTH 675 0
DWIDTH 14 0
BBX 12 19 1 -5
BITMAP
FFE0
FFE0
FFE0
F000
F000
FFE0
FFE0
FFE0
F000
F000
F000
FFF0
FFF0
FFF0
00E0
00C0
01C0
00E0
00F0
ENDCHAR
STARTCHAR eogonek
ENCODING 281
SWIDTH 603 0
DWIDTH 12 0
BBX 12 15 0 -4
BITMAP
0F80
3FC0
7FE0
70E0
7FF0
FFF0
7000
78C0
7FE0
3FC0
0F80
0180
0300
03C0
03C0
ENDCHAR
STARTCHAR Ecaron
ENCODING 282
SWIDTH 675 0
DWIDTH 14 0
BBX 12 18 1 0
BITMAP
3980
1F00
0F00
0000
FFE0
FFE0
FFE0
F000
F000
FFE0
FFE0
FFE0
F000
F000
F000
FFF0
FFF0
FFF0
ENDCHAR
STARTCHAR ecaron
ENCODING 283
SWIDTH 603 0
DWIDTH 12 0
BBX 12 15 0 0
BITMAP
39C0
1F80
0F00
0000
0F80
3FC0
7FE0
70E0
7FF0
FFF0
7000
78C0
7FE0
3FC0
0F80
ENDCHAR
STARTCHAR Gcircumflex
ENCODING 284
SWIDTH 743 0
DWIDTH 15 0
BBX 14 18 0 0
BITMAP
03C0
07E0
0E70
0000
07F0
1FFC
3FF8
7C30
7800
7000
F0FC
F0FC
70FC
781C
7C1C
3FFC
1FFC
0FF0
ENDCHAR
STARTCHAR gcircumflex
ENCODING 285
SWIDTH 648 0
DWIDTH 13 0
BBX 12 19 0 -4
BITMAP
0F00
0F80
39C0
0000
1EF0
3FF0
7FF0
70F0
70F0
F0F0
70F0
79F0
7FF0
3FF0
1EF0
20F0
3FE0
7FC0
1F80
ENDCHAR
STARTCHAR Gbreve
ENCODING 286
SWIDTH 743 0
DWIDTH 15 0
BBX 14 18 0 0
BITMAP
0660
07E0
03C0
0000
07F0
1FFC
3FF8
7C30
7800
7000
F0FC
F0FC
70FC
781C
7C1C
3FFC
1FFC
0FF0
ENDCHAR
STARTCHAR gbreve
ENCODING 287
SWIDTH 648 0
DWIDTH 13 0
BBX 12 19 0 -4
BITMAP
1980
1F80
0F00
0000
1EF0
3FF0
7FF0
70F0
70F0
F0F0
70F0
79F0
7FF0
3FF0
1EF0
20F0
3FE0
7FC0
1F80
ENDCHAR
STARTCHAR Gdotaccent
ENCODING 288
SWIDTH 743 0
DWIDTH 15 0
BBX 14 19 0 0
BITMAP
0180
03C0
03C0
0180
0000
07F0
1FFC
3FF8
7C30
7800
7000
F0FC
F0FC
70FC
781C
7C1C
3FFC
1FFC
0FF0
ENDCHAR
STARTCHAR gdotaccent
ENCODING 289
SWIDTH 648 0
DWIDTH 13 0
BBX 12 20 0 -4
BITMAP
0600
0F00
0F00
0600
0000
1EF0
3FF0
7FF0
70F0
70F0
F0F0
70F0
79F0
7FF0
3FF0
1EF0
20F0
3FE0
7FC0
1F80
ENDCHAR
STARTCHAR Gcommaaccent
ENCODING 290
SWIDTH 743 0
DWIDTH 15 0
BBX 14 19 0 -5
BITMAP
07F0
1FFC
3FF8
7C30
7800
7000
F0FC
F0FC
70FC
781C
7C1C
3FFC
1FFC
0FF0
0000
0380
0380
0300
0300
ENDCHAR
STARTCHAR gcommaaccent
ENCODING 291
SWIDTH 648 0
DWIDTH 13 0
BBX 12 20 0 -4
BITMAP
0300
0700
0700
0E00
0000
1EF0
3FF0
7FF0
70F0
70F0
F0F0
70F0
79F0
7FF0
3FF0
1EF0
20F0
3FE0
7FC0
1F80
ENDCHAR
STARTCHAR Hcircumflex
ENCODING 292
SWIDTH 785 0
DWIDTH 16 0
BBX 13 18 1 0
BITMAP
0780
0FC0
1CE0
0000
F038
F038
F038
F038
F038
F038
FFF8
FFF8
FFF8
F038
F038
F038
F038
F038
ENDCHAR
STARTCHAR hcircumflex
ENCODING 293
SWIDTH 679 0
DWIDTH 14 0
BBX 14 19 -1 0
BITMAP
3C00
3E00
E700
0000
3C00
3C00
3C00
3C00
3DF0
3FF8
3FF8
3E3C
3C3C
3C3C
3C3C
3C3C
3C3C
3C3C
3C3C
ENDCHAR
STARTCHAR Hbar
ENCODING 294
SWIDTH 843 0
DWIDTH 17 0
BBX 17 14 0 0
BITMAP
3C1E00
3C1E00
FFFF80
FFFF80
3C1E00
3C1E00
3FFE00
3FFE00
3FFE00
3C1E00
3C1E00
3C1E00
3C1E00
3C1E00
ENDCHAR
STARTCHAR hbar
ENCODING 295
SWIDTH 679 0
DWIDTH 14 0
BBX 13 15 0 0
BITMAP
7800
7800
FF00
FF00
7800
7BE0
7FF0
7FF0
7C78
7878
7878
7878
7878
7878
7878
ENDCHAR
STARTCHAR Itilde
ENCODING 296
SWIDTH 319 0
DWIDTH 6 0
BBX 7 18 0 0
BITMAP
E6
FE
DC
00
78
78
78
78
78
78
78
78
78
78
78
78
78
78
ENDCHAR
STARTCHAR itilde
ENCODING 297
SWIDTH 313 0
DWIDTH 6 0
BBX 7 15 0 0
BITMAP
FE
FC
DC
00
78
78
78
78
78
78
78
78
78
78
78
ENDCHAR
STARTCHAR Imacron
ENCODING 298
SWIDTH 319 0
DWIDTH 6 0
BBX 6 17 0 0
BITMAP
FC
FC
00
78
78
78
78
78
78
78
78
78
78
78
78
78
78
ENDCHAR
STARTCHAR imacron
ENCODING 299
SWIDTH 313 0
DWIDTH 6 0
BBX 6 15 0 0
BITMAP
FC
FC
00
00
78
78
78
78
78
78
78
78
78
78
78
ENDCHAR
STARTCHAR Ibreve
ENCODING 300
SWIDTH 319 0
DWIDTH 6 0
BBX 7 18 0 0
BITMAP
CE
FC
78
00
78
78
78
78
78
78
78
78
78
78
78
78
78
78
ENDCHAR
STARTCHAR ibreve
ENCODING 301
SWIDTH 313 0
DWIDTH 6 0
BBX 6 15 0 0
BITMAP
CC
FC
78
00
78
78
78
78
78
78
78
78
78
78
78
ENDCHAR
STARTCHAR Iogonek
ENCODING 302
SWIDTH 319 0
DWIDTH 6 0
BBX 5 19 0 -5
BITMAP
78
78
78
78
78
78
78
78
78
78
78
78
78
78
70
E0
E0
F0
70
ENDCHAR
STARTCHAR iogonek
ENCODING 303
SWIDTH 313 0
DWIDTH 6 0
BBX 5 21 0 -5
BITMAP
30
78
78
30
00
78
78
78
78
78
78
78
78
78
78
78
70
E0
E0
F0
70
ENDCHAR
STARTCHAR Idotaccent
ENCODING 304
SWIDTH 319 0
DWIDTH 6 0
BBX 4 19 1 0
BITMAP
60
F0
F0
60
00
F0
F0
F0
F0
F0
F0
F0
F0
F0
F0
F0
F0
F0
F0
ENDCHAR
STARTCHAR dotlessi
ENCODING 305
SWIDTH 313 0
DWIDTH 6 0
BBX 4 11 1 0
BITMAP
F0
F0
F0
F0
F0
F0
F0
F0
F0
F0
F0
ENDCHAR
STARTCHAR IJ
ENCODING 306
SWIDTH 870 0
DWIDTH 17 0
BBX 15 14 1 0
BITMAP
F1FE
F1FE
F1FE
F01E
F01E
F01E
F01E
F01E
F01E
F01E
F31E
F7FE
F3FC
F1F8
ENDCHAR
STARTCHAR ij
ENCODING 307
SWIDTH 628 0
DWIDTH 13 0
BBX 10 20 1 -4
BITMAP
61C0
F1C0
F3C0
61C0
0000
F1C0
F1C0
F1C0
F1C0
F1C0
F1C0
F1C0
F1C0
F1C0
F1C0
F1C0
01C0
07C0
0FC0
0F80
ENDCHAR
STARTCHAR Jcircumflex
ENCODING 308
SWIDTH 539 0
DWIDTH 11 0
BBX 10 18 0 0
BITMAP
0E00
1F00
3B80
0000
7FC0
7FC0
7FC0
03C0
03C0
03C0
03C0
03C0
03C0
03C0
63C0
FF80
FF80
3E00
ENDCHAR
STARTCHAR jcircumflex
ENCODING 309
SWIDTH 312 0
DWIDTH 6 0
BBX 8 19 -1 -4
BITMAP
3C
3E
E7
00
3C
3C
3C
3C
3C
3C
3C
3C
3C
3C
3C
3C
FC
F8
F0
ENDCHAR
STARTCHAR Kcommaaccent
ENCODING 310
SWIDTH 749 0
DWIDTH 15 0
BBX 14 19 1 -5
BITMAP
F07C
F0F0
F1E0
F3C0
F7C0
F780
FF80
FF80
FFC0
FBE0
F1E0
F0F0
F0F8
F07C
0000
0700
0600
0E00
0C00
ENDCHAR
STARTCHAR kcommaaccent
ENCODING 311
SWIDTH 633 0
DWIDTH 13 0
BBX 12 20 1 -5
BITMAP
F000
F000
F000
F000
F1F0
F3C0
F780
FF00
FF00
FF00
FF80
FF80
F3C0
F1E0
F1F0
0000
0E00
0C00
0C00
1C00
ENDCHAR
STARTCHAR kgreenlandic
ENCODING 312
SWIDTH 627 0
DWIDTH 13 0
BBX 11 11 1 0
BITMAP
F1E0
F3C0
F780
FF00
FF00
FF00
FF80
F780
F3C0
F3E0
F1E0
ENDCHAR
STARTCHAR Lacute
ENCODING 313
SWIDTH 563 0
DWIDTH 11 0
BBX 10 19 1 0
BITMAP
2000
3C00
7800
E000
0000
F000
F000
F000
F000
F000
F000
F000
F000
F000
F000
F000
FFC0
FFC0
FFC0
ENDCHAR
STARTCHAR lacute
ENCODING 314
SWIDTH 324 0
DWIDTH 6 0
BBX 6 19 1 0
BITMAP
3C
78
E0
00
F0
F0
F0
F0
F0
F0
F0
F0
F0
F0
F0
F0
F0
F0
F0
ENDCHAR
STARTCHAR Lcommaaccent
ENCODING 315
SWIDTH 563 0
DWIDTH 11 0
BBX 10 19 1 -5
BITMAP
F000
F000
F000
F000
F000
F000
F000
F000
F000
F000
F000
FFC0
FFC0
FFC0
0000
0E00
1C00
1C00
1800
ENDCHAR
STARTCHAR lcommaaccent
ENCODING 316
SWIDTH 324 0
DWIDTH 6 0
BBX 4 20 1 -5
BITMAP
F0
F0
F0
F0
F0
F0
F0
F0
F0
F0
F0
F0
F0
F0
F0
00
70
60
E0
C0
ENDCHAR
STARTCHAR Lcaron
ENCODING 317
SWIDTH 563 0
DWIDTH 11 0
BBX 10 14 1 0
BITMAP
F1C0
F1C0
F1C0
F180
F000
F000
F000
F000
F000
F000
F000
FFC0
FFC0
FFC0
ENDCHAR
STARTCHAR lcaron
ENCODING 318
SWIDTH 434 0
DWIDTH 9 0
BBX 8 15 1 0
BITMAP
F7
F7
F7
F7
F0
F0
F0
F0
F0
F0
F0
F0
F0
F0
F0
ENDCHAR
STARTCHAR Ldot
ENCODING 319
SWIDTH 563 0
DWIDTH 11 0
BBX 10 14 1 0
BITMAP
F000
F000
F000
F380
F3C0
F380
F380
F000
F000
F000
F000
FFC0
FFC0
FFC0
ENDCHAR
STARTCHAR ldot
ENCODING 320
SWIDTH 482 0
DWIDTH 10 0
BBX 9 15 1 0
BITMAP
F000
F000
F000
F000
F000
F300
F780
F780
F300
F000
F000
F000
F000
F000
F000
ENDCHAR
STARTCHAR Lslash
ENCODING 321
SWIDTH 608 0
DWIDTH 12 0
BBX 12 14 0 0
BITMAP
3C00
3C00
3C00
3D00
3F00
3E00
3C00
FC00
FC00
3C00
3C00
3FF0
3FF0
3FF0
ENDCHAR
STARTCHAR lslash
ENCODING 322
SWIDTH 422 0
DWIDTH 8 0
BBX 8 15 0 0
BITMAP
3C
3C
3C
3C
3D
3F
3E
3C
FC
FC
3C
3C
3C
3C
3C
ENDCHAR
STARTCHAR Nacute
ENCODING 323
SWIDTH 786 0
DWIDTH 16 0
BBX 13 19 1 0
BITMAP
0100
01C0
0380
0700
0000
F038
F838
F838
FC38
FE38
FF38
FF38
F7B8
F3F8
F1F8
F1F8
F0F8
F078
F038
ENDCHAR
STARTCHAR nacute
ENCODING 324
SWIDTH 674 0
DWIDTH 13 0
BBX 11 15 1 0
BITMAP
03C0
0780
0E00
0000
F7C0
FFE0
FFE0
F9E0
F0E0
F0E0
F0E0
F0E0
F0E0
F0E0
F0E0
ENDCHAR
STARTCHAR Ncommaaccent
ENCODING 325
SWIDTH 786 0
DWIDTH 16 0
BBX 13 19 1 -5
BITMAP
F038
F838
F838
FC38
FE38
FF38
FF38
F7B8
F3F8
F1F8
F1F8
F0F8
F078
F038
0000
0700
0700
0600
0600
ENDCHAR
STARTCHAR ncommaaccent
ENCODING 326
SWIDTH 674 0
DWIDTH 13 0
BBX 11 16 1 -5
BITMAP
F7C0
FFE0
FFE0
F9E0
F0E0
F0E0
F0E0
F0E0
F0E0
F0E0
F0E0
0000
0E00
0E00
0C00
0C00
ENDCHAR
STARTCHAR Ncaron
ENCODING 327
SWIDTH 786 0
DWIDTH 16 0
BBX 13 18 1 0
BITMAP
1CC0
0F80
0780
0000
F038
F838
F838
FC38
FE38
FF38
FF38
F7B8
F3F8
F1F8
F1F8
F0F8
F078
F038
ENDCHAR
STARTCHAR ncaron
ENCODING 328
SWIDTH 674 0
DWIDTH 13 0
BBX 11 15 1 0
BITMAP
39C0
1F80
0F00
0000
F7C0
FFE0
FFE0
F9E0
F0E0
F0E0
F0E0
F0E0
F0E0
F0E0
F0E0
ENDCHAR
STARTCHAR napostrophe
ENCODING 329
SWIDTH 826 0
DWIDTH 17 0
BBX 14 14 1 0
BITMAP
C000
C000
C000
DEF8
DFFC
1FFC
1F3C
1E1C
1E1C
1E1C
1E1C
1E1C
1E1C
1E1C
ENDCHAR
STARTCHAR Eng
ENCODING 330
SWIDTH 786 0
DWIDTH 16 0
BBX 13 18 1 -4
BITMAP
F038
F838
F838
FC38
FE38
FF38
FF38
F7B8
F3F8
F1F8
F1F8
F0F8
F078
F038
0238
03F8
07F0
03E0
ENDCHAR
STARTCHAR eng
ENCODING 331
SWIDTH 674 0
DWIDTH 13 0
BBX 11 15 1 -4
BITMAP
F7C0
FFE0
FFE0
F9E0
F0E0
F0E0
F0E0
F0E0
F0E0
F0E0
F0E0
00E0
07E0
07E0
07C0
ENDCHAR
STARTCHAR Omacron
ENCODING 332
SWIDTH 804 0
DWIDTH 16 0
BBX 16 17 0 0
BITMAP
07F0
07F0
0000
07E0
1FF8
3FFC
7C3E
781E
700E
F00F
F00F
700E
781E
7C3E
3FFC
1FF8
07E0
ENDCHAR
STARTCHAR omacron
ENCODING 333
SWIDTH 638 0
DWIDTH 13 0
BBX 12 15 0 0
BITMAP
1F80
1F80
0000
0000
0F80
3FE0
7FE0
78F0
7070
F070
7070
78F0
7FE0
3FE0
0F80
ENDCHAR
STARTCHAR Obreve
ENCODING 334
SWIDTH 804 0
DWIDTH 16 0
BBX 16 18 0 0
BITMAP
0660
07E0
03C0
0000
07E0
1FF8
3FFC
7C3E
781E
700E
F00F
F00F
700E
781E
7C3E
3FFC
1FF8
07E0
ENDCHAR
STARTCHAR obreve
ENCODING 335
SWIDTH 638 0
DWIDTH 13 0
BBX 12 15 0 0
BITMAP
1DC0
0F80
0700
0000
0F80
3FE0
7FE0
78F0
7070
F070
7070
78F0
7FE0
3FE0
0F80
ENDCHAR
STARTCHAR Ohungarumlaut
ENCODING 336
SWIDTH 804 0
DWIDTH 16 0
BBX 16 19 0 0
BITMAP
0220
03B8
0770
06E0
0000
07E0
1FF8
3FFC
7C3E
781E
700E
F00F
F00F
700E
781E
7C3E
3FFC
1FF8
07E0
ENDCHAR
STARTCHAR ohungarumlaut
ENCODING 337
SWIDTH 638 0
DWIDTH 13 0
BBX 12 16 0 0
BITMAP
0880
0EE0
1DC0
1DC0
0000
0F80
3FE0
7FE0
78F0
7070
F070
7070
78F0
7FE0
3FE0
0F80
ENDCHAR
STARTCHAR OE
ENCODING 338
SWIDTH 1114 0
DWIDTH 22 0
BBX 21 14 0 0
BITMAP
07FFF8
1FFFF8
3FFFF8
7C3C00
783C00
703FF0
F03FF0
F03FF0
703C00
783C00
7C3C00
3FFFF8
1FFFF8
07FFF8
ENDCHAR
STARTCHAR oe
ENCODING 339
SWIDTH 1017 0
DWIDTH 20 0
BBX 20 11 0 0
BITMAP
0F8F80
3FDFC0
7FFFE0
78F0F0
707FF0
F07FF0
707000
78F840
7FFFE0
3FDFE0
0F8F80
ENDCHAR
STARTCHAR Racute
ENCODING 340
SWIDTH 724 0
DWIDTH 14 0
BBX 13 19 1 0
BITMAP
0200
03C0
0780
0E00
0000
FFC0
FFE0
FFF0
F070
F078
F070
F0F0
FFF0
FFE0
FFC0
F1E0
F0E0
F0F0
F078
ENDCHAR
STARTCHAR racute
ENCODING 341
SWIDTH 430 0
DWIDTH 9 0
BBX 7 15 1 0
BITMAP
0E
1C
38
00
F6
FE
FE
F8
F0
F0
F0
F0
F0
F0
F0
ENDCHAR
STARTCHAR Rcommaaccent
ENCODING 342
SWIDTH 724 0
DWIDTH 14 0
BBX 13 19 1 -5
BITMAP
FFC0
FFE0
FFF0
F070
F078
F070
F0F0
FFF0
FFE0
FFC0
F1E0
F0E0
F0F0
F078
0000
0700
0E00
0E00
0C00
ENDCHAR
STARTCHAR rcommaaccent
ENCODING 343
SWIDTH 430 0
DWIDTH 9 0
BBX 7 16 1 -5
BITMAP
F6
FE
FE
F8
F0
F0
F0
F0
F0
F0
F0
00
70
E0
E0
C0
ENDCHAR
STARTCHAR Rcaron
ENCODING 344
SWIDTH 724 0
DWIDTH 14 0
BBX 13 18 1 0
BITMAP
39C0
1F80
0F00
0000
FFC0
FFE0
FFF0
F070
F078
F070
F0F0
FFF0
FFE0
FFC0
F1E0
F0E0
F0F0
F078
ENDCHAR
STARTCHAR rcaron
ENCODING 345
SWIDTH 430 0
DWIDTH 9 0
BBX 8 15 1 0
BITMAP
E7
7E
3C
00
F6
FE
FE
F8
F0
F0
F0
F0
F0
F0
F0
ENDCHAR
STARTCHAR Sacute
ENCODING 346
SWIDTH 646 0
DWIDTH 13 0
BBX 12 19 0 0
BITMAP
0100
01C0
0380
0700
0000
0FC0
3FF0
3FF0
7860
7800
7F00
3FC0
1FF0
01F0
40F0
70F0
FFF0
7FE0
0FC0
ENDCHAR
STARTCHAR sacute
ENCODING 347
SWIDTH 517 0
DWIDTH 10 0
BBX 10 15 0 0
BITMAP
0780
0F00
0E00
0000
1F00
7FC0
7F80
7080
7C00
3F80
07C0
43C0
7FC0
FF80
3F00
ENDCHAR
STARTCHAR Scircumflex
ENCODING 348
SWIDTH 646 0
DWIDTH 13 0
BBX 12 18 0 0
BITMAP
0780
0F80
1CE0
0000
0FC0
3FF0
3FF0
7860
7800
7F00
3FC0
1FF0
01F0
40F0
70F0
FFF0
7FE0
0FC0
ENDCHAR
STARTCHAR scircumflex
ENCODING 349
SWIDTH 517 0
DWIDTH 10 0
BBX 10 15 0 0
BITMAP
0E00
1F00
3B80
0000
1F00
7FC0
7F80
7080
7C00
3F80
07C0
43C0
7FC0
FF80
3F00
ENDCHAR
STARTCHAR Scedilla
ENCODING 350
SWIDTH 646 0
DWIDTH 13 0
BBX 12 19 0 -5
BITMAP
0FC0
3FF0
3FF0
7860
7800
7E00
3FC0
0FF0
01F0
4070
70F0
FFF0
7FF0
1FC0
0300
0700
0180
0780
0F00
ENDCHAR
STARTCHAR scedilla
ENCODING 351
SWIDTH 517 0
DWIDTH 10 0
BBX 10 16 0 -5
BITMAP
1F00
3FC0
7F80
7080
7C00
7F00
1F80
03C0
63C0
FF80
7F00
0C00
0E00
0600
1F00
1E00
ENDCHAR
STARTCHAR Scaron
ENCODING 352
SWIDTH 646 0
DWIDTH 13 0
BBX 12 18 0 0
BITMAP
1DC0
0F80
0780
0000
0FC0
3FF0
3FF0
7860
7800
7F00
3FC0
1FF0
01F0
40F0
70F0
FFF0
7FE0
0FC0
ENDCHAR
STARTCHAR scaron
ENCODING 353
SWIDTH 517 0
DWIDTH 10 0
BBX 10 15 0 0
BITMAP
3B80
1F00
1E00
0000
1F00
7FC0
7F80
7080
7C00
3F80
07C0
43C0
7FC0
FF80
3F00
ENDCHAR
STARTCHAR uni0162
ENCODING 354
SWIDTH 614 0
DWIDTH 12 0
BBX 12 19 0 -5
BITMAP
FFF0
FFF0
FFF0
0F00
0F00
0F00
0F00
0F00
0F00
0F00
0F00
0F00
0F00
0F00
0600
0700
0380
0F00
0F00
ENDCHAR
STARTCHAR uni0163
ENCODING 355
SWIDTH 437 0
DWIDTH 9 0
BBX 8 18 0 -5
BITMAP
38
38
38
FF
FF
FF
38
38
38
38
3D
3F
1F
0C
0E
07
1F
1E
ENDCHAR
STARTCHAR Tcaron
ENCODING 356
SWIDTH 614 0
DWIDTH 12 0
BBX 12 18 0 0
BITMAP
39C0
1F80
0F00
0000
FFF0
FFF0
FFF0
0F00
0F00
0F00
0F00
0F00
0F00
0F00
0F00
0F00
0F00
0F00
ENDCHAR
STARTCHAR tcaron
ENCODING 357
SWIDTH 437 0
DWIDTH 9 0
BBX 9 15 0 0
BITMAP
0380
3B80
3B80
3800
FF00
FF00
FF00
3800
3800
3800
3800
3800
3F00
3F00
1F00
ENDCHAR
STARTCHAR Tbar
ENCODING 358
SWIDTH 614 0
DWIDTH 12 0
BBX 12 14 0 0
BITMAP
FFF0
FFF0
FFF0
0F00
0F00
0F00
0F00
3FE0
3FE0
0F00
0F00
0F00
0F00
0F00
ENDCHAR
STARTCHAR tbar
ENCODING 359
SWIDTH 437 0
DWIDTH 9 0
BBX 8 14 0 0
BITMAP
38
38
38
38
FF
FF
38
FF
FF
38
38
3F
3F
1F
ENDCHAR
STARTCHAR Utilde
ENCODING 360
SWIDTH 749 0
DWIDTH 15 0
BBX 13 18 1 0
BITMAP
0CC0
1FC0
19C0
0000
F078
F078
F078
F078
F078
F078
F078
F078
F078
F078
78F0
7FF0
3FE0
0F80
ENDCHAR
STARTCHAR utilde
ENCODING 361
SWIDTH 664 0
DWIDTH 13 0
BBX 11 15 1 0
BITMAP
1980
3F80
3380
0000
F1E0
F1E0
F1E0
F1E0
F1E0
F1E0
F1E0
F1E0
FFE0
7FE0
3DE0
ENDCHAR
STARTCHAR Umacron
ENCODING 362
SWIDTH 749 0
DWIDTH 15 0
BBX 13 17 1 0
BITMAP
1FC0
1FC0
0000
F078
F078
F078
F078
F078
F078
F078
F078
F078
F078
78F0
7FF0
3FE0
0F80
ENDCHAR
STARTCHAR umacron
ENCODING 363
SWIDTH 664 0
DWIDTH 13 0
BBX 11 15 1 0
BITMAP
1F80
1F80
0000
0000
F1E0
F1E0
F1E0
F1E0
F1E0
F1E0
F1E0
F1E0
FFE0
7FE0
3DE0
ENDCHAR
STARTCHAR Ubreve
ENCODING 364
SWIDTH 749 0
DWIDTH 15 0
BBX 13 18 1 0
BITMAP
1DC0
0F80
0700
0000
F078
F078
F078
F078
F078
F078
F078
F078
F078
F078
78F0
7FF0
3FE0
0F80
ENDCHAR
STARTCHAR ubreve
ENCODING 365
SWIDTH 664 0
DWIDTH 13 0
BBX 11 15 1 0
BITMAP
3B80
1F00
0E00
0000
F1E0
F1E0
F1E0
F1E0
F1E0
F1E0
F1E0
F1E0
FFE0
7FE0
3DE0
ENDCHAR
STARTCHAR Uring
ENCODING 366
SWIDTH 749 0
DWIDTH 15 0
BBX 13 20 1 0
BITMAP
0700
0D80
0D80
0F80
0700
0000
F078
F078
F078
F078
F078
F078
F078
F078
F078
F078
78F0
7FF0
3FE0
0F80
ENDCHAR
STARTCHAR uring
ENCODING 367
SWIDTH 664 0
DWIDTH 13 0
BBX 11 17 1 0
BITMAP
0E00
1B00
1B00
1F00
0E00
0000
F1E0
F1E0
F1E0
F1E0
F1E0
F1E0
F1E0
F1E0
FFE0
7FE0
3DE0
ENDCHAR
STARTCHAR Uhungarumlaut
ENCODING 368
SWIDTH 749 0
DWIDTH 15 0
BBX 13 19 1 0
BITMAP
0880
0EE0
0CC0
1DC0
0000
F078
F078
F078
F078
F078
F078
F078
F078
F078
F078
78F0
7FF0
3FE0
0F80
ENDCHAR
STARTCHAR uhungarumlaut
ENCODING 369
SWIDTH 664 0
DWIDTH 13 0
BBX 11 16 1 0
BITMAP
1100
1DC0
1DC0
3B80
0000
F1E0
F1E0
F1E0
F1E0
F1E0
F1E0
F1E0
F1E0
FFE0
7FE0
3DE0
ENDCHAR
STARTCHAR Uogonek
ENCODING 370
SWIDTH 749 0
DWIDTH 15 0
BBX 13 18 1 -4
BITMAP
F078
F078
F078
F078
F078
F078
F078
F078
F078
F078
78F0
7FF0
3FE0
0FC0
0180
0180
01C0
01E0
ENDCHAR
STARTCHAR uogonek
ENCODING 371
SWIDTH 664 0
DWIDTH 13 0
BBX 11 15 1 -4
BITMAP
F1E0
F1E0
F1E0
F1E0
F1E0
F1E0
F1E0
F1E0
FFE0
7FE0
3DE0
0180
0380
03C0
01C0
ENDCHAR
STARTCHAR Wcircumflex
ENCODING 372
SWIDTH 1113 0
DWIDTH 22 0
BBX 22 18 0 0
BITMAP
007800
007C00
01CE00
000000
F0783C
F0783C
787C38
78FC38
78FC78
38FC70
3CEE70
3DCE70
1DCEE0
1DC7E0
0F87E0
0F87C0
0F87C0
0783C0
ENDCHAR
STARTCHAR wcircumflex
ENCODING 373
SWIDTH 941 0
DWIDTH 19 0
BBX 19 15 0 0
BITMAP
00E000
01F000
03B800
000000
F0E1E0
F1F1C0
71F1C0
79F3C0
39B380
3BBB80
3BBB80
1F3F00
1F1F00
1F1F00
0F1E00
ENDCHAR
STARTCHAR Ycircumflex
ENCODING 374
SWIDTH 684 0
DWIDTH 14 0
BBX 14 18 0 0
BITMAP
0780
0F80
1CE0
0000
F03C
7078
7870
38F0
3CE0
1FE0
1FC0
0FC0
0F80
0780
0780
0780
0780
0780
ENDCHAR
STARTCHAR ycircumflex
ENCODING 375
SWIDTH 584 0
DWIDTH 12 0
BBX 12 19 0 -4
BITMAP
0F00
1F00
39C0
0000
F0F0
F0E0
70E0
79C0
39C0
39C0
3F80
1F80
1F80
0F00
0F00
0E00
7E00
FC00
7800
ENDCHAR
STARTCHAR Ydieresis
ENCODING 376
SWIDTH 684 0
DWIDTH 14 0
BBX 14 18 0 0
BITMAP
0CC0
1DC0
0CC0
0000
F03C
7078
7870
38F0
3CE0
1FE0
1FC0
0FC0
0F80
0780
0780
0780
0780
0780
ENDCHAR
STARTCHAR Zacute
ENCODING 377
SWIDTH 676 0
DWIDTH 14 0
BBX 12 19 1 0
BITMAP
0200
0380
0700
0E00
0000
FFF0
FFF0
FFF0
03E0
03C0
0780
0F00
1F00
3E00
7C00
7800
FFF0
FFF0
FFF0
ENDCHAR
STARTCHAR zacute
ENCODING 378
SWIDTH 555 0
DWIDTH 11 0
BBX 10 15 1 0
BITMAP
0F00
0E00
1C00
0000
FF80
FF80
FF80
0F00
1E00
1C00
3C00
7800
FFC0
FFC0
FFC0
ENDCHAR
STARTCHAR Zdotaccent
ENCODING 379
SWIDTH 676 0
DWIDTH 14 0
BBX 12 19 1 0
BITMAP
0600
0F00
0F00
0600
0000
FFF0
FFF0
FFF0
03E0
03C0
0780
0F00
1F00
3E00
7C00
7800
FFF0
FFF0
FFF0
ENDCHAR
STARTCHAR zdotaccent
ENCODING 380
SWIDTH 555 0
DWIDTH 11 0
BBX 10 16 1 0
BITMAP
1C00
1C00
1C00
1C00
0000
FF80
FF80
FF80
0F00
1E00
1C00
3C00
7800
FFC0
FFC0
FFC0
ENDCHAR
STARTCHAR Zcaron
ENCODING 381
SWIDTH 676 0
DWIDTH 14 0
BBX 12 18 1 0
BITMAP
3B80
1F00
0F00
0000
FFF0
FFF0
FFF0
03E0
03C0
0780
0F00
1F00
3E00
7C00
7800
FFF0
FFF0
FFF0
ENDCHAR
STARTCHAR zcaron
ENCODING 382
SWIDTH 555 0
DWIDTH 11 0
BBX 10 15 1 0
BITMAP
7700
3E00
1E00
0000
FF80
FF80
FF80
0F00
1E00
1C00
3C00
7800
FFC0
FFC0
FFC0
ENDCHAR
STARTCHAR uni018F
ENCODING 399
SWIDTH 791 0
DWIDTH 16 0
BBX 14 14 1 0
BITMAP
0FC0
3FF0
7FF8
1878
103C
003C
FFFC
FFFC
FFFC
F03C
7878
7FF8
3FF0
0FC0
ENDCHAR
STARTCHAR florin
ENCODING 402
SWIDTH 413 0
DWIDTH 8 0
BBX 12 19 -2 -4
BITMAP
03F0
07E0
07E0
0F00
0F00
1FC0
1FC0
3FC0
0E00
0E00
0E00
1E00
1E00
1E00
1E00
1C00
FC00
FC00
F000
ENDCHAR
STARTCHAR Ohorn
ENCODING 416
SWIDTH 833 0
DWIDTH 17 0
BBX 16 17 0 0
BITMAP
0001
0007
0007
07E7
1FFE
3FFC
7C3E
781E
700E
F00F
F00F
700E
781E
7C3E
3FFC
1FF8
07E0
ENDCHAR
STARTCHAR ohorn
ENCODING 417
SWIDTH 679 0
DWIDTH 14 0
BBX 14 14 0 0
BITMAP
000C
001C
001C
0F9C
3FF8
7FE0
78F0
7070
F070
7070
78F0
7FE0
3FE0
0F80
ENDCHAR
STARTCHAR Uhorn
ENCODING 431
SWIDTH 797 0
DWIDTH 16 0
BBX 15 17 1 0
BITMAP
0002
000E
0006
F07E
F07C
F078
F078
F078
F078
F078
F078
F078
F078
78F0
7FF0
3FE0
0F80
ENDCHAR
STARTCHAR uhorn
ENCODING 432
SWIDTH 687 0
DWIDTH 14 0
BBX 13 14 1 0
BITMAP
0018
0038
0018
F1F8
F1F0
F1E0
F1E0
F1E0
F1E0
F1E0
F1E0
FFE0
7FE0
3DE0
ENDCHAR
STARTCHAR uni01C4
ENCODING 452
SWIDTH 1442 0
DWIDTH 29 0
BBX 27 18 1 0
BITMAP
00007380
00003F00
00001E00
00000000
FF81FFE0
FFE1FFE0
FFF1FFE0
F0F803C0
F0780780
F03C0F00
F03C1F00
F03C3E00
F03C3C00
F0787800
F078F000
FFF1FFE0
FFE1FFE0
FF81FFE0
ENDCHAR
STARTCHAR uni01C5
ENCODING 453
SWIDTH 1321 0
DWIDTH 26 0
BBX 25 15 1 0
BITMAP
0000E700
FF807E00
FFE03C00
FFF00000
F0F9FF80
F079FF80
F03DFF00
F03C0F00
F03C1E00
F03C3C00
F0787800
F078F000
FFF1FF80
FFE1FF80
FF81FF80
ENDCHAR
STARTCHAR uni01C6
ENCODING 454
SWIDTH 1241 0
DWIDTH 25 0
BBX 24 15 0 0
BITMAP
0070CE
00707C
007078
007000
1F71FF
3FF1FF
7FF1FF
78F01E
70703C
F07078
7070F0
78F0E0
7FF1FF
3FF3FF
1F73FF
ENDCHAR
STARTCHAR uni01C7
ENCODING 455
SWIDTH 1102 0
DWIDTH 22 0
BBX 20 14 1 0
BITMAP
F01FF0
F01FF0
F01FF0
F000F0
F000F0
F000F0
F000F0
F000F0
F000F0
F000F0
F018F0
FFFFF0
FFDFE0
FFCFC0
ENDCHAR
STARTCHAR uni01C8
ENCODING 456
SWIDTH 875 0
DWIDTH 18 0
BBX 15 20 1 -4
BITMAP
000E
000E
F01E
F00E
F000
F00E
F00E
F00E
F00E
F00E
F00E
F00E
F00E
FFCE
FFCE
FFCE
000E
003E
007E
007C
ENDCHAR
STARTCHAR uni01C9
ENCODING 457
SWIDTH 636 0
DWIDTH 13 0
BBX 10 20 1 -4
BITMAP
01C0
F1C0
F1C0
F1C0
F000
F1C0
F1C0
F1C0
F1C0
F1C0
F1C0
F1C0
F1C0
F1C0
F1C0
F1C0
01C0
07C0
07C0
0F80
ENDCHAR
STARTCHAR uni01CA
ENCODING 458
SWIDTH 1325 0
DWIDTH 27 0
BBX 24 14 1 0
BITMAP
F038FF
F838FF
F838FF
FC3807
FE3807
FF3807
FF3807
F7B807
F3F807
F1F807
F1F88F
F0F9FF
F079FE
F0387C
ENDCHAR
STARTCHAR uni01CB
ENCODING 459
SWIDTH 1098 0
DWIDTH 22 0
BBX 20 20 1 -4
BITMAP
000060
0000F0
F038F0
F83860
F83800
FC38F0
FE38F0
FF38F0
FF38F0
F7B8F0
F3F8F0
F1F8F0
F1F8F0
F0F8F0
F078F0
F038F0
0000F0
0003F0
0003E0
0007C0
ENDCHAR
STARTCHAR uni01CC
ENCODING 460
SWIDTH 986 0
DWIDTH 20 0
BBX 17 20 1 -4
BITMAP
000380
000380
000380
000380
000000
F7C380
FFE380
FFE380
F9E380
F0E380
F0E380
F0E380
F0E380
F0E380
F0E380
F0E380
000380
000F80
000F80
001F00
ENDCHAR
STARTCHAR Gcaron
ENCODING 486
SWIDTH 743 0
DWIDTH 15 0
BBX 14 18 0 0
BITMAP
0E70
07C0
03C0
0000
07F0
1FFC
3FF8
7C30
7800
7000
F0FC
F0FC
70FC
781C
7C1C
3FFC
1FFC
0FF0
ENDCHAR
STARTCHAR gcaron
ENCODING 487
SWIDTH 648 0
DWIDTH 13 0
BBX 12 19 0 -4
BITMAP
39C0
1F80
0F00
0000
1EF0
3FF0
7FF0
70F0
70F0
F0F0
70F0
79F0
7FF0
3FF0
1EF0
20F0
3FE0
7FC0
1F80
ENDCHAR
STARTCHAR uni01EA
ENCODING 490
SWIDTH 804 0
DWIDTH 16 0
BBX 16 18 0 -4
BITMAP
07E0
1FF8
3FFC
7C3E
781E
700E
F00F
F00F
700E
781E
7C3E
3FFC
1FF8
07F0
0060
00E0
00F0
0070
ENDCHAR
STARTCHAR uni01EB
ENCODING 491
SWIDTH 638 0
DWIDTH 13 0
BBX 12 15 0 -4
BITMAP
0F80
3FE0
7FF0
78F0
7070
F070
7070
78F0
7FE0
3FC0
0F80
0180
0380
03C0
01C0
ENDCHAR
STARTCHAR Aringacute
ENCODING 506
SWIDTH 773 0
DWIDTH 15 0
BBX 16 23 0 0
BITMAP
00C0
01E0
0380
0380
02C0
0640
03C0
0380
0000
03C0
07C0
07E0
0FE0
0EF0
0EF0
1E70
1C78
3C78
3FFC
7FFC
7FFE
701E
F01F
ENDCHAR
STARTCHAR aringacute
ENCODING 507
SWIDTH 601 0
DWIDTH 12 0
BBX 10 20 1 0
BITMAP
0600
0F00
1C00
0C00
1200
1200
1E00
0C00
0000
3F00
FF80
7FC0
03C0
7FC0
FFC0
E3C0
E3C0
FFC0
FFC0
7BC0
ENDCHAR
STARTCHAR AEacute
ENCODING 508
SWIDTH 1106 0
DWIDTH 22 0
BBX 21 19 0 0
BITMAP
000100
0003C0
000780
000700
000000
00FFF8
01FFF8
03FFF8
03BC00
07BC00
073FF0
0F3FF0
0E3FF0
1FFC00
3FFC00
3FFC00
783FF8
703FF8
F03FF8
ENDCHAR
STARTCHAR aeacute
ENCODING 509
SWIDTH 965 0
DWIDTH 19 0
BBX 18 15 1 0
BITMAP
007000
00E000
01C000
000000
3F3E00
FFFF00
7FFF80
03C3C0
7FFFC0
FFFFC0
E1C000
E3E100
FFFF80
FE7F00
7C3E00
ENDCHAR
STARTCHAR Oslashacute
ENCODING 510
SWIDTH 804 0
DWIDTH 16 0
BBX 16 20 0 -1
BITMAP
0080
00F0
01E0
038C
001C
07F8
1FF8
3FFC
7C7E
78FE
70CE
F18F
F18F
730E
7F1E
7E3E
3FFC
1FF8
1FE0
3000
ENDCHAR
STARTCHAR oslashacute
ENCODING 511
SWIDTH 638 0
DWIDTH 13 0
BBX 12 16 0 -1
BITMAP
03C0
0380
0730
0020
0FE0
3FC0
7FE0
79F0
7370
F270
7470
7CF0
7FF0
3FE0
3F80
6000
ENDCHAR
STARTCHAR uni0200
ENCODING 512
SWIDTH 773 0
DWIDTH 15 0
BBX 16 19 0 0
BITMAP
0440
1DC0
0EE0
06E0
0000
03C0
07C0
07E0
0FE0
0EF0
0EF0
1E70
1C78
3C78
3FFC
7FFC
7FFE
701E
F01F
ENDCHAR
STARTCHAR uni0201
ENCODING 513
SWIDTH 601 0
DWIDTH 12 0
BBX 10 16 1 0
BITMAP
2200
EE00
7700
3B80
0000
3F00
FF80
7FC0
03C0
7FC0
FFC0
E3C0
E3C0
FFC0
FFC0
7BC0
ENDCHAR
STARTCHAR uni0202
ENCODING 514
SWIDTH 773 0
DWIDTH 15 0
BBX 16 18 0 0
BITMAP
03C0
07E0
0E60
0000
03C0
07C0
07E0
0FE0
0EF0
0EF0
1E70
1C78
3C78
3FFC
7FFC
7FFE
701E
F01F
ENDCHAR
STARTCHAR uni0203
ENCODING 515
SWIDTH 601 0
DWIDTH 12 0
BBX 10 15 1 0
BITMAP
1E00
3F00
3300
0000
3F00
FF80
7FC0
03C0
7FC0
FFC0
E3C0
E3C0
FFC0
FFC0
7BC0
ENDCHAR
STARTCHAR uni0204
ENCODING 516
SWIDTH 675 0
DWIDTH 14 0
BBX 12 19 1 0
BITMAP
1100
7700
3B80
1DC0
0000
FFE0
FFE0
FFE0
F000
F000
FFE0
FFE0
FFE0
F000
F000
F000
FFF0
FFF0
FFF0
ENDCHAR
STARTCHAR uni0205
ENCODING 517
SWIDTH 603 0
DWIDTH 12 0
BBX 12 16 0 0
BITMAP
1100
7F00
3B80
1DC0
0000
0F80
3FC0
7FE0
70E0
7FF0
FFF0
7000
78C0
7FE0
3FC0
0F80
ENDCHAR
STARTCHAR uni0206
ENCODING 518
SWIDTH 675 0
DWIDTH 14 0
BBX 12 18 1 0
BITMAP
0F00
1F80
1980
0000
FFE0
FFE0
FFE0
F000
F000
FFE0
FFE0
FFE0
F000
F000
F000
FFF0
FFF0
FFF0
ENDCHAR
STARTCHAR uni0207
ENCODING 519
SWIDTH 603 0
DWIDTH 12 0
BBX 12 15 0 0
BITMAP
0F00
1F80
1980
0000
0F80
3FC0
7FE0
70E0
7FF0
FFF0
7000
78C0
7FE0
3FC0
0F80
ENDCHAR
STARTCHAR uni0208
ENCODING 520
SWIDTH 319 0
DWIDTH 6 0
BBX 9 19 -2 0
BITMAP
1100
FF00
7700
3B80
0000
1E00
1E00
1E00
1E00
1E00
1E00
1E00
1E00
1E00
1E00
1E00
1E00
1E00
1E00
ENDCHAR
STARTCHAR uni0209
ENCODING 521
SWIDTH 313 0
DWIDTH 6 0
BBX 9 16 -2 0
BITMAP
1100
FF00
7700
3B80
0000
1E00
1E00
1E00
1E00
1E00
1E00
1E00
1E00
1E00
1E00
1E00
ENDCHAR
STARTCHAR uni020A
ENCODING 522
SWIDTH 319 0
DWIDTH 6 0
BBX 7 18 0 0
BITMAP
78
FC
CC
02
78
78
78
78
78
78
78
78
78
78
78
78
78
78
ENDCHAR
STARTCHAR uni020B
ENCODING 523
SWIDTH 313 0
DWIDTH 6 0
BBX 6 15 0 0
BITMAP
78
FC
CC
00
78
78
78
78
78
78
78
78
78
78
78
ENDCHAR
STARTCHAR uni020C
ENCODING 524
SWIDTH 804 0
DWIDTH 16 0
BBX 16 19 0 0
BITMAP
0440
1FC0
0EE0
0770
0000
07E0
1FF8
3FFC
7C3E
781E
700E
F00F
F00F
700E
781E
7C3E
3FFC
1FF8
07E0
ENDCHAR
STARTCHAR uni020D
ENCODING 525
SWIDTH 638 0
DWIDTH 13 0
BBX 12 16 0 0
BITMAP
0880
3B80
3B80
1DC0
0000
0F80
3FE0
7FE0
78F0
7070
F070
7070
78F0
7FE0
3FE0
0F80
ENDCHAR
STARTCHAR uni020E
ENCODING 526
SWIDTH 804 0
DWIDTH 16 0
BBX 16 18 0 0
BITMAP
03C0
07E0
0660
0000
07E0
1FF8
3FFC
7C3E
781E
700E
F00F
F00F
700E
781E
7C3E
3FFC
1FF8
07E0
ENDCHAR
STARTCHAR uni020F
ENCODING 527
SWIDTH 638 0
DWIDTH 13 0
BBX 12 15 0 0
BITMAP
0F00
1F80
19C0
0000
0F80
3FE0
7FE0
78F0
7070
F070
7070
78F0
7FE0
3FE0
0F80
ENDCHAR
STARTCHAR uni0210
ENCODING 528
SWIDTH 724 0
DWIDTH 14 0
BBX 13 19 1 0
BITMAP
0900
7F80
3B80
1DC0
0000
FFC0
FFE0
FFF0
F070
F078
F070
F0F0
FFF0
FFE0
FFC0
F1E0
F0E0
F0F0
F078
ENDCHAR
STARTCHAR uni0211
ENCODING 529
SWIDTH 430 0
DWIDTH 9 0
BBX 8 16 0 0
BITMAP
22
EE
77
33
00
7B
7F
7F
7C
78
78
78
78
78
78
78
ENDCHAR
STARTCHAR uni0212
ENCODING 530
SWIDTH 724 0
DWIDTH 14 0
BBX 13 18 1 0
BITMAP
0F00
1F80
1980
0000
FFC0
FFE0
FFF0
F070
F078
F070
F0F0
FFF0
FFE0
FFC0
F1E0
F0E0
F0F0
F078
ENDCHAR
STARTCHAR uni0213
ENCODING 531
SWIDTH 430 0
DWIDTH 9 0
BBX 7 15 1 0
BITMAP
3C
7E
66
00
F6
FE
FE
F8
F0
F0
F0
F0
F0
F0
F0
ENDCHAR
STARTCHAR uni0214
ENCODING 532
SWIDTH 749 0
DWIDTH 15 0
BBX 13 19 1 0
BITMAP
0880
3B80
1B80
1DC0
0000
F078
F078
F078
F078
F078
F078
F078
F078
F078
F078
78F0
7FF0
3FE0
0F80
ENDCHAR
STARTCHAR uni0215
ENCODING 533
SWIDTH 664 0
DWIDTH 13 0
BBX 11 16 1 0
BITMAP
1100
7700
3B80
3B80
0000
F1E0
F1E0
F1E0
F1E0
F1E0
F1E0
F1E0
F1E0
FFE0
7FE0
3DE0
ENDCHAR
STARTCHAR uni0216
ENCODING 534
SWIDTH 749 0
DWIDTH 15 0
BBX 13 18 1 0
BITMAP
0F00
0F80
1DC0
0000
F078
F078
F078
F078
F078
F078
F078
F078
F078
F078
78F0
7FF0
3FE0
0F80
ENDCHAR
STARTCHAR uni0217
ENCODING 535
SWIDTH 664 0
DWIDTH 13 0
BBX 11 15 1 0
BITMAP
0F00
1F80
3980
0000
F1E0
F1E0
F1E0
F1E0
F1E0
F1E0
F1E0
F1E0
FFE0
7FE0
3DE0
ENDCHAR
STARTCHAR Scommaaccent
ENCODING 536
SWIDTH 646 0
DWIDTH 13 0
BBX 12 19 0 -5
BITMAP
0FC0
3FF0
3FF0
7860
7800
7F00
3FC0
1FF0
01F0
40F0
70F0
FFF0
7FE0
0FC0
0000
0700
0700
0600
0600
ENDCHAR
STARTCHAR scommaaccent
ENCODING 537
SWIDTH 517 0
DWIDTH 10 0
BBX 10 16 0 -5
BITMAP
1F00
7FC0
7F80
7080
7C00
3F80
07C0
43C0
7FC0
FF80
3F00
0000
0E00
1C00
1C00
1800
ENDCHAR
STARTCHAR uni021A
ENCODING 538
SWIDTH 614 0
DWIDTH 12 0
BBX 12 19 0 -5
BITMAP
FFF0
FFF0
FFF0
0F00
0F00
0F00
0F00
0F00
0F00
0F00
0F00
0F00
0F00
0F00
0000
0700
0E00
0E00
0C00
ENDCHAR
STARTCHAR uni021B
ENCODING 539
SWIDTH 437 0
DWIDTH 9 0
BBX 8 19 0 -5
BITMAP
38
38
38
FF
FF
FF
38
38
38
38
38
3F
3F
1F
00
0E
0C
0C
1C
ENDCHAR
STARTCHAR uni022A
ENCODING 554
SWIDTH 804 0
DWIDTH 16 0
BBX 16 21 0 0
BITMAP
07E0
07E0
0000
0660
07E0
0660
0000
07E0
1FF8
3FFC
7C3E
781E
700E
F00F
F00F
700E
781E
7C3E
3FFC
1FF8
07E0
ENDCHAR
STARTCHAR uni022B
ENCODING 555
SWIDTH 638 0
DWIDTH 13 0
BBX 12 18 0 0
BITMAP
1F80
1F80
0000
1980
1DC0
1DC0
0000
0F80
3FE0
7FE0
78F0
7070
F070
7070
78F0
7FE0
3FE0
0F80
ENDCHAR
STARTCHAR uni022C
ENCODING 556
SWIDTH 804 0
DWIDTH 16 0
BBX 16 21 0 0
BITMAP
07E0
07E0
0000
0000
07F0
07E0
0CE0
07E0
1FF8
3FFC
7C3E
781E
700E
F00F
F00F
700E
781E
7C3E
3FFC
1FF8
07E0
ENDCHAR
STARTCHAR uni022D
ENCODING 557
SWIDTH 638 0
DWIDTH 13 0
BBX 12 17 0 0
BITMAP
1F80
1F80
0000
1FC0
1FC0
1980
0F80
3FE0
7FE0
78F0
7070
F070
7070
78F0
7FE0
3FE0
0F80
ENDCHAR
STARTCHAR uni0230
ENCODING 560
SWIDTH 804 0
DWIDTH 16 0
BBX 16 21 0 0
BITMAP
03F0
03F0
0000
00C0
00E0
00E0
0000
07E0
1FF8
3FFC
7C3E
781E
700E
F00F
F00F
700E
781E
7C3E
3FFC
1FF8
07E0
ENDCHAR
STARTCHAR uni0231
ENCODING 561
SWIDTH 638 0
DWIDTH 13 0
BBX 12 18 0 0
BITMAP
1F80
1F80
0000
0600
0700
0700
0000
0F80
3FE0
7FE0
78F0
7070
F070
7070
78F0
7FE0
3FE0
0F80
ENDCHAR
STARTCHAR uni0232
ENCODING 562
SWIDTH 684 0
DWIDTH 14 0
BBX 14 17 0 0
BITMAP
1FC0
1FC0
0000
F03C
7078
7870
38F0
3CE0
1FE0
1FC0
0FC0
0F80
0780
0780
0780
0780
0780
ENDCHAR
STARTCHAR uni0233
ENCODING 563
SWIDTH 584 0
DWIDTH 12 0
BBX 12 19 0 -4
BITMAP
1F80
1F80
0000
0000
F0F0
F0E0
70E0
79C0
39C0
39C0
3F80
1F80
1F80
0F00
0F00
0E00
7E00
FC00
7800
ENDCHAR
STARTCHAR uni0237
ENCODING 567
SWIDTH 312 0
DWIDTH 6 0
BBX 6 15 -1 -4
BITMAP
3C
3C
3C
3C
3C
3C
3C
3C
3C
3C
3C
3C
FC
F8
F0
ENDCHAR
STARTCHAR uni0259
ENCODING 601
SWIDTH 603 0
DWIDTH 12 0
BBX 12 11 0 0
BITMAP
1F80
3FC0
7FE0
10E0
FFF0
FFF0
70F0
71E0
7FE0
3FC0
1F80
ENDCHAR
STARTCHAR uni02BB
ENCODING 699
SWIDTH 237 0
DWIDTH 5 0
BBX 3 4 1 10
BITMAP
60
E0
E0
E0
ENDCHAR
STARTCHAR uni02BC
ENCODING 700
SWIDTH 209 0
DWIDTH 4 0
BBX 2 5 1 9
BITMAP
C0
C0
C0
C0
C0
ENDCHAR
STARTCHAR uni02BE
ENCODING 702
SWIDTH 226 0
DWIDTH 5 0
BBX 3 5 1 12
BITMAP
C0
40
60
40
C0
ENDCHAR
STARTCHAR uni02BF
ENCODING 703
SWIDTH 225 0
DWIDTH 5 0
BBX 2 5 1 12
BITMAP
40
C0
80
C0
40
ENDCHAR
STARTCHAR circumflex
ENCODING 710
SWIDTH 407 0
DWIDTH 8 0
BBX 8 3 0 12
BITMAP
3C
7E
E7
ENDCHAR
STARTCHAR caron
ENCODING 711
SWIDTH 441 0
DWIDTH 9 0
BBX 8 3 0 12
BITMAP
E7
7E
3C
ENDCHAR
STARTCHAR uni02C8
ENCODING 712
SWIDTH 158 0
DWIDTH 3 0
BBX 3 4 0 10
BITMAP
E0
E0
E0
E0
ENDCHAR
STARTCHAR uni02C9
ENCODING 713
SWIDTH 344 0
DWIDTH 7 0
BBX 7 2 0 13
BITMAP
FE
FE
ENDCHAR
STARTCHAR uni02CA
ENCODING 714
SWIDTH 350 0
DWIDTH 7 0
BBX 5 3 1 12
BITMAP
38
70
E0
ENDCHAR
STARTCHAR uni02CB
ENCODING 715
SWIDTH 350 0
DWIDTH 7 0
BBX 5 3 1 12
BITMAP
F0
70
38
ENDCHAR
STARTCHAR uni02CC
ENCODING 716
SWIDTH 160 0
DWIDTH 3 0
BBX 3 4 0 -4
BITMAP
E0
E0
E0
E0
ENDCHAR
STARTCHAR breve
ENCODING 728
SWIDTH 372 0
DWIDTH 7 0
BBX 7 3 0 12
BITMAP
E6
7E
3C
ENDCHAR
STARTCHAR dotaccent
ENCODING 729
SWIDTH 350 0
DWIDTH 7 0
BBX 3 4 2 12
BITMAP
E0
E0
E0
E0
ENDCHAR
STARTCHAR ring
ENCODING 730
SWIDTH 443 0
DWIDTH 9 0
BBX 5 5 1 12
BITMAP
70
D0
98
F0
70
ENDCHAR
STARTCHAR ogonek
ENCODING 731
SWIDTH 301 0
DWIDTH 6 0
BBX 4 5 0 -5
BITMAP
70
60
E0
F0
70
ENDCHAR
STARTCHAR tilde
ENCODING 732
SWIDTH 399 0
DWIDTH 8 0
BBX 8 3 0 12
BITMAP
73
7E
CE
ENDCHAR
STARTCHAR hungarumlaut
ENCODING 733
SWIDTH 529 0
DWIDTH 11 0
BBX 8 4 1 12
BITMAP
44
77
77
EE
ENDCHAR
STARTCHAR gravecomb
ENCODING 768
SWIDTH 0 0
DWIDTH 0 0
BBX 5 3 -6 12
BITMAP
E0
70
38
ENDCHAR
STARTCHAR acutecomb
ENCODING 769
SWIDTH 0 0
DWIDTH 0 0
BBX 6 3 -6 12
BITMAP
3C
78
E0
ENDCHAR
STARTCHAR uni0302
ENCODING 770
SWIDTH 0 0
DWIDTH 0 0
BBX 8 3 -8 12
BITMAP
3C
7E
E7
ENDCHAR
STARTCHAR tildecomb
ENCODING 771
SWIDTH 0 0
DWIDTH 0 0
BBX 8 3 -8 12
BITMAP
73
7E
CE
ENDCHAR
STARTCHAR uni0304
ENCODING 772
SWIDTH 0 0
DWIDTH 0 0
BBX 6 2 -6 13
BITMAP
FC
FC
ENDCHAR
STARTCHAR uni0306
ENCODING 774
SWIDTH 0 0
DWIDTH 0 0
BBX 7 3 -7 12
BITMAP
CE
FC
78
ENDCHAR
STARTCHAR uni0307
ENCODING 775
SWIDTH 0 0
DWIDTH 0 0
BBX 4 4 -5 12
BITMAP
70
70
F0
70
ENDCHAR
STARTCHAR uni0308
ENCODING 776
SWIDTH 0 0
DWIDTH 0 0
BBX 7 3 -8 12
BITMAP
EC
EE
EC
ENDCHAR
STARTCHAR hookabovecomb
ENCODING 777
SWIDTH 0 0
DWIDTH 0 0
BBX 4 5 -5 11
BITMAP
F0
F0
30
70
20
ENDCHAR
STARTCHAR uni030A
ENCODING 778
SWIDTH 0 0
DWIDTH 0 0
BBX 5 5 -6 12
BITMAP
70
58
C8
F8
70
ENDCHAR
STARTCHAR uni030B
ENCODING 779
SWIDTH 0 0
DWIDTH 0 0
BBX 8 4 -9 12
BITMAP
44
77
77
EE
ENDCHAR
STARTCHAR uni030C
ENCODING 780
SWIDTH 0 0
DWIDTH 0 0
BBX 7 3 -8 12
BITMAP
EE
7C
3C
ENDCHAR
STARTCHAR uni030F
ENCODING 783
SWIDTH 0 0
DWIDTH 0 0
BBX 8 4 -9 12
BITMAP
22
EE
EE
77
ENDCHAR
STARTCHAR uni0311
ENCODING 785
SWIDTH 0 0
DWIDTH 0 0
BBX 7 3 -7 12
BITMAP
78
FC
CE
ENDCHAR
STARTCHAR uni0312
ENCODING 786
SWIDTH 0 0
DWIDTH 0 0
BBX 3 4 -4 12
BITMAP
60
60
E0
E0
ENDCHAR
STARTCHAR uni031B
ENCODING 795
SWIDTH 0 0
DWIDTH 0 0
BBX 4 5 -5 9
BITMAP
10
70
70
F0
E0
ENDCHAR
STARTCHAR dotbelowcomb
ENCODING 803
SWIDTH 0 0
DWIDTH 0 0
BBX 4 4 -5 -5
BITMAP
70
70
F0
70
ENDCHAR
STARTCHAR uni0324
ENCODING 804
SWIDTH 0 0
DWIDTH 0 0
BBX 7 3 -8 -4
BITMAP
6E
EE
6E
ENDCHAR
STARTCHAR uni0326
ENCODING 806
SWIDTH 0 0
DWIDTH 0 0
BBX 3 4 -4 -5
BITMAP
E0
E0
C0
C0
ENDCHAR
STARTCHAR uni0327
ENCODING 807
SWIDTH 0 0
DWIDTH 0 0
BBX 4 5 -5 -5
BITMAP
60
F0
30
F0
F0
ENDCHAR
STARTCHAR uni0328
ENCODING 808
SWIDTH 0 0
DWIDTH 0 0
BBX 4 5 -5 -5
BITMAP
70
E0
E0
F0
70
ENDCHAR
STARTCHAR uni032E
ENCODING 814
SWIDTH 0 0
DWIDTH 0 0
BBX 7 3 -7 -4
BITMAP
CE
FC
78
ENDCHAR
STARTCHAR uni0331
ENCODING 817
SWIDTH 0 0
DWIDTH 0 0
BBX 6 2 -7 -4
BITMAP
FC
FC
ENDCHAR
STARTCHAR uni0335
ENCODING 821
SWIDTH 0 0
DWIDTH 0 0
BBX 8 2 -8 8
BITMAP
FF
FF
ENDCHAR
STARTCHAR uni0336
ENCODING 822
SWIDTH 0 0
DWIDTH 0 0
BBX 8 2 -10 8
BITMAP
FF
FF
ENDCHAR
STARTCHAR uni0337
ENCODING 823
SWIDTH 0 0
DWIDTH 0 0
BBX 6 10 -6 2
BITMAP
1C
1C
38
38
70
70
70
E0
E0
E0
ENDCHAR
STARTCHAR uni0338
ENCODING 824
SWIDTH 0 0
DWIDTH 0 0
BBX 8 15 -7 0
BITMAP
07
07
0E
0E
0E
1C
1C
1C
38
38
70
70
70
E0
E0
ENDCHAR
STARTCHAR uni0394
ENCODING 916
SWIDTH 773 0
DWIDTH 15 0
BBX 16 14 0 0
BITMAP
03C0
07C0
07E0
0FE0
0EF0
0EF0
1E70
1C78
3C38
383C
783C
7FFE
7FFE
FFFF
ENDCHAR
STARTCHAR uni03A9
ENCODING 937
SWIDTH 854 0
DWIDTH 17 0
BBX 17 14 0 0
BITMAP
07F000
1FFC00
1FFE00
3C1E00
380F00
780F00
780700
380F00
380E00
3C1E00
1E3C00
FE3F80
FE3F80
FE3F80
ENDCHAR
STARTCHAR uni03BC
ENCODING 956
SWIDTH 685 0
DWIDTH 14 0
BBX 11 15 1 -4
BITMAP
F0E0
F0E0
F0E0
F0E0
F0E0
F0E0
F0E0
F9E0
FFE0
FFE0
FEE0
F000
F000
F000
F000
ENDCHAR
STARTCHAR pi
ENCODING 960
SWIDTH 730 0
DWIDTH 15 0
BBX 14 11 0 0
BITMAP
7FFC
FFFC
FFFC
CE70
EE70
CE70
0E70
0E70
0E70
0E70
1C70
ENDCHAR
STARTCHAR uni1E08
ENCODING 7688
SWIDTH 692 0
DWIDTH 14 0
BBX 14 23 0 -5
BITMAP
01E0
03C0
0780
0000
07E0
1FF8
3FFC
7C38
7810
7000
F000
F000
7000
7810
7C30
3FFC
1FF8
0FE0
0380
0380
01C0
07C0
0780
ENDCHAR
STARTCHAR uni1E09
ENCODING 7689
SWIDTH 562 0
DWIDTH 11 0
BBX 11 21 0 -5
BITMAP
0200
0780
0700
0E00
0000
0F80
3FC0
7FE0
7880
7000
F000
7000
7880
7FE0
3FC0
1F80
0600
0E00
0300
0F00
1E00
ENDCHAR
STARTCHAR uni1E0C
ENCODING 7692
SWIDTH 766 0
DWIDTH 15 0
BBX 14 19 1 -5
BITMAP
FF80
FFE0
FFF0
F0F8
F078
F03C
F03C
F03C
F03C
F078
F078
FFF0
FFE0
FF80
0000
0700
0F00
0F00
0700
ENDCHAR
STARTCHAR uni1E0D
ENCODING 7693
SWIDTH 687 0
DWIDTH 14 0
BBX 12 20 0 -5
BITMAP
0070
0070
0070
0070
1F70
3FF0
7FF0
78F0
7070
F070
7070
78F0
7FF0
3FF0
1F70
0000
0300
0780
0780
0300
ENDCHAR
STARTCHAR uni1E0E
ENCODING 7694
SWIDTH 766 0
DWIDTH 15 0
BBX 14 18 1 -4
BITMAP
FF80
FFE0
FFF0
F0F8
F078
F03C
F03C
F03C
F03C
F078
F078
FFF0
FFE0
FF80
0000
0000
1F80
1F80
ENDCHAR
STARTCHAR uni1E0F
ENCODING 7695
SWIDTH 687 0
DWIDTH 14 0
BBX 12 19 0 -4
BITMAP
0070
0070
0070
0070
1F70
3FF0
7FF0
78F0
7070
F070
7070
78F0
7FF0
3FF0
1F70
0000
0000
0FC0
0FC0
ENDCHAR
STARTCHAR uni1E14
ENCODING 7700
SWIDTH 675 0
DWIDTH 14 0
BBX 12 21 1 0
BITMAP
0C00
1E00
0700
0000
1F80
1F80
0000
FFE0
FFE0
FFE0
F000
F000
FFE0
FFE0
FFE0
F000
F000
F000
FFF0
FFF0
FFF0
ENDCHAR
STARTCHAR uni1E15
ENCODING 7701
SWIDTH 603 0
DWIDTH 12 0
BBX 12 18 0 0
BITMAP
1800
3C00
0600
0000
1F80
1F80
0000
0F80
3FC0
7FE0
70E0
7FF0
FFF0
7000
78C0
7FE0
3FC0
0F80
ENDCHAR
STARTCHAR uni1E16
ENCODING 7702
SWIDTH 675 0
DWIDTH 14 0
BBX 12 21 1 0
BITMAP
0300
0780
0E00
0000
1F80
1F80
0000
FFE0
FFE0
FFE0
F000
F000
FFE0
FFE0
FFE0
F000
F000
F000
FFF0
FFF0
FFF0
ENDCHAR
STARTCHAR uni1E17
ENCODING 7703
SWIDTH 603 0
DWIDTH 12 0
BBX 12 18 0 0
BITMAP
0300
0780
0E00
0000
1F80
1F80
0000
0F80
3FC0
7FE0
70E0
7FF0
FFF0
7000
78C0
7FE0
3FC0
0F80
ENDCHAR
STARTCHAR uni1E1C
ENCODING 7708
SWIDTH 675 0
DWIDTH 14 0
BBX 12 23 1 -5
BITMAP
3B80
1F00
0E00
0000
FFE0
FFE0
FFE0
F000
F000
FFE0
FFE0
FFE0
F000
F000
F000
FFF0
FFF0
FFF0
0600
0700
0B00
0F00
0E00
ENDCHAR
STARTCHAR uni1E1D
ENCODING 7709
SWIDTH 603 0
DWIDTH 12 0
BBX 12 20 0 -5
BITMAP
1980
1F80
0F00
0000
0F80
3FC0
7FE0
78E0
70E0
FFF0
7FF0
7000
78C0
3FE0
1FC0
0600
0600
0300
0F00
0F00
ENDCHAR
STARTCHAR uni1E20
ENCODING 7712
SWIDTH 743 0
DWIDTH 15 0
BBX 14 17 0 0
BITMAP
07E0
07E0
0000
07F0
1FFC
3FF8
7C30
7800
7000
F0FC
F0FC
70FC
781C
7C1C
3FFC
1FFC
0FF0
ENDCHAR
STARTCHAR uni1E21
ENCODING 7713
SWIDTH 648 0
DWIDTH 13 0
BBX 12 19 0 -4
BITMAP
1F80
1F80
0000
0000
1EF0
3FF0
7FF0
70F0
70F0
F0F0
70F0
79F0
7FF0
3FF0
1EF0
20F0
3FE0
7FC0
1F80
ENDCHAR
STARTCHAR uni1E24
ENCODING 7716
SWIDTH 785 0
DWIDTH 16 0
BBX 13 19 1 -5
BITMAP
F038
F038
F038
F038
F038
F038
FFF8
FFF8
FFF8
F038
F038
F038
F038
F038
0000
0300
0780
0780
0300
ENDCHAR
STARTCHAR uni1E25
ENCODING 7717
SWIDTH 679 0
DWIDTH 14 0
BBX 12 20 1 -5
BITMAP
F000
F000
F000
F000
F7C0
FFE0
FFE0
F8F0
F0F0
F0F0
F0F0
F0F0
F0F0
F0F0
F0F0
0000
0600
0F00
0F00
0600
ENDCHAR
STARTCHAR uni1E2A
ENCODING 7722
SWIDTH 785 0
DWIDTH 16 0
BBX 13 18 1 -4
BITMAP
F038
F038
F038
F038
F038
F038
FFF8
FFF8
FFF8
F038
F038
F038
F038
F038
0000
0CC0
0FC0
0780
ENDCHAR
STARTCHAR uni1E2B
ENCODING 7723
SWIDTH 679 0
DWIDTH 14 0
BBX 12 19 1 -4
BITMAP
F000
F000
F000
F000
F7C0
FFE0
FFE0
F8F0
F0F0
F0F0
F0F0
F0F0
F0F0
F0F0
F0F0
0000
1980
1F80
0F00
ENDCHAR
STARTCHAR uni1E2E
ENCODING 7726
SWIDTH 319 0
DWIDTH 6 0
BBX 7 22 0 0
BITMAP
18
3C
70
00
CC
EE
CC
00
78
78
78
78
78
78
78
78
78
78
78
78
78
78
ENDCHAR
STARTCHAR uni1E2F
ENCODING 7727
SWIDTH 313 0
DWIDTH 6 0
BBX 7 19 0 0
BITMAP
18
3C
70
00
CC
EE
CC
00
78
78
78
78
78
78
78
78
78
78
78
ENDCHAR
STARTCHAR uni1E36
ENCODING 7734
SWIDTH 563 0
DWIDTH 11 0
BBX 10 19 1 -5
BITMAP
F000
F000
F000
F000
F000
F000
F000
F000
F000
F000
F000
FFC0
FFC0
FFC0
0000
0C00
1E00
1E00
0C00
ENDCHAR
STARTCHAR uni1E37
ENCODING 7735
SWIDTH 324 0
DWIDTH 6 0
BBX 4 20 1 -5
BITMAP
F0
F0
F0
F0
F0
F0
F0
F0
F0
F0
F0
F0
F0
F0
F0
00
70
F0
F0
60
ENDCHAR
STARTCHAR uni1E3A
ENCODING 7738
SWIDTH 563 0
DWIDTH 11 0
BBX 10 18 1 -4
BITMAP
F000
F000
F000
F000
F000
F000
F000
F000
F000
F000
F000
FFC0
FFC0
FFC0
0000
0000
3F00
3F00
ENDCHAR
STARTCHAR uni1E3B
ENCODING 7739
SWIDTH 324 0
DWIDTH 6 0
BBX 6 19 0 -4
BITMAP
78
78
78
78
78
78
78
78
78
78
78
78
78
78
78
00
00
FC
FC
ENDCHAR
STARTCHAR uni1E42
ENCODING 7746
SWIDTH 939 0
DWIDTH 19 0
BBX 16 19 1 -5
BITMAP
F80F
F80F
FC1F
FC1F
FE3F
FE3F
FF7F
F777
F7F7
F3E7
F3E7
F1C7
F1C7
F007
0000
01C0
01C0
03C0
01C0
ENDCHAR
STARTCHAR uni1E43
ENCODING 7747
SWIDTH 1037 0
DWIDTH 21 0
BBX 19 16 1 -5
BITMAP
F7C780
FFFFC0
FFFFC0
F9F1E0
F0E1E0
F0E1E0
F0E1E0
F0E1E0
F0E1E0
F0E1E0
F0E1E0
000000
00E000
00E000
00E000
00E000
ENDCHAR
STARTCHAR uni1E44
ENCODING 7748
SWIDTH 786 0
DWIDTH 16 0
BBX 13 19 1 0
BITMAP
0300
0780
0780
0300
0000
F038
F838
F838
FC38
FE38
FF38
FF38
F7B8
F3F8
F1F8
F1F8
F0F8
F078
F038
ENDCHAR
STARTCHAR uni1E45
ENCODING 7749
SWIDTH 674 0
DWIDTH 13 0
BBX 11 16 1 0
BITMAP
0600
0F00
0F00
0600
0000
F7C0
FFE0
FFE0
F9E0
F0E0
F0E0
F0E0
F0E0
F0E0
F0E0
F0E0
ENDCHAR
STARTCHAR uni1E46
ENCODING 7750
SWIDTH 786 0
DWIDTH 16 0
BBX 13 19 1 -5
BITMAP
F038
F838
F838
FC38
FE38
FF38
FF38
F7B8
F3F8
F1F8
F1F8
F0F8
F078
F038
0000
0300
0780
0780
0300
ENDCHAR
STARTCHAR uni1E47
ENCODING 7751
SWIDTH 674 0
DWIDTH 13 0
BBX 11 16 1 -5
BITMAP
F7C0
FFE0
FFE0
F9E0
F0E0
F0E0
F0E0
F0E0
F0E0
F0E0
F0E0
0000
0600
0F00
0F00
0600
ENDCHAR
STARTCHAR uni1E48
ENCODING 7752
SWIDTH 786 0
DWIDTH 16 0
BBX 13 18 1 -4
BITMAP
F038
F838
F838
FC38
FE38
FF38
FF38
F7B8
F3F8
F1F8
F1F8
F0F8
F078
F038
0000
0000
0FC0
0FC0
ENDCHAR
STARTCHAR uni1E49
ENCODING 7753
SWIDTH 674 0
DWIDTH 13 0
BBX 11 15 1 -4
BITMAP
F7C0
FFE0
FFE0
F9E0
F0E0
F0E0
F0E0
F0E0
F0E0
F0E0
F0E0
0000
0000
1F80
1F80
ENDCHAR
STARTCHAR uni1E4C
ENCODING 7756
SWIDTH 804 0
DWIDTH 16 0
BBX 16 22 0 0
BITMAP
00C0
01E0
0380
0000
0000
07F0
07E0
0CE0
07E0
1FF8
3FFC
7C3E
781E
700E
F00F
F00F
700E
781E
7C3E
3FFC
1FF8
07E0
ENDCHAR
STARTCHAR uni1E4D
ENCODING 7757
SWIDTH 638 0
DWIDTH 13 0
BBX 12 18 0 0
BITMAP
0380
07C0
0E00
0000
1FC0
1FC0
1980
0F80
3FE0
7FE0
78F0
7070
F070
7070
78F0
7FE0
3FE0
0F80
ENDCHAR
STARTCHAR uni1E4E
ENCODING 7758
SWIDTH 804 0
DWIDTH 16 0
BBX 16 22 0 0
BITMAP
0660
0EE0
0660
0000
0000
07E0
0FE0
0CC0
07E0
1FF8
3FFC
7C3E
781E
700E
F00F
F00F
700E
781E
7C3E
3FFC
1FF8
07E0
ENDCHAR
STARTCHAR uni1E4F
ENCODING 7759
SWIDTH 638 0
DWIDTH 13 0
BBX 12 18 0 0
BITMAP
1980
1DC0
1980
0000
1FC0
1F80
3380
0F80
3FE0
7FE0
78F0
7070
F070
7070
78F0
7FE0
3FE0
0F80
ENDCHAR
STARTCHAR uni1E50
ENCODING 7760
SWIDTH 804 0
DWIDTH 16 0
BBX 16 21 0 0
BITMAP
0300
0780
01C0
0000
07E0
07E0
0000
07E0
1FF8
3FFC
7C3E
781E
700E
F00F
F00F
700E
781E
7C3E
3FFC
1FF8
07E0
ENDCHAR
STARTCHAR uni1E51
ENCODING 7761
SWIDTH 638 0
DWIDTH 13 0
BBX 12 18 0 0
BITMAP
0C00
3E00
0700
0000
1F80
1F80
0000
0F80
3FE0
7FE0
78F0
7070
F070
7070
78F0
7FE0
3FE0
0F80
ENDCHAR
STARTCHAR uni1E52
ENCODING 7762
SWIDTH 804 0
DWIDTH 16 0
BBX 16 21 0 0
BITMAP
00C0
01E0
0380
0000
07E0
07E0
0000
07E0
1FF8
3FFC
7C3E
781E
700E
F00F
F00F
700E
781E
7C3E
3FFC
1FF8
07E0
ENDCHAR
STARTCHAR uni1E53
ENCODING 7763
SWIDTH 638 0
DWIDTH 13 0
BBX 12 18 0 0
BITMAP
0300
0780
0E00
0000
1F80
1F80
0000
0F80
3FE0
7FE0
78F0
7070
F070
7070
78F0
7FE0
3FE0
0F80
ENDCHAR
STARTCHAR uni1E5A
ENCODING 7770
SWIDTH 724 0
DWIDTH 14 0
BBX 13 19 1 -5
BITMAP
FFC0
FFE0
FFF0
F070
F078
F070
F0F0
FFF0
FFE0
FFC0
F1E0
F0E0
F0F0
F078
0000
0600
0F00
0F00
0600
ENDCHAR
STARTCHAR uni1E5B
ENCODING 7771
SWIDTH 430 0
DWIDTH 9 0
BBX 7 16 1 -5
BITMAP
F6
FE
FE
F8
F0
F0
F0
F0
F0
F0
F0
00
60
F0
F0
60
ENDCHAR
STARTCHAR uni1E5E
ENCODING 7774
SWIDTH 724 0
DWIDTH 14 0
BBX 13 18 1 -4
BITMAP
FFC0
FFE0
FFF0
F070
F078
F070
F0F0
FFF0
FFE0
FFC0
F1E0
F0E0
F0F0
F078
0000
0000
1F80
1F80
ENDCHAR
STARTCHAR uni1E5F
ENCODING 7775
SWIDTH 430 0
DWIDTH 9 0
BBX 8 15 0 -4
BITMAP
7B
7F
7F
7C
78
78
78
78
78
78
78
00
00
FC
FC
ENDCHAR
STARTCHAR uni1E60
ENCODING 7776
SWIDTH 646 0
DWIDTH 13 0
BBX 12 19 0 0
BITMAP
0300
0780
0780
0300
0000
0FC0
3FF0
3FF0
7860
7800
7F00
3FC0
1FF0
01F0
40F0
70F0
FFF0
7FE0
0FC0
ENDCHAR
STARTCHAR uni1E61
ENCODING 7777
SWIDTH 517 0
DWIDTH 10 0
BBX 10 16 0 0
BITMAP
0E00
1E00
1E00
0E00
0000
1F00
7FC0
7F80
7080
7C00
3F80
07C0
43C0
7FC0
FF80
3F00
ENDCHAR
STARTCHAR uni1E62
ENCODING 7778
SWIDTH 646 0
DWIDTH 13 0
BBX 12 19 0 -5
BITMAP
0FC0
3FF0
3FF0
7860
7800
7F00
3FC0
1FF0
01F0
40F0
70F0
FFF0
7FE0
0FC0
0000
0700
0700
0780
0700
ENDCHAR
STARTCHAR uni1E63
ENCODING 7779
SWIDTH 517 0
DWIDTH 10 0
BBX 10 16 0 -5
BITMAP
1F00
7FC0
7F80
7080
7C00
3F80
07C0
43C0
7FC0
FF80
3F00
0000
0C00
1E00
1E00
0C00
ENDCHAR
STARTCHAR uni1E64
ENCODING 7780
SWIDTH 646 0
DWIDTH 13 0
BBX 12 22 0 0
BITMAP
0300
0700
0300
0000
0300
0780
0E00
0000
0FC0
3FF0
3FF0
7860
7800
7F00
3FC0
1FF0
01F0
40F0
70F0
FFF0
7FE0
0FC0
ENDCHAR
STARTCHAR uni1E65
ENCODING 7781
SWIDTH 517 0
DWIDTH 10 0
BBX 10 19 0 0
BITMAP
0C00
0E00
0E00
0000
0600
0F00
1C00
0000
1F00
7FC0
7F80
7080
7C00
3F80
07C0
43C0
7FC0
FF80
3F00
ENDCHAR
STARTCHAR uni1E66
ENCODING 7782
SWIDTH 646 0
DWIDTH 13 0
BBX 12 21 0 0
BITMAP
0300
0780
0300
0000
1CE0
0FC0
0780
0FC0
3FF0
3FF0
7860
7800
7F00
3FC0
1FF0
01F0
40F0
70F0
FFF0
7FE0
0FC0
ENDCHAR
STARTCHAR uni1E67
ENCODING 7783
SWIDTH 517 0
DWIDTH 10 0
BBX 10 18 0 0
BITMAP
0E00
0E00
0E00
0000
7BC0
1F00
1F00
1F00
7FC0
7F80
7080
7C00
3F80
07C0
43C0
7FC0
FF80
3F00
ENDCHAR
STARTCHAR uni1E68
ENCODING 7784
SWIDTH 646 0
DWIDTH 13 0
BBX 12 24 0 -5
BITMAP
0700
0700
0780
0700
0000
0FC0
3FF0
3FF0
7860
7800
7F00
3FC0
1FF0
01F0
40F0
70F0
FFF0
7FE0
0FC0
0000
0700
0700
0780
0700
ENDCHAR
STARTCHAR uni1E69
ENCODING 7785
SWIDTH 517 0
DWIDTH 10 0
BBX 10 21 0 -5
BITMAP
0C00
1E00
1E00
0C00
0000
1F00
7FC0
7F80
7080
7C00
3F80
07C0
43C0
7FC0
FF80
3F00
0000
0C00
1E00
1E00
0C00
ENDCHAR
STARTCHAR uni1E6C
ENCODING 7788
SWIDTH 614 0
DWIDTH 12 0
BBX 12 19 0 -5
BITMAP
FFF0
FFF0
FFF0
0F00
0F00
0F00
0F00
0F00
0F00
0F00
0F00
0F00
0F00
0F00
0000
0600
0F00
0F00
0600
ENDCHAR
STARTCHAR uni1E6D
ENCODING 7789
SWIDTH 437 0
DWIDTH 9 0
BBX 8 19 0 -5
BITMAP
38
38
38
FF
FF
FF
38
38
38
38
38
3F
3F
1F
00
0E
0E
1E
0E
ENDCHAR
STARTCHAR uni1E6E
ENCODING 7790
SWIDTH 614 0
DWIDTH 12 0
BBX 12 18 0 -4
BITMAP
FFF0
FFF0
FFF0
0F00
0F00
0F00
0F00
0F00
0F00
0F00
0F00
0F00
0F00
0F00
0000
0000
1F80
1F80
ENDCHAR
STARTCHAR uni1E6F
ENCODING 7791
SWIDTH 437 0
DWIDTH 9 0
BBX 8 18 0 -4
BITMAP
38
38
38
FF
FF
FF
38
38
38
38
38
3F
3F
1F
00
00
3F
3F
ENDCHAR
STARTCHAR uni1E78
ENCODING 7800
SWIDTH 749 0
DWIDTH 15 0
BBX 13 22 1 0
BITMAP
0180
07C0
0600
0000
0000
0FC0
1FC0
1980
F078
F078
F078
F078
F078
F078
F078
F078
F078
F078
78F0
7FF0
3FE0
0F80
ENDCHAR
STARTCHAR uni1E79
ENCODING 7801
SWIDTH 664 0
DWIDTH 13 0
BBX 11 18 1 0
BITMAP
0300
0780
0E00
0000
1F80
3F80
3300
F1E0
F1E0
F1E0
F1E0
F1E0
F1E0
F1E0
F1E0
FFE0
7FE0
3DE0
ENDCHAR
STARTCHAR uni1E7A
ENCODING 7802
SWIDTH 749 0
DWIDTH 15 0
BBX 13 21 1 0
BITMAP
1980
3B80
1980
0000
1F80
1F80
0000
F078
F078
F078
F078
F078
F078
F078
F078
F078
F078
78F0
7FF0
3FE0
0F80
ENDCHAR
STARTCHAR uni1E7B
ENCODING 7803
SWIDTH 664 0
DWIDTH 13 0
BBX 11 18 1 0
BITMAP
3300
7F00
3300
0000
3F00
3F00
0000
F1E0
F1E0
F1E0
F1E0
F1E0
F1E0
F1E0
F1E0
FFE0
7FE0
3DE0
ENDCHAR
STARTCHAR Wgrave
ENCODING 7808
SWIDTH 1113 0
DWIDTH 22 0
BBX 22 19 0 0
BITMAP
002000
00E000
007000
003800
000000
F0783C
F0783C
787C38
78FC38
78FC78
38FC70
3CEE70
3DCE70
1DCEE0
1DC7E0
0F87E0
0F87C0
0F87C0
0783C0
ENDCHAR
STARTCHAR wgrave
ENCODING 7809
SWIDTH 941 0
DWIDTH 19 0
BBX 19 15 0 0
BITMAP
03C000
01C000
00E000
000000
F0E1E0
F1F1C0
71F1C0
79F3C0
39B380
3BBB80
3BBB80
1F3F00
1F1F00
1F1F00
0F1E00
ENDCHAR
STARTCHAR Wacute
ENCODING 7810
SWIDTH 1113 0
DWIDTH 22 0
BBX 22 19 0 0
BITMAP
001000
001E00
003C00
007000
000000
F0783C
F0783C
787C38
78FC38
78FC78
38FC70
3CEE70
3DCE70
1DCEE0
1DC7E0
0F87E0
0F87C0
0F87C0
0783C0
ENDCHAR
STARTCHAR wacute
ENCODING 7811
SWIDTH 941 0
DWIDTH 19 0
BBX 19 15 0 0
BITMAP
007800
007000
00E000
000000
F0E1E0
F1F1C0
71F1C0
79F3C0
39B380
3BBB80
3BBB80
1F3F00
1F1F00
1F1F00
0F1E00
ENDCHAR
STARTCHAR Wdieresis
ENCODING 7812
SWIDTH 1113 0
DWIDTH 22 0
BBX 22 18 0 0
BITMAP
00CC00
00EE00
00CC00
000000
F0783C
F0783C
787C38
78FC38
78FC78
38FC70
3CEE70
3DCE70
1DCEE0
1DC7E0
0F87E0
0F87C0
0F87C0
0783C0
ENDCHAR
STARTCHAR wdieresis
ENCODING 7813
SWIDTH 941 0
DWIDTH 19 0
BBX 19 15 0 0
BITMAP
03B000
03B800
03B800
000000
F0E1E0
F1F1C0
71F1C0
79F3C0
39B380
3BBB80
3BBB80
1F3F00
1F1F00
1F1F00
0F1E00
ENDCHAR
STARTCHAR uni1E8E
ENCODING 7822
SWIDTH 684 0
DWIDTH 14 0
BBX 14 19 0 0
BITMAP
0300
0780
0780
0300
0000
F03C
7078
7870
38F0
3CE0
1FE0
1FC0
0FC0
0F80
0780
0780
0780
0780
0780
ENDCHAR
STARTCHAR uni1E8F
ENCODING 7823
SWIDTH 584 0
DWIDTH 12 0
BBX 12 20 0 -4
BITMAP
0600
0F00
0F00
0600
0000
F0F0
F0E0
70E0
79C0
39C0
39C0
3F80
1F80
1F80
0F00
0F00
0E00
7E00
FC00
7800
ENDCHAR
STARTCHAR uni1E92
ENCODING 7826
SWIDTH 676 0
DWIDTH 14 0
BBX 12 19 1 -5
BITMAP
FFF0
FFF0
FFF0
03E0
03C0
0780
0F00
1F00
3E00
7C00
7800
FFF0
FFF0
FFF0
0000
0E00
0F00
0F00
0E00
ENDCHAR
STARTCHAR uni1E93
ENCODING 7827
SWIDTH 555 0
DWIDTH 11 0
BBX 10 16 1 -5
BITMAP
FF80
FF80
FF80
0F00
1E00
1C00
3C00
7800
FFC0
FFC0
FFC0
0000
1C00
1C00
1C00
1C00
ENDCHAR
STARTCHAR uni1E97
ENCODING 7831
SWIDTH 437 0
DWIDTH 9 0
BBX 8 17 0 0
BITMAP
6E
EE
6E
38
38
38
FF
FF
FF
38
38
38
38
38
3F
3F
1F
ENDCHAR
STARTCHAR uni1E9E
ENCODING 7838
SWIDTH 711 0
DWIDTH 14 0
BBX 13 14 1 0
BITMAP
0FC0
3FF0
7FF0
78F0
F1E0
F1C0
F3E0
F3F0
F078
F078
F078
F3F0
F3F0
F3C0
ENDCHAR
STARTCHAR uni1EA0
ENCODING 7840
SWIDTH 773 0
DWIDTH 15 0
BBX 16 19 0 -5
BITMAP
03C0
07C0
07E0
0FE0
0EF0
0EF0
1E70
1C78
3C78
3FFC
7FFC
7FFE
701E
F01F
0000
0380
0380
0380
0380
ENDCHAR
STARTCHAR uni1EA1
ENCODING 7841
SWIDTH 601 0
DWIDTH 12 0
BBX 10 16 1 -5
BITMAP
3F00
FF80
7FC0
03C0
7FC0
FFC0
E3C0
E3C0
FFC0
FFC0
7BC0
0000
1C00
1C00
1E00
1C00
ENDCHAR
STARTCHAR uni1EA2
ENCODING 7842
SWIDTH 773 0
DWIDTH 15 0
BBX 16 20 0 0
BITMAP
0780
03C0
00C0
01C0
0080
0000
03C0
07C0
07E0
0FE0
0EF0
0EF0
1E70
1C78
3C78
3FFC
7FFC
7FFE
701E
F01F
ENDCHAR
STARTCHAR uni1EA3
ENCODING 7843
SWIDTH 601 0
DWIDTH 12 0
BBX 10 16 1 0
BITMAP
1E00
1E00
0600
0E00
0400
3F00
FF80
7FC0
03C0
7FC0
FFC0
E3C0
E3C0
FFC0
FFC0
7BC0
ENDCHAR
STARTCHAR uni1EA4
ENCODING 7844
SWIDTH 773 0
DWIDTH 15 0
BBX 16 21 0 0
BITMAP
00C0
01E0
0380
0000
07C0
07E0
0E70
03C0
07C0
07E0
0FE0
0EF0
0EF0
1E70
1C78
3C78
3FFC
7FFC
7FFE
701E
F01F
ENDCHAR
STARTCHAR uni1EA5
ENCODING 7845
SWIDTH 601 0
DWIDTH 12 0
BBX 10 18 1 0
BITMAP
0600
0F00
1C00
0000
1E00
3F00
7380
3F00
FF80
7FC0
03C0
7FC0
FFC0
E3C0
E3C0
FFC0
FFC0
7BC0
ENDCHAR
STARTCHAR uni1EA6
ENCODING 7846
SWIDTH 773 0
DWIDTH 15 0
BBX 16 21 0 0
BITMAP
0600
0F80
0180
0000
07C0
07E0
0E70
03C0
07C0
07E0
0FE0
0EF0
0EF0
1E70
1C78
3C78
3FFC
7FFC
7FFE
701E
F01F
ENDCHAR
STARTCHAR uni1EA7
ENCODING 7847
SWIDTH 601 0
DWIDTH 12 0
BBX 10 18 1 0
BITMAP
1800
7C00
0E00
0000
1E00
3F00
7380
3F00
FF80
7FC0
03C0
7FC0
FFC0
E3C0
E3C0
FFC0
FFC0
7BC0
ENDCHAR
STARTCHAR uni1EA8
ENCODING 7848
SWIDTH 773 0
DWIDTH 15 0
BBX 16 22 0 0
BITMAP
0180
03C0
00C0
0180
0000
03C0
07E0
0E70
03C0
07C0
07E0
0FE0
0EF0
0EF0
1E70
1C78
3C78
3FFC
7FFC
7FFE
701E
F01F
ENDCHAR
STARTCHAR uni1EA9
ENCODING 7849
SWIDTH 601 0
DWIDTH 12 0
BBX 10 19 1 0
BITMAP
0C00
1E00
0600
0C00
0000
1E00
3F00
7380
3F00
FF80
7FC0
03C0
7FC0
FFC0
E3C0
E3C0
FFC0
FFC0
7BC0
ENDCHAR
STARTCHAR uni1EAA
ENCODING 7850
SWIDTH 773 0
DWIDTH 15 0
BBX 16 20 0 0
BITMAP
07E0
0FE0
0CC0
07C0
07E0
1E70
03C0
07C0
07E0
0FE0
0EF0
0EF0
1E70
1C78
3C78
3FFC
7FFC
7FFE
701E
F01F
ENDCHAR
STARTCHAR uni1EAB
ENCODING 7851
SWIDTH 601 0
DWIDTH 12 0
BBX 10 17 1 0
BITMAP
3F80
3F00
6700
1E00
3F00
7380
3F00
FF80
7FC0
03C0
7FC0
FFC0
E3C0
E3C0
FFC0
FFC0
7BC0
ENDCHAR
STARTCHAR uni1EAC
ENCODING 7852
SWIDTH 773 0
DWIDTH 15 0
BBX 16 23 0 -5
BITMAP
0380
07C0
0EE0
0000
03C0
07C0
07E0
0FE0
0EF0
0EF0
1E70
1C78
3C78
3FFC
7FFC
7FFE
701E
F01F
0000
0380
0380
0380
0380
ENDCHAR
STARTCHAR uni1EAD
ENCODING 7853
SWIDTH 601 0
DWIDTH 12 0
BBX 10 20 1 -5
BITMAP
1E00
3E00
7700
0000
3F00
FF80
7FC0
03C0
7FC0
FFC0
E3C0
E3C0
FFC0
FFC0
7BC0
0000
1C00
1C00
1E00
1C00
ENDCHAR
STARTCHAR uni1EAE
ENCODING 7854
SWIDTH 773 0
DWIDTH 15 0
BBX 16 21 0 0
BITMAP
00C0
01E0
0380
0E60
07E0
03C0
0000
03C0
07C0
07E0
0FE0
0EF0
0EF0
1E70
1C78
3C78
3FFC
7FFC
7FFE
701E
F01F
ENDCHAR
STARTCHAR uni1EAF
ENCODING 7855
SWIDTH 601 0
DWIDTH 12 0
BBX 10 18 1 0
BITMAP
0600
0F00
1C00
3300
3F00
1E00
0000
3F00
FF80
7FC0
03C0
7FC0
FFC0
E3C0
E3C0
FFC0
FFC0
7BC0
ENDCHAR
STARTCHAR uni1EB0
ENCODING 7856
SWIDTH 773 0
DWIDTH 15 0
BBX 16 21 0 0
BITMAP
0700
0F80
01C0
0E60
07E0
03C0
0000
03C0
07C0
07E0
0FE0
0EF0
0EF0
1E70
1C78
3C78
3FFC
7FFC
7FFE
701E
F01F
ENDCHAR
STARTCHAR uni1EB1
ENCODING 7857
SWIDTH 601 0
DWIDTH 12 0
BBX 10 18 1 0
BITMAP
1800
7C00
0E00
3300
3F00
1E00
0000
3F00
FF80
7FC0
03C0
7FC0
FFC0
E3C0
E3C0
FFC0
FFC0
7BC0
ENDCHAR
STARTCHAR uni1EB2
ENCODING 7858
SWIDTH 773 0
DWIDTH 15 0
BBX 16 22 0 0
BITMAP
0100
07C0
0180
0180
0E60
07E0
03C0
0000
03C0
07C0
07E0
0FE0
0EF0
0EF0
1E70
1C78
3C78
3FFC
7FFC
7FFE
701E
F01F
ENDCHAR
STARTCHAR uni1EB3
ENCODING 7859
SWIDTH 601 0
DWIDTH 12 0
BBX 10 19 1 0
BITMAP
0C00
1E00
0600
0C00
3300
3F00
1E00
0000
3F00
FF80
7FC0
03C0
7FC0
FFC0
E3C0
E3C0
FFC0
FFC0
7BC0
ENDCHAR
STARTCHAR uni1EB4
ENCODING 7860
SWIDTH 773 0
DWIDTH 15 0
BBX 16 21 0 0
BITMAP
07E0
0FE0
0CC0
0E60
07E0
03C0
0000
03C0
07C0
07E0
0FE0
0EF0
0EF0
1E70
1C78
3C78
3FFC
7FFC
7FFE
701E
F01F
ENDCHAR
STARTCHAR uni1EB5
ENCODING 7861
SWIDTH 601 0
DWIDTH 12 0
BBX 10 18 1 0
BITMAP
3F80
3F00
6700
3300
3F00
1E00
0000
3F00
FF80
7FC0
03C0
7FC0
FFC0
E3C0
E3C0
FFC0
FFC0
7BC0
ENDCHAR
STARTCHAR uni1EB6
ENCODING 7862
SWIDTH 773 0
DWIDTH 15 0
BBX 16 23 0 -5
BITMAP
0EE0
07C0
0380
0000
03C0
07C0
07E0
0FE0
0EF0
0EF0
1E70
1C78
3C78
3FFC
7FFC
7FFE
701E
F01F
0000
0380
0380
0380
0380
ENDCHAR
STARTCHAR uni1EB7
ENCODING 7863
SWIDTH 601 0
DWIDTH 12 0
BBX 10 20 1 -5
BITMAP
7300
3F00
1E00
0000
3F00
FF80
7FC0
03C0
7FC0
FFC0
E3C0
E3C0
FFC0
FFC0
7BC0
0000
1C00
1C00
1E00
1C00
ENDCHAR
STARTCHAR uni1EB8
ENCODING 7864
SWIDTH 675 0
DWIDTH 14 0
BBX 12 19 1 -5
BITMAP
FFE0
FFE0
FFE0
F000
F000
FFE0
FFE0
FFE0
F000
F000
F000
FFF0
FFF0
FFF0
0000
0600
0F00
0F00
0600
ENDCHAR
STARTCHAR uni1EB9
ENCODING 7865
SWIDTH 603 0
DWIDTH 12 0
BBX 12 16 0 -5
BITMAP
0F80
3FC0
7FE0
70E0
7FF0
FFF0
7000
78C0
7FE0
3FC0
0F80
0000
0600
0F00
0F00
0600
ENDCHAR
STARTCHAR uni1EBA
ENCODING 7866
SWIDTH 675 0
DWIDTH 14 0
BBX 12 20 1 0
BITMAP
0F00
0F00
0300
0700
0200
0000
FFE0
FFE0
FFE0
F000
F000
FFE0
FFE0
FFE0
F000
F000
F000
FFF0
FFF0
FFF0
ENDCHAR
STARTCHAR uni1EBB
ENCODING 7867
SWIDTH 603 0
DWIDTH 12 0
BBX 12 16 0 0
BITMAP
0F00
0F00
0300
0700
0200
0F80
3FC0
7FE0
70E0
7FF0
FFF0
7000
78C0
7FE0
3FC0
0F80
ENDCHAR
STARTCHAR uni1EBC
ENCODING 7868
SWIDTH 675 0
DWIDTH 14 0
BBX 12 18 1 0
BITMAP
1CC0
1FC0
3B80
0000
FFE0
FFE0
FFE0
F000
F000
FFE0
FFE0
FFE0
F000
F000
F000
FFF0
FFF0
FFF0
ENDCHAR
STARTCHAR uni1EBD
ENCODING 7869
SWIDTH 603 0
DWIDTH 12 0
BBX 12 15 0 0
BITMAP
1CC0
1FC0
1B80
0000
0F80
3FC0
7FE0
70E0
7FF0
FFF0
7000
78C0
7FE0
3FC0
0F80
ENDCHAR
STARTCHAR uni1EBE
ENCODING 7870
SWIDTH 675 0
DWIDTH 14 0
BBX 12 21 1 0
BITMAP
0300
0780
0E00
0000
0F00
1F80
39C0
FFE0
FFE0
FFE0
F000
F000
FFE0
FFE0
FFE0
F000
F000
F000
FFF0
FFF0
FFF0
ENDCHAR
STARTCHAR uni1EBF
ENCODING 7871
SWIDTH 603 0
DWIDTH 12 0
BBX 12 18 0 0
BITMAP
0300
0780
0E00
0000
0F00
1F80
39C0
0F80
3FC0
7FE0
70E0
7FF0
FFF0
7000
78C0
7FE0
3FC0
0F80
ENDCHAR
STARTCHAR uni1EC0
ENCODING 7872
SWIDTH 675 0
DWIDTH 14 0
BBX 12 21 1 0
BITMAP
0C00
3E00
0700
0000
0F00
1F80
39C0
FFE0
FFE0
FFE0
F000
F000
FFE0
FFE0
FFE0
F000
F000
F000
FFF0
FFF0
FFF0
ENDCHAR
STARTCHAR uni1EC1
ENCODING 7873
SWIDTH 603 0
DWIDTH 12 0
BBX 12 18 0 0
BITMAP
0C00
3E00
0700
0000
0F00
1F80
39C0
0F80
3FC0
7FE0
70E0
7FF0
FFF0
7000
78C0
7FE0
3FC0
0F80
ENDCHAR
STARTCHAR uni1EC2
ENCODING 7874
SWIDTH 675 0
DWIDTH 14 0
BBX 12 22 1 0
BITMAP
0200
0F00
0300
0600
0000
0F00
1F80
39C0
FFE0
FFE0
FFE0
F000
F000
FFE0
FFE0
FFE0
F000
F000
F000
FFF0
FFF0
FFF0
ENDCHAR
STARTCHAR uni1EC3
ENCODING 7875
SWIDTH 603 0
DWIDTH 12 0
BBX 12 19 0 0
BITMAP
0600
0F00
0300
0600
0000
0F00
1F80
39C0
0F80
3FC0
7FE0
70E0
7FF0
FFF0
7000
78C0
7FE0
3FC0
0F80
ENDCHAR
STARTCHAR uni1EC4
ENCODING 7876
SWIDTH 675 0
DWIDTH 14 0
BBX 12 20 1 0
BITMAP
1F80
3F80
3300
0F00
1F80
39C0
FFE0
FFE0
FFE0
F000
F000
FFE0
FFE0
FFE0
F000
F000
F000
FFF0
FFF0
FFF0
ENDCHAR
STARTCHAR uni1EC5
ENCODING 7877
SWIDTH 603 0
DWIDTH 12 0
BBX 12 17 0 0
BITMAP
1FC0
1F80
3380
0F00
1F80
39C0
0F80
3FC0
7FE0
70E0
7FF0
FFF0
7000
78C0
7FE0
3FC0
0F80
ENDCHAR
STARTCHAR uni1EC6
ENCODING 7878
SWIDTH 675 0
DWIDTH 14 0
BBX 12 23 1 -5
BITMAP
0F00
1F80
39C0
0000
FFE0
FFE0
FFE0
F000
F000
FFE0
FFE0
FFE0
F000
F000
F000
FFF0
FFF0
FFF0
0000
0600
0F00
0F00
0600
ENDCHAR
STARTCHAR uni1EC7
ENCODING 7879
SWIDTH 603 0
DWIDTH 12 0
BBX 12 20 0 -5
BITMAP
0F00
1F80
39C0
0000
0F80
3FC0
7FE0
70E0
7FF0
FFF0
7000
78C0
7FE0
3FC0
0F80
0000
0600
0F00
0F00
0600
ENDCHAR
STARTCHAR uni1EC8
ENCODING 7880
SWIDTH 319 0
DWIDTH 6 0
BBX 5 20 1 0
BITMAP
F0
F8
30
30
60
00
F0
F0
F0
F0
F0
F0
F0
F0
F0
F0
F0
F0
F0
F0
ENDCHAR
STARTCHAR uni1EC9
ENCODING 7881
SWIDTH 313 0
DWIDTH 6 0
BBX 5 16 1 0
BITMAP
F0
F8
30
70
20
F0
F0
F0
F0
F0
F0
F0
F0
F0
F0
F0
ENDCHAR
STARTCHAR uni1ECA
ENCODING 7882
SWIDTH 319 0
DWIDTH 6 0
BBX 4 19 1 -5
BITMAP
F0
F0
F0
F0
F0
F0
F0
F0
F0
F0
F0
F0
F0
F0
00
60
F0
F0
60
ENDCHAR
STARTCHAR uni1ECB
ENCODING 7883
SWIDTH 313 0
DWIDTH 6 0
BBX 4 21 1 -5
BITMAP
60
F0
F0
60
00
F0
F0
F0
F0
F0
F0
F0
F0
F0
F0
F0
00
60
F0
F0
60
ENDCHAR
STARTCHAR uni1ECC
ENCODING 7884
SWIDTH 804 0
DWIDTH 16 0
BBX 16 19 0 -5
BITMAP
07E0
1FF8
3FFC
7C3E
781E
700E
F00F
F00F
700E
781E
7C3E
3FFC
1FF8
07E0
0000
0180
03C0
03C0
0180
ENDCHAR
STARTCHAR uni1ECD
ENCODING 7885
SWIDTH 638 0
DWIDTH 13 0
BBX 12 16 0 -5
BITMAP
0F80
3FE0
7FE0
78F0
7070
F070
7070
78F0
7FE0
3FE0
0F80
0000
0700
0700
0F00
0700
ENDCHAR
STARTCHAR uni1ECE
ENCODING 7886
SWIDTH 804 0
DWIDTH 16 0
BBX 16 20 0 0
BITMAP
03C0
03C0
00C0
01C0
0080
0000
07E0
1FF8
3FFC
7C3E
781E
700E
F00F
F00F
700E
781E
7C3E
3FFC
1FF8
07E0
ENDCHAR
STARTCHAR uni1ECF
ENCODING 7887
SWIDTH 638 0
DWIDTH 13 0
BBX 12 16 0 0
BITMAP
0700
0F80
0380
0300
0600
0F80
3FE0
7FE0
78F0
7070
F070
7070
78F0
7FE0
3FE0
0F80
ENDCHAR
STARTCHAR uni1ED0
ENCODING 7888
SWIDTH 804 0
DWIDTH 16 0
BBX 16 21 0 0
BITMAP
00C0
01E0
0380
0000
03C0
07E0
0E70
07E0
1FF8
3FFC
7C3E
781E
700E
F00F
F00F
700E
781E
7C3E
3FFC
1FF8
07E0
ENDCHAR
STARTCHAR uni1ED1
ENCODING 7889
SWIDTH 638 0
DWIDTH 13 0
BBX 12 18 0 0
BITMAP
0300
07C0
0E00
0000
0F80
1F80
39E0
0F80
3FE0
7FE0
78F0
7070
F070
7070
78F0
7FE0
3FE0
0F80
ENDCHAR
STARTCHAR uni1ED2
ENCODING 7890
SWIDTH 804 0
DWIDTH 16 0
BBX 16 21 0 0
BITMAP
0300
0780
01C0
0000
03C0
07E0
0E70
07E0
1FF8
3FFC
7C3E
781E
700E
F00F
F00F
700E
781E
7C3E
3FFC
1FF8
07E0
ENDCHAR
STARTCHAR uni1ED3
ENCODING 7891
SWIDTH 638 0
DWIDTH 13 0
BBX 12 18 0 0
BITMAP
0C00
1E00
0700
0000
0F80
1F80
39E0
0F80
3FE0
7FE0
78F0
7070
F070
7070
78F0
7FE0
3FE0
0F80
ENDCHAR
STARTCHAR uni1ED4
ENCODING 7892
SWIDTH 804 0
DWIDTH 16 0
BBX 16 22 0 0
BITMAP
0080
03C0
00C0
0180
0000
03E0
07E0
0E70
07E0
1FF8
3FFC
7C3E
781E
700E
F00F
F00F
700E
781E
7C3E
3FFC
1FF8
07E0
ENDCHAR
STARTCHAR uni1ED5
ENCODING 7893
SWIDTH 638 0
DWIDTH 13 0
BBX 12 19 0 0
BITMAP
0200
0F00
0300
0600
0000
0F80
1F80
39E0
0F80
3FE0
7FE0
78F0
7070
F070
7070
78F0
7FE0
3FE0
0F80
ENDCHAR
STARTCHAR uni1ED6
ENCODING 7894
SWIDTH 804 0
DWIDTH 16 0
BBX 16 20 0 0
BITMAP
07E0
0FE0
0CE0
03C0
07E0
0E70
07E0
1FF8
3FFC
7C3E
781E
700E
F00F
F00F
700E
781E
7C3E
3FFC
1FF8
07E0
ENDCHAR
STARTCHAR uni1ED7
ENCODING 7895
SWIDTH 638 0
DWIDTH 13 0
BBX 12 17 0 0
BITMAP
1FC0
1FC0
1180
0F80
1F80
39E0
0F80
3FE0
7FE0
78F0
7070
F070
7070
78F0
7FE0
3FE0
0F80
ENDCHAR
STARTCHAR uni1ED8
ENCODING 7896
SWIDTH 804 0
DWIDTH 16 0
BBX 16 23 0 -5
BITMAP
03C0
07E0
0E70
0000
07E0
1FF8
3FFC
7C3E
781E
700E
F00F
F00F
700E
781E
7C3E
3FFC
1FF8
07E0
0000
0180
03C0
03C0
0180
ENDCHAR
STARTCHAR uni1ED9
ENCODING 7897
SWIDTH 638 0
DWIDTH 13 0
BBX 12 20 0 -5
BITMAP
0700
0F80
1DC0
0000
0F80
3FE0
7FE0
78F0
7070
F070
7070
78F0
7FE0
3FE0
0F80
0000
0700
0700
0F00
0700
ENDCHAR
STARTCHAR uni1EDA
ENCODING 7898
SWIDTH 833 0
DWIDTH 17 0
BBX 16 19 0 0
BITMAP
0080
00F0
01C1
0387
0007
07E7
1FFE
3FFC
7C3E
781E
700E
F00F
F00F
700E
781E
7C3E
3FFC
1FF8
07E0
ENDCHAR
STARTCHAR uni1EDB
ENCODING 7899
SWIDTH 679 0
DWIDTH 14 0
BBX 14 15 0 0
BITMAP
03C0
038C
071C
001C
0F9C
3FF8
7FE0
78F0
7070
F070
7070
78F0
7FE0
3FE0
0F80
ENDCHAR
STARTCHAR uni1EDC
ENCODING 7900
SWIDTH 833 0
DWIDTH 17 0
BBX 16 19 0 0
BITMAP
0100
0700
0381
01C7
0007
07E7
1FFE
3FFC
7C3E
781E
700E
F00F
F00F
700E
781E
7C3E
3FFC
1FF8
07E0
ENDCHAR
STARTCHAR uni1EDD
ENCODING 7901
SWIDTH 679 0
DWIDTH 14 0
BBX 14 15 0 0
BITMAP
1E00
0E0C
071C
001C
0F9C
3FF8
7FE0
78F0
7070
F070
7070
78F0
7FE0
3FE0
0F80
ENDCHAR
STARTCHAR uni1EDE
ENCODING 7902
SWIDTH 833 0
DWIDTH 17 0
BBX 16 20 0 0
BITMAP
03C0
03C0
00C0
01C1
0087
0007
07E7
1FFE
3FFC
7C3E
781E
700E
F00F
F00F
700E
781E
7C3E
3FFC
1FF8
07E0
ENDCHAR
STARTCHAR uni1EDF
ENCODING 7903
SWIDTH 679 0
DWIDTH 14 0
BBX 14 16 0 0
BITMAP
0700
0F80
038C
031C
061C
0F9C
3FF8
7FE0
78F0
7070
F070
7070
78F0
7FE0
3FE0
0F80
ENDCHAR
STARTCHAR uni1EE0
ENCODING 7904
SWIDTH 833 0
DWIDTH 17 0
BBX 16 18 0 0
BITMAP
0730
07F1
06E7
0007
07E7
1FFE
3FFC
7C3E
781E
700E
F00F
F00F
700E
781E
7C3E
3FFC
1FF8
07E0
ENDCHAR
STARTCHAR uni1EE1
ENCODING 7905
SWIDTH 679 0
DWIDTH 14 0
BBX 14 15 0 0
BITMAP
0CC0
1FCC
1B9C
001C
0F9C
3FF8
7FE0
78F0
7070
F070
7070
78F0
7FE0
3FE0
0F80
ENDCHAR
STARTCHAR uni1EE2
ENCODING 7906
SWIDTH 832 0
DWIDTH 17 0
BBX 16 22 0 -5
BITMAP
0001
0007
0007
07E7
1FFE
3FFC
7C3E
781E
700E
F00F
F00F
700E
781E
7C3E
3FFC
1FF8
07E0
0000
0180
03C0
03C0
0180
ENDCHAR
STARTCHAR uni1EE3
ENCODING 7907
SWIDTH 680 0
DWIDTH 14 0
BBX 14 19 0 -5
BITMAP
000C
001C
001C
0F9C
3FF8
7FE0
78F0
7070
F070
7070
78F0
7FE0
3FE0
0F80
0000
0700
0700
0F00
0700
ENDCHAR
STARTCHAR uni1EE4
ENCODING 7908
SWIDTH 749 0
DWIDTH 15 0
BBX 13 19 1 -5
BITMAP
F078
F078
F078
F078
F078
F078
F078
F078
F078
F078
78F0
7FF0
3FE0
0F80
0000
0700
0700
0700
0700
ENDCHAR
STARTCHAR uni1EE5
ENCODING 7909
SWIDTH 664 0
DWIDTH 13 0
BBX 11 16 1 -5
BITMAP
F1E0
F1E0
F1E0
F1E0
F1E0
F1E0
F1E0
F1E0
FFE0
7FE0
3DE0
0000
0E00
0E00
0E00
0E00
ENDCHAR
STARTCHAR uni1EE6
ENCODING 7910
SWIDTH 749 0
DWIDTH 15 0
BBX 13 20 1 0
BITMAP
0F00
0780
0380
0300
0200
0000
F078
F078
F078
F078
F078
F078
F078
F078
F078
F078
78F0
7FF0
3FE0
0F80
ENDCHAR
STARTCHAR uni1EE7
ENCODING 7911
SWIDTH 664 0
DWIDTH 13 0
BBX 11 16 1 0
BITMAP
1E00
0F00
0300
0600
0200
F1E0
F1E0
F1E0
F1E0
F1E0
F1E0
F1E0
F1E0
FFE0
7FE0
3DE0
ENDCHAR
STARTCHAR uni1EE8
ENCODING 7912
SWIDTH 797 0
DWIDTH 16 0
BBX 15 19 1 0
BITMAP
0100
03C0
0382
070E
0006
F07E
F07C
F078
F078
F078
F078
F078
F078
F078
F078
78F0
7FF0
3FE0
0F80
ENDCHAR
STARTCHAR uni1EE9
ENCODING 7913
SWIDTH 687 0
DWIDTH 14 0
BBX 13 15 1 0
BITMAP
0380
0718
0E38
0018
F1F8
F1F0
F1E0
F1E0
F1E0
F1E0
F1E0
F1E0
FFE0
7FE0
3DE0
ENDCHAR
STARTCHAR uni1EEA
ENCODING 7914
SWIDTH 797 0
DWIDTH 16 0
BBX 15 19 1 0
BITMAP
0400
1E00
0E02
070E
0006
F07E
F07C
F078
F078
F078
F078
F078
F078
F078
F078
78F0
7FF0
3FE0
0F80
ENDCHAR
STARTCHAR uni1EEB
ENCODING 7915
SWIDTH 687 0
DWIDTH 14 0
BBX 13 15 1 0
BITMAP
3C00
1C18
0E38
0018
F1F8
F1F0
F1E0
F1E0
F1E0
F1E0
F1E0
F1E0
FFE0
7FE0
3DE0
ENDCHAR
STARTCHAR uni1EEC
ENCODING 7916
SWIDTH 797 0
DWIDTH 16 0
BBX 15 20 1 0
BITMAP
0F00
0780
0380
0302
020E
0006
F07E
F07C
F078
F078
F078
F078
F078
F078
F078
F078
78F0
7FF0
3FE0
0F80
ENDCHAR
STARTCHAR uni1EED
ENCODING 7917
SWIDTH 687 0
DWIDTH 14 0
BBX 13 16 1 0
BITMAP
1E00
0F00
0318
0638
0218
F1F8
F1F0
F1E0
F1E0
F1E0
F1E0
F1E0
F1E0
FFE0
7FE0
3DE0
ENDCHAR
STARTCHAR uni1EEE
ENCODING 7918
SWIDTH 797 0
DWIDTH 16 0
BBX 15 18 1 0
BITMAP
0CC0
1FC2
19CE
0006
F07E
F07C
F078
F078
F078
F078
F078
F078
F078
F078
78F0
7FF0
3FE0
0F80
ENDCHAR
STARTCHAR uni1EEF
ENCODING 7919
SWIDTH 687 0
DWIDTH 14 0
BBX 13 15 1 0
BITMAP
1980
3F98
33B8
0018
F1F8
F1F0
F1E0
F1E0
F1E0
F1E0
F1E0
F1E0
FFE0
7FE0
3DE0
ENDCHAR
STARTCHAR uni1EF0
ENCODING 7920
SWIDTH 796 0
DWIDTH 16 0
BBX 15 22 1 -5
BITMAP
0002
000E
0006
F07E
F07C
F078
F078
F078
F078
F078
F078
F078
F078
78F0
7FF0
3FE0
0F80
0000
0700
0700
0700
0700
ENDCHAR
STARTCHAR uni1EF1
ENCODING 7921
SWIDTH 687 0
DWIDTH 14 0
BBX 13 19 1 -5
BITMAP
0018
0038
0018
F1F8
F1F0
F1E0
F1E0
F1E0
F1E0
F1E0
F1E0
FFE0
7FE0
3DE0
0000
0E00
0E00
0E00
0E00
ENDCHAR
STARTCHAR Ygrave
ENCODING 7922
SWIDTH 684 0
DWIDTH 14 0
BBX 14 19 0 0
BITMAP
0200
1E00
0F00
0300
0000
F03C
7078
7870
38F0
3CE0
1FE0
1FC0
0FC0
0F80
0780
0780
0780
0780
0780
ENDCHAR
STARTCHAR ygrave
ENCODING 7923
SWIDTH 584 0
DWIDTH 12 0
BBX 12 19 0 -4
BITMAP
3C00
1E00
0600
0000
F0F0
F0E0
70E0
79C0
39C0
39C0
3F80
1F80
1F80
0F00
0F00
0E00
7E00
FC00
7800
ENDCHAR
STARTCHAR uni1EF4
ENCODING 7924
SWIDTH 684 0
DWIDTH 14 0
BBX 14 19 0 -5
BITMAP
F03C
7078
7870
38F0
3CE0
1FE0
1FC0
0FC0
0F80
0780
0780
0780
0780
0780
0000
0300
0780
0780
0300
ENDCHAR
STARTCHAR uni1EF5
ENCODING 7925
SWIDTH 584 0
DWIDTH 12 0
BBX 12 16 0 -5
BITMAP
F0F0
F0E0
70E0
79C0
39C0
39C0
3F80
1F80
1F80
0F00
0F00
0E00
7EE0
FCE0
78E0
00E0
ENDCHAR
STARTCHAR uni1EF6
ENCODING 7926
SWIDTH 684 0
DWIDTH 14 0
BBX 14 20 0 0
BITMAP
0780
0780
0180
0380
0100
0000
F03C
7078
7870
38F0
3CE0
1FE0
1FC0
0FC0
0F80
0780
0780
0780
0780
0780
ENDCHAR
STARTCHAR uni1EF7
ENCODING 7927
SWIDTH 584 0
DWIDTH 12 0
BBX 12 20 0 -4
BITMAP
0F00
0F00
0300
0700
0200
F0F0
F0E0
70E0
79C0
39C0
39C0
3F80
1F80
1F80
0F00
0F00
0E00
7E00
FC00
7800
ENDCHAR
STARTCHAR uni1EF8
ENCODING 7928
SWIDTH 684 0
DWIDTH 14 0
BBX 14 18 0 0
BITMAP
0EE0
0FC0
19C0
0000
F03C
7078
7870
38F0
3CE0
1FE0
1FC0
0FC0
0F80
0780
0780
0780
0780
0780
ENDCHAR
STARTCHAR uni1EF9
ENCODING 7929
SWIDTH 584 0
DWIDTH 12 0
BBX 12 19 0 -4
BITMAP
1CC0
1F80
3380
0000
F0F0
F0E0
70E0
79C0
39C0
39C0
3F80
1F80
1F80
0F00
0F00
0E00
7E00
FC00
7800
ENDCHAR
STARTCHAR uni2007
ENCODING 8199
SWIDTH 700 0
DWIDTH 14 0
BBX 1 1 0 0
BITMAP
00
ENDCHAR
STARTCHAR uni2008
ENCODING 8200
SWIDTH 245 0
DWIDTH 5 0
BBX 1 1 0 0
BITMAP
00
ENDCHAR
STARTCHAR uni2009
ENCODING 8201
SWIDTH 200 0
DWIDTH 4 0
BBX 1 1 0 0
BITMAP
00
ENDCHAR
STARTCHAR uni200A
ENCODING 8202
SWIDTH 100 0
DWIDTH 2 0
BBX 1 1 0 0
BITMAP
00
ENDCHAR
STARTCHAR uni200B
ENCODING 8203
SWIDTH 0 0
DWIDTH 0 0
BBX 1 1 0 0
BITMAP
00
ENDCHAR
STARTCHAR uni2010
ENCODING 8208
SWIDTH 375 0
DWIDTH 8 0
BBX 5 3 1 5
BITMAP
F8
F8
F8
ENDCHAR
STARTCHAR figuredash
ENCODING 8210
SWIDTH 617 0
DWIDTH 12 0
BBX 12 3 0 5
BITMAP
FFF0
FFF0
FFF0
ENDCHAR
STARTCHAR endash
ENCODING 8211
SWIDTH 408 0
DWIDTH 8 0
BBX 8 3 0 5
BITMAP
FF
FF
FF
ENDCHAR
STARTCHAR emdash
ENCODING 8212
SWIDTH 645 0
DWIDTH 13 0
BBX 13 3 0 5
BITMAP
FFF8
FFF8
FFF8
ENDCHAR
STARTCHAR uni2015
ENCODING 8213
SWIDTH 645 0
DWIDTH 13 0
BBX 13 3 0 5
BITMAP
FFF8
FFF8
FFF8
ENDCHAR
STARTCHAR quoteleft
ENCODING 8216
SWIDTH 243 0
DWIDTH 5 0
BBX 4 6 0 9
BITMAP
30
30
60
70
F0
60
ENDCHAR
STARTCHAR quoteright
ENCODING 8217
SWIDTH 243 0
DWIDTH 5 0
BBX 4 6 0 9
BITMAP
70
70
70
70
60
C0
ENDCHAR
STARTCHAR quotesinglbase
ENCODING 8218
SWIDTH 243 0
DWIDTH 5 0
BBX 4 6 0 -2
BITMAP
70
70
70
70
60
C0
ENDCHAR
STARTCHAR quotedblleft
ENCODING 8220
SWIDTH 432 0
DWIDTH 9 0
BBX 8 6 0 9
BITMAP
33
36
66
7E
FF
66
ENDCHAR
STARTCHAR quotedblright
ENCODING 8221
SWIDTH 432 0
DWIDTH 9 0
BBX 8 6 0 9
BITMAP
76
77
77
76
66
CC
ENDCHAR
STARTCHAR quotedblbase
ENCODING 8222
SWIDTH 432 0
DWIDTH 9 0
BBX 8 6 0 -2
BITMAP
76
77
77
76
66
CC
ENDCHAR
STARTCHAR dagger
ENCODING 8224
SWIDTH 577 0
DWIDTH 12 0
BBX 11 18 0 -4
BITMAP
0E00
0E00
0E00
0E00
FFE0
FFE0
FFE0
0E00
0E00
0E00
0E00
0E00
0E00
0E00
0E00
0E00
0E00
0E00
ENDCHAR
STARTCHAR daggerdbl
ENCODING 8225
SWIDTH 577 0
DWIDTH 12 0
BBX 11 18 0 -4
BITMAP
0E00
0E00
0E00
0E00
FFE0
FFE0
FFE0
0E00
0E00
0E00
0E00
FFE0
FFE0
FFE0
0E00
0E00
0E00
0E00
ENDCHAR
STARTCHAR bullet
ENCODING 8226
SWIDTH 331 0
DWIDTH 7 0
BBX 5 5 1 3
BITMAP
70
F8
F8
F8
70
ENDCHAR
STARTCHAR ellipsis
ENCODING 8230
SWIDTH 686 0
DWIDTH 14 0
BBX 12 3 1 0
BITMAP
E660
EF70
E670
ENDCHAR
STARTCHAR perthousand
ENCODING 8240
SWIDTH 1431 0
DWIDTH 29 0
BBX 28 14 0 0
BITMAP
3C070000
7E060000
630C0000
631C0000
E3380000
633383C0
676FE7E0
7EEC6670
3CCC6E30
018C6E30
038C6E30
070C6670
060FE7E0
0E03C3C0
ENDCHAR
STARTCHAR minute
ENCODING 8242
SWIDTH 234 0
DWIDTH 5 0
BBX 3 5 1 9
BITMAP
E0
E0
C0
C0
C0
ENDCHAR
STARTCHAR second
ENCODING 8243
SWIDTH 416 0
DWIDTH 8 0
BBX 6 5 1 9
BITMAP
EC
EC
CC
CC
DC
ENDCHAR
STARTCHAR guilsinglleft
ENCODING 8249
SWIDTH 281 0
DWIDTH 6 0
BBX 5 7 0 2
BITMAP
38
70
70
E0
70
70
38
ENDCHAR
STARTCHAR guilsinglright
ENCODING 8250
SWIDTH 281 0
DWIDTH 6 0
BBX 6 7 0 2
BITMAP
F0
70
38
3C
38
70
F0
ENDCHAR
STARTCHAR fraction
ENCODING 8260
SWIDTH 120 0
DWIDTH 2 0
BBX 12 14 -5 0
BITMAP
0030
0060
00E0
01C0
0180
0300
0700
0600
0C00
1C00
3800
3000
6000
E000
ENDCHAR
STARTCHAR uni2070
ENCODING 8304
SWIDTH 437 0
DWIDTH 9 0
BBX 8 9 0 7
BITMAP
3C
7E
67
63
E3
63
63
7E
3C
ENDCHAR
STARTCHAR uni2074
ENCODING 8308
SWIDTH 388 0
DWIDTH 8 0
BBX 8 9 0 7
BITMAP
18
38
30
70
6E
FF
FF
0E
0E
ENDCHAR
STARTCHAR uni2075
ENCODING 8309
SWIDTH 398 0
DWIDTH 8 0
BBX 7 9 0 7
BITMAP
7E
7E
60
7C
7E
06
46
FE
7C
ENDCHAR
STARTCHAR uni2076
ENCODING 8310
SWIDTH 407 0
DWIDTH 8 0
BBX 8 9 0 7
BITMAP
1E
7E
62
7C
FE
E7
67
7E
3C
ENDCHAR
STARTCHAR uni2077
ENCODING 8311
SWIDTH 352 0
DWIDTH 7 0
BBX 7 8 0 7
BITMAP
FE
FE
CE
1C
1C
38
38
70
ENDCHAR
STARTCHAR uni2078
ENCODING 8312
SWIDTH 411 0
DWIDTH 8 0
BBX 8 9 0 7
BITMAP
3C
7E
66
66
3E
7E
E7
7F
3E
ENDCHAR
STARTCHAR uni2079
ENCODING 8313
SWIDTH 407 0
DWIDTH 8 0
BBX 7 9 1 7
BITMAP
78
FC
CC
CE
FE
7E
0C
FC
F8
ENDCHAR
STARTCHAR uni2080
ENCODING 8320
SWIDTH 437 0
DWIDTH 9 0
BBX 8 9 0 -2
BITMAP
3C
7E
67
63
E3
63
63
7E
3C
ENDCHAR
STARTCHAR uni2081
ENCODING 8321
SWIDTH 261 0
DWIDTH 5 0
BBX 4 8 0 -2
BITMAP
F0
F0
30
30
30
30
30
30
ENDCHAR
STARTCHAR uni2082
ENCODING 8322
SWIDTH 380 0
DWIDTH 8 0
BBX 7 9 0 -2
BITMAP
3C
FE
4E
0E
1C
38
70
FE
FE
ENDCHAR
STARTCHAR uni2083
ENCODING 8323
SWIDTH 370 0
DWIDTH 7 0
BBX 7 9 0 -2
BITMAP
7E
7E
1C
38
3C
0E
4E
FE
7C
ENDCHAR
STARTCHAR uni2084
ENCODING 8324
SWIDTH 388 0
DWIDTH 8 0
BBX 8 9 0 -2
BITMAP
18
38
30
70
6E
FF
FF
0E
0E
ENDCHAR
STARTCHAR uni2085
ENCODING 8325
SWIDTH 398 0
DWIDTH 8 0
BBX 7 9 0 -2
BITMAP
7E
7E
60
7C
7E
06
46
FE
7C
ENDCHAR
STARTCHAR uni2086
ENCODING 8326
SWIDTH 407 0
DWIDTH 8 0
BBX 8 9 0 -2
BITMAP
1E
7E
62
7C
FE
E7
67
7E
3C
ENDCHAR
STARTCHAR uni2087
ENCODING 8327
SWIDTH 352 0
DWIDTH 7 0
BBX 7 8 0 -2
BITMAP
FE
FE
CE
1C
1C
38
38
70
ENDCHAR
STARTCHAR uni2088
ENCODING 8328
SWIDTH 411 0
DWIDTH 8 0
BBX 8 9 0 -2
BITMAP
3C
7E
66
66
3E
7E
E7
7F
3E
ENDCHAR
STARTCHAR uni2089
ENCODING 8329
SWIDTH 407 0
DWIDTH 8 0
BBX 7 9 1 -2
BITMAP
78
FC
CC
CE
FE
7E
0C
FC
F8
ENDCHAR
STARTCHAR colonmonetary
ENCODING 8353
SWIDTH 692 0
DWIDTH 14 0
BBX 14 21 0 -3
BITMAP
0370
0760
0760
0760
0FE0
1FF8
3FFC
7C38
7810
7000
F000
F000
7000
7810
7C30
3FFC
1FF8
0FE0
0EC0
0CC0
0DC0
ENDCHAR
STARTCHAR franc
ENCODING 8355
SWIDTH 632 0
DWIDTH 13 0
BBX 12 14 0 0
BITMAP
3FF0
3FF0
3FF0
3C00
3C00
3C00
3FF0
3FF0
3FF0
3C00
3C00
FFC0
3C00
3C00
ENDCHAR
STARTCHAR lira
ENCODING 8356
SWIDTH 564 0
DWIDTH 11 0
BBX 10 14 1 0
BITMAP
1F00
3FC0
3FC0
7880
7880
7800
FF00
7800
FF00
7800
7800
FFC0
FFC0
FFC0
ENDCHAR
STARTCHAR uni20A6
ENCODING 8358
SWIDTH 794 0
DWIDTH 16 0
BBX 15 14 0 0
BITMAP
381C
3C1C
3E1C
3E1C
3F1C
FF9E
3B9C
39DC
F9FE
38FC
387C
387C
383C
383C
ENDCHAR
STARTCHAR peseta
ENCODING 8359
SWIDTH 1555 0
DWIDTH 31 0
BBX 30 14 1 0
BITMAP
FF800000
FFC38000
FFE38000
F0EFF1FC
F0EFF3F8
F0EFF7F8
F0E38700
FFE38380
FFC383F0
FF8380F8
F003803C
F003F63C
F003F7F8
F001F3F0
ENDCHAR
STARTCHAR uni20A9
ENCODING 8361
SWIDTH 1056 0
DWIDTH 21 0
BBX 21 14 0 0
BITMAP
F07878
787870
78F870
78F8F0
38FCE0
FCDCF8
3DDCE0
1DDCE0
7DCDF8
1D8FC0
1F8FC0
0F8F80
0F8780
0F0780
ENDCHAR
STARTCHAR dong
ENCODING 8363
SWIDTH 688 0
DWIDTH 14 0
BBX 14 17 0 -2
BITMAP
0070
0070
03FC
0070
1F70
3FF0
7FF0
78F0
7070
F070
7070
78F0
7FF0
3FF0
1F70
0000
3FE0
ENDCHAR
STARTCHAR Euro
ENCODING 8364
SWIDTH 775 0
DWIDTH 16 0
BBX 14 14 1 0
BITMAP
03E0
0FF8
1FFC
3E18
7C08
FFC0
7800
FFC0
7800
3C08
3E18
1FFC
0FF8
03E0
ENDCHAR
STARTCHAR uni20AD
ENCODING 8365
SWIDTH 732 0
DWIDTH 15 0
BBX 14 14 0 0
BITMAP
783C
7878
78F0
79E0
7BC0
7F80
FFF8
7F80
7BC0
79E0
79F0
78F0
7878
783C
ENDCHAR
STARTCHAR uni20B1
ENCODING 8369
SWIDTH 781 0
DWIDTH 16 0
BBX 15 14 0 0
BITMAP
3FE0
3FF8
3FF8
FC3E
3C3C
3C3C
FC3E
3FF8
3FF8
3FE0
3C00
3C00
3C00
3C00
ENDCHAR
STARTCHAR uni20B2
ENCODING 8370
SWIDTH 732 0
DWIDTH 15 0
BBX 14 20 0 -3
BITMAP
0180
0180
0180
07F0
1FF8
3FFC
7C38
7810
7000
F000
F01C
701C
781C
7C3C
3FFC
1FFC
07F0
0180
0180
0180
ENDCHAR
STARTCHAR uni20B5
ENCODING 8373
SWIDTH 692 0
DWIDTH 14 0
BBX 14 20 0 -3
BITMAP
0380
0380
0380
07E0
1FF8
3FFC
7C38
7810
7000
F000
F000
7000
7810
7C38
3FFC
1FF8
0FE0
0380
0380
0380
ENDCHAR
STARTCHAR uni20B9
ENCODING 8377
SWIDTH 619 0
DWIDTH 12 0
BBX 11 14 1 0
BITMAP
FFE0
FFE0
FFE0
0380
FFE0
FFE0
0380
FF80
FF00
FE00
0F00
0780
03C0
03E0
ENDCHAR
STARTCHAR uni20BA
ENCODING 8378
SWIDTH 728 0
DWIDTH 15 0
BBX 14 14 0 0
BITMAP
3C00
3CE0
3FC0
7E00
FCE0
3FC0
7C00
FC3C
3C3C
3C3C
3C78
3FF0
3FE0
3FC0
ENDCHAR
STARTCHAR uni20BC
ENCODING 8380
SWIDTH 775 0
DWIDTH 16 0
BBX 14 14 1 0
BITMAP
0700
0700
0FC0
3FF0
7FF8
FF78
F73C
E73C
E73C
E73C
E73C
E73C
E73C
E73C
ENDCHAR
STARTCHAR uni20BD
ENCODING 8381
SWIDTH 706 0
DWIDTH 14 0
BBX 14 14 0 0
BITMAP
3FE0
3FF0
3FF8
3C3C
3C3C
3C3C
3C3C
3FF8
3FF0
3FE0
3C00
FFC0
3C00
3C00
ENDCHAR
STARTCHAR uni2113
ENCODING 8467
SWIDTH 473 0
DWIDTH 9 0
BBX 9 14 0 0
BITMAP
0F00
0F80
1980
1980
1B80
3B00
3E00
3C00
3800
7000
F100
B380
3F00
1E00
ENDCHAR
STARTCHAR uni2116
ENCODING 8470
SWIDTH 1233 0
DWIDTH 25 0
BBX 22 14 1 0
BITMAP
F038F8
F839FC
F839CC
FC398C
FE39CC
FF38FC
FF3870
F7B8F8
F3F8F8
F1F8F8
F1F800
F0F800
F07800
F03800
ENDCHAR
STARTCHAR trademark
ENCODING 8482
SWIDTH 906 0
DWIDTH 18 0
BBX 17 8 0 6
BITMAP
FEE380
FEE380
38F780
38F780
38FF80
38DD80
38DD80
38C980
ENDCHAR
STARTCHAR uni2126
ENCODING 8486
SWIDTH 854 0
DWIDTH 17 0
BBX 17 14 0 0
BITMAP
07F000
1FFC00
1FFE00
3C1E00
380F00
780F00
780700
380F00
380E00
3C1E00
1E3C00
FE3F80
FE3F80
FE3F80
ENDCHAR
STARTCHAR estimated
ENCODING 8494
SWIDTH 809 0
DWIDTH 16 0
BBX 14 12 1 0
BITMAP
1FE0
2010
6018
6018
601C
FFFC
E000
6000
6000
2010
1820
07C0
ENDCHAR
STARTCHAR uni2153
ENCODING 8531
SWIDTH 928 0
DWIDTH 19 0
BBX 17 14 0 0
BITMAP
F01C00
F03800
303000
306000
30E000
30DF80
319F80
338300
070600
060F80
0C0180
1C1180
181F80
300F00
ENDCHAR
STARTCHAR uni2154
ENCODING 8532
SWIDTH 1028 0
DWIDTH 21 0
BBX 20 14 0 0
BITMAP
3C0380
FE0600
4E0E00
0E0C00
1C1800
383BF0
7073F0
FE60E0
FEE1C0
01C1E0
018070
030230
0707F0
0E03E0
ENDCHAR
STARTCHAR oneeighth
ENCODING 8539
SWIDTH 880 0
DWIDTH 18 0
BBX 17 14 0 0
BITMAP
F01C00
F03800
303000
306000
30E000
30CE00
319F00
33B380
073380
061F00
0C3F80
1C3180
183F80
301F00
ENDCHAR
STARTCHAR threeeighths
ENCODING 8540
SWIDTH 958 0
DWIDTH 19 0
BBX 19 14 0 0
BITMAP
7E0700
7E0C00
1C1C00
381800
3C3000
0E7780
4EEFC0
FECCC0
398CC0
0387C0
030FC0
061CE0
0E0FE0
1C07C0
ENDCHAR
STARTCHAR fiveeighths
ENCODING 8541
SWIDTH 979 0
DWIDTH 20 0
BBX 19 14 0 0
BITMAP
7E0700
7E0E00
600C00
7C1800
7E3800
063380
4667C0
FEECE0
3DCCE0
0187C0
030FE0
070C60
060FE0
1C07C0
ENDCHAR
STARTCHAR seveneighths
ENCODING 8542
SWIDTH 903 0
DWIDTH 18 0
BBX 18 14 0 0
BITMAP
FE0C00
FE1800
CE3800
1C7000
1C6000
18EF00
39DF80
319980
431980
070F00
0E1F80
0C39C0
1C3F80
381F00
ENDCHAR
STARTCHAR arrowleft
ENCODING 8592
SWIDTH 600 0
DWIDTH 12 0
BBX 10 9 1 1
BITMAP
1E00
3800
3800
7FC0
FFC0
7FC0
3800
3C00
1E00
ENDCHAR
STARTCHAR arrowup
ENCODING 8593
SWIDTH 600 0
DWIDTH 12 0
BBX 10 9 1 1
BITMAP
0C00
3F00
7F80
EDC0
CCC0
0C00
0C00
0C00
0C00
ENDCHAR
STARTCHAR arrowright
ENCODING 8594
SWIDTH 600 0
DWIDTH 12 0
BBX 10 9 1 1
BITMAP
1E00
0700
0700
FF80
FFC0
FF80
0700
0F00
1E00
ENDCHAR
STARTCHAR arrowdown
ENCODING 8595
SWIDTH 600 0
DWIDTH 12 0
BBX 9 9 2 1
BITMAP
1C00
1C00
1C00
1C00
9D80
FF80
FF80
3E00
1800
ENDCHAR
STARTCHAR arrowboth
ENCODING 8596
SWIDTH 851 0
DWIDTH 17 0
BBX 15 9 1 1
BITMAP
1C70
3838
701C
7FFC
FFFE
7FFC
781C
3838
1C70
ENDCHAR
STARTCHAR arrowupdn
ENCODING 8597
SWIDTH 600 0
DWIDTH 12 0
BBX 10 14 1 0
BITMAP
0C00
1E00
7F80
FFC0
EDC0
8C40
0C00
0C00
CCC0
EDC0
FFC0
3F00
1E00
0400
ENDCHAR
STARTCHAR uni2196
ENCODING 8598
SWIDTH 600 0
DWIDTH 12 0
BBX 9 9 2 1
BITMAP
1E00
7F00
F800
F800
FC00
DE00
CF80
4700
0200
ENDCHAR
STARTCHAR uni2197
ENCODING 8599
SWIDTH 600 0
DWIDTH 12 0
BBX 9 9 2 1
BITMAP
3800
FF00
1F00
1F00
3F00
7B00
F380
E300
4000
ENDCHAR
STARTCHAR uni2198
ENCODING 8600
SWIDTH 600 0
DWIDTH 12 0
BBX 9 9 2 1
BITMAP
4200
E300
F380
7B00
3F00
1F00
3F00
FF00
3000
ENDCHAR
STARTCHAR uni2199
ENCODING 8601
SWIDTH 600 0
DWIDTH 12 0
BBX 9 9 2 1
BITMAP
4200
C780
CF00
DE00
FC00
F800
7E00
7F00
0400
ENDCHAR
STARTCHAR partialdiff
ENCODING 8706
SWIDTH 627 0
DWIDTH 13 0
BBX 11 14 1 0
BITMAP
7F00
FF80
7FC0
41C0
01E0
7FE0
FFE0
F7E0
E1E0
E1E0
E1C0
FFC0
7F80
3F00
ENDCHAR
STARTCHAR emptyset
ENCODING 8709
SWIDTH 542 0
DWIDTH 11 0
BBX 11 11 0 1
BITMAP
0040
1F60
3FC0
71C0
66C0
6CC0
78C0
71C0
7F80
DF00
8000
ENDCHAR
STARTCHAR uni2206
ENCODING 8710
SWIDTH 719 0
DWIDTH 14 0
BBX 14 14 0 0
BITMAP
0780
07C0
0FC0
0FE0
1EE0
1CF0
3CF0
3870
7878
7838
703C
FFFC
FFFC
FFFC
ENDCHAR
STARTCHAR product
ENCODING 8719
SWIDTH 741 0
DWIDTH 15 0
BBX 12 19 1 -4
BITMAP
FFF0
FFF0
FFF0
F070
F070
F070
F070
F070
F070
F070
F070
F070
F070
F070
F070
F070
F070
F070
F070
ENDCHAR
STARTCHAR summation
ENCODING 8721
SWIDTH 617 0
DWIDTH 12 0
BBX 11 18 1 -3
BITMAP
FFE0
FFE0
FFE0
F000
7800
3C00
1E00
0F00
0F80
0F00
1E00
1E00
3C00
7800
F000
FFE0
FFE0
FFE0
ENDCHAR
STARTCHAR minus
ENCODING 8722
SWIDTH 511 0
DWIDTH 10 0
BBX 9 3 1 5
BITMAP
FF80
FF80
FF80
ENDCHAR
STARTCHAR uni2215
ENCODING 8725
SWIDTH 355 0
DWIDTH 7 0
BBX 10 19 -1 -2
BITMAP
01C0
0380
0380
0380
0700
0700
0700
0E00
0E00
0E00
1C00
1C00
1C00
3800
3800
7000
7000
7000
E000
ENDCHAR
STARTCHAR uni2219
ENCODING 8729
SWIDTH 331 0
DWIDTH 7 0
BBX 5 5 1 3
BITMAP
70
F8
F8
F8
70
ENDCHAR
STARTCHAR radical
ENCODING 8730
SWIDTH 710 0
DWIDTH 14 0
BBX 14 18 0 -3
BITMAP
001C
001C
003C
0038
0038
0038
0078
F870
F870
FC70
1CE0
1CE0
1EE0
0FC0
0FC0
0FC0
07C0
0780
ENDCHAR
STARTCHAR infinity
ENCODING 8734
SWIDTH 852 0
DWIDTH 17 0
BBX 17 8 0 2
BITMAP
3E3E00
7F7F00
73E300
61C380
E1C380
73E300
7F7F00
3E3E00
ENDCHAR
STARTCHAR integral
ENCODING 8747
SWIDTH 395 0
DWIDTH 8 0
BBX 8 20 0 -3
BITMAP
0F
1F
1D
38
38
38
38
18
18
18
18
18
18
1C
1C
1C
18
F8
F8
F0
ENDCHAR
STARTCHAR approxequal
ENCODING 8776
SWIDTH 511 0
DWIDTH 10 0
BBX 8 9 1 2
BITMAP
63
FF
FF
EE
00
73
FF
FF
E6
ENDCHAR
STARTCHAR notequal
ENCODING 8800
SWIDTH 511 0
DWIDTH 10 0
BBX 9 13 1 0
BITMAP
0600
0E00
0E00
FF80
FF80
1C00
1800
FF80
FF80
FF80
7000
7000
6000
ENDCHAR
STARTCHAR lessequal
ENCODING 8804
SWIDTH 511 0
DWIDTH 10 0
BBX 9 13 1 0
BITMAP
0180
0780
3F00
FC00
E000
E000
FC00
3F80
0780
0180
0000
FF80
FF80
ENDCHAR
STARTCHAR greaterequal
ENCODING 8805
SWIDTH 511 0
DWIDTH 10 0
BBX 9 13 1 0
BITMAP
8000
F000
FC00
1F80
0780
0780
3F00
F800
E000
8000
0000
FF80
FF80
ENDCHAR
STARTCHAR filledbox
ENCODING 9632
SWIDTH 600 0
DWIDTH 12 0
BBX 8 8 2 1
BITMAP
FF
FF
FF
FF
FF
FF
FF
FF
ENDCHAR
STARTCHAR uni25A1
ENCODING 9633
SWIDTH 600 0
DWIDTH 12 0
BBX 8 8 2 1
BITMAP
FF
FF
C3
C3
C3
C3
FF
FF
ENDCHAR
STARTCHAR triagup
ENCODING 9650
SWIDTH 600 0
DWIDTH 12 0
BBX 8 9 2 1
BITMAP
10
18
18
3C
3C
7E
7E
FF
FF
ENDCHAR
STARTCHAR uni25B3
ENCODING 9651
SWIDTH 600 0
DWIDTH 12 0
BBX 8 9 2 1
BITMAP
10
18
18
3C
3C
66
66
FF
FF
ENDCHAR
STARTCHAR uni25B6
ENCODING 9654
SWIDTH 600 0
DWIDTH 12 0
BBX 9 9 2 1
BITMAP
8000
E000
F800
FE00
FF80
FE00
F800
E000
8000
ENDCHAR
STARTCHAR uni25B7
ENCODING 9655
SWIDTH 600 0
DWIDTH 12 0
BBX 9 9 2 1
BITMAP
8000
E000
F800
DE00
C780
CE00
F800
E000
8000
ENDCHAR
STARTCHAR triagdn
ENCODING 9660
SWIDTH 600 0
DWIDTH 12 0
BBX 8 9 2 1
BITMAP
FF
FF
7E
7E
3C
3C
18
18
10
ENDCHAR
STARTCHAR uni25BD
ENCODING 9661
SWIDTH 600 0
DWIDTH 12 0
BBX 8 9 2 1
BITMAP
FF
FF
66
66
3C
3C
18
18
10
ENDCHAR
STARTCHAR uni25C0
ENCODING 9664
SWIDTH 600 0
DWIDTH 12 0
BBX 9 9 1 1
BITMAP
0080
0380
0F80
3F80
FF80
3F80
0F80
0380
0080
ENDCHAR
STARTCHAR uni25C1
ENCODING 9665
SWIDTH 600 0
DWIDTH 12 0
BBX 9 9 1 1
BITMAP
0080
0380
0F80
3D80
F180
3980
0F80
0380
0080
ENDCHAR
STARTCHAR uni25C6
ENCODING 9670
SWIDTH 600 0
DWIDTH 12 0
BBX 11 11 0 0
BITMAP
0400
0600
0F00
1F80
3FC0
FFE0
7FE0
3FC0
1F80
0F00
0600
ENDCHAR
STARTCHAR uni25C7
ENCODING 9671
SWIDTH 600 0
DWIDTH 12 0
BBX 11 11 0 0
BITMAP
0400
0600
0F00
1980
30C0
E060
70E0
39C0
1F80
0F00
0600
ENDCHAR
STARTCHAR lozenge
ENCODING 9674
SWIDTH 505 0
DWIDTH 10 0
BBX 10 13 0 0
BITMAP
0C00
0C00
1E00
3F00
3300
7380
E1C0
7380
3300
1F00
1E00
0C00
0400
ENDCHAR
STARTCHAR uniA78B
ENCODING 42891
SWIDTH 310 0
DWIDTH 6 0
BBX 4 8 1 6
BITMAP
F0
F0
F0
F0
F0
F0
F0
F0
ENDCHAR
STARTCHAR uniA78C
ENCODING 42892
SWIDTH 304 0
DWIDTH 6 0
BBX 4 8 1 6
BITMAP
F0
F0
F0
F0
F0
E0
E0
E0
ENDCHAR
STARTCHAR fi
ENCODING 64257
SWIDTH 709 0
DWIDTH 14 0
BBX 12 16 1 0
BITMAP
0060
1EF0
3EF0
7E60
7800
FEF0
FEF0
FEF0
78F0
78F0
78F0
78F0
78F0
78F0
78F0
78F0
ENDCHAR
STARTCHAR fl
ENCODING 64258
SWIDTH 742 0
DWIDTH 15 0
BBX 12 15 1 0
BITMAP
1E70
3E70
7E70
7870
FE70
FE70
FE70
7870
7870
7870
7870
7870
7870
7870
7870
ENDCHAR
STARTCHAR .notdef
ENCODING -1
SWIDTH 587 0
DWIDTH 12 0
BBX 10 14 1 0
BITMAP
FFC0
80C0
80C0
80C0
80C0
80C0
80C0
80C0
80C0
80C0
80C0
80C0
80C0
FFC0
ENDCHAR
STARTCHAR .null
ENCODING -1
SWIDTH 0 0
DWIDTH 0 0
BBX 1 1 0 0
BITMAP
00
ENDCHAR
STARTCHAR A.ss01
ENCODING -1
SWIDTH 753 0
DWIDTH 15 0
BBX 13 14 1 0
BITMAP
0F80
3FE0
7FF0
78F0
F078
F078
F078
F078
FFF8
FFF8
FFF8
F078
F078
F078
ENDCHAR
STARTCHAR Aacute.ss01
ENCODING -1
SWIDTH 753 0
DWIDTH 15 0
BBX 13 19 1 0
BITMAP
0100
03C0
0380
0700
0000
0F80
3FE0
7FF0
78F0
F078
F078
F078
F078
FFF8
FFF8
FFF8
F078
F078
F078
ENDCHAR
STARTCHAR Abreve.ss01
ENCODING -1
SWIDTH 753 0
DWIDTH 15 0
BBX 13 18 1 0
BITMAP
1DC0
0F80
0700
0000
0F80
3FE0
7FF0
78F0
F078
F078
F078
F078
FFF8
FFF8
FFF8
F078
F078
F078
ENDCHAR
STARTCHAR uni1EAE.ss01
ENCODING -1
SWIDTH 753 0
DWIDTH 15 0
BBX 13 21 1 0
BITMAP
0180
07C0
0600
18C0
0F80
0700
0000
0F80
3FE0
7FF0
78F0
F078
F078
F078
F078
FFF8
FFF8
FFF8
F078
F078
F078
ENDCHAR
STARTCHAR uni1EB6.ss01
ENCODING -1
SWIDTH 753 0
DWIDTH 15 0
BBX 13 23 1 -5
BITMAP
1DC0
0F80
0700
0000
0F80
3FE0
7FF0
78F0
F078
F078
F078
F078
FFF8
FFF8
FFF8
F078
F078
F078
0000
0700
0700
0700
0700
ENDCHAR
STARTCHAR uni1EB0.ss01
ENCODING -1
SWIDTH 753 0
DWIDTH 15 0
BBX 13 21 1 0
BITMAP
0C00
1E00
0700
1CC0
0FC0
0700
0000
0F80
3FE0
7FF0
78F0
F078
F078
F078
F078
FFF8
FFF8
FFF8
F078
F078
F078
ENDCHAR
STARTCHAR uni1EB2.ss01
ENCODING -1
SWIDTH 753 0
DWIDTH 15 0
BBX 13 22 1 0
BITMAP
0200
0F00
0300
0600
18C0
0F80
0700
0000
0F80
3FE0
7FF0
78F0
F078
F078
F078
F078
FFF8
FFF8
FFF8
F078
F078
F078
ENDCHAR
STARTCHAR uni1EB4.ss01
ENCODING -1
SWIDTH 753 0
DWIDTH 15 0
BBX 13 21 1 0
BITMAP
0FC0
1FC0
1980
18C0
0F80
0700
0000
0F80
3FE0
7FF0
78F0
F078
F078
F078
F078
FFF8
FFF8
FFF8
F078
F078
F078
ENDCHAR
STARTCHAR Acircumflex.ss01
ENCODING -1
SWIDTH 753 0
DWIDTH 15 0
BBX 13 18 1 0
BITMAP
0700
0F80
1DC0
0000
0F80
3FE0
7FF0
78F0
F078
F078
F078
F078
FFF8
FFF8
FFF8
F078
F078
F078
ENDCHAR
STARTCHAR uni1EA4.ss01
ENCODING -1
SWIDTH 753 0
DWIDTH 15 0
BBX 13 21 1 0
BITMAP
0180
07C0
0600
0000
0F80
1DC0
3DE0
0F80
3FE0
7FF0
78F0
F078
F078
F078
F078
FFF8
FFF8
FFF8
F078
F078
F078
ENDCHAR
STARTCHAR uni1EAC.ss01
ENCODING -1
SWIDTH 753 0
DWIDTH 15 0
BBX 13 23 1 -5
BITMAP
0700
0F80
1DC0
0000
0F80
3FE0
7FF0
78F0
F078
F078
F078
F078
FFF8
FFF8
FFF8
F078
F078
F078
0000
0700
0700
0700
0700
ENDCHAR
STARTCHAR uni1EA6.ss01
ENCODING -1
SWIDTH 753 0
DWIDTH 15 0
BBX 13 21 1 0
BITMAP
0C00
1E00
0700
0000
0F80
1DC0
3DE0
0F80
3FE0
7FF0
78F0
F078
F078
F078
F078
FFF8
FFF8
FFF8
F078
F078
F078
ENDCHAR
STARTCHAR uni1EA8.ss01
ENCODING -1
SWIDTH 753 0
DWIDTH 15 0
BBX 13 22 1 0
BITMAP
0200
0780
0380
0300
0000
0780
0FC0
1CE0
0F80
3FE0
7FF0
78F0
F078
F078
F078
F078
FFF8
FFF8
FFF8
F078
F078
F078
ENDCHAR
STARTCHAR uni1EAA.ss01
ENCODING -1
SWIDTH 753 0
DWIDTH 15 0
BBX 13 20 1 0
BITMAP
1FC0
1FC0
1980
0F80
1F80
39E0
0F80
3FE0
7FF0
78F0
F078
F078
F078
F078
FFF8
FFF8
FFF8
F078
F078
F078
ENDCHAR
STARTCHAR uni0200.ss01
ENCODING -1
SWIDTH 753 0
DWIDTH 15 0
BBX 13 19 1 0
BITMAP
0880
3B80
1D80
1DC0
0000
0F80
3FE0
7FF0
78F0
F078
F078
F078
F078
FFF8
FFF8
FFF8
F078
F078
F078
ENDCHAR
STARTCHAR Adieresis.alt
ENCODING -1
SWIDTH 773 0
DWIDTH 15 0
BBX 16 14 0 0
BITMAP
33DC
37DC
07E0
0FE0
0EF0
0EF0
1E70
1C78
3C38
3FFC
7FFC
7FFE
701E
F01F
ENDCHAR
STARTCHAR Adieresis.ss01
ENCODING -1
SWIDTH 753 0
DWIDTH 15 0
BBX 13 18 1 0
BITMAP
0DC0
1DC0
1DC0
0000
0F80
3FE0
7FF0
78F0
F078
F078
F078
F078
FFF8
FFF8
FFF8
F078
F078
F078
ENDCHAR
STARTCHAR uni1EA0.ss01
ENCODING -1
SWIDTH 753 0
DWIDTH 15 0
BBX 13 19 1 -5
BITMAP
0F80
3FE0
7FF0
78F0
F078
F078
F078
F078
FFF8
FFF8
FFF8
F078
F078
F078
0000
0700
0700
0700
0700
ENDCHAR
STARTCHAR Agrave.ss01
ENCODING -1
SWIDTH 753 0
DWIDTH 15 0
BBX 13 19 1 0
BITMAP
0200
1E00
0E00
0700
0000
0F80
3FE0
7FF0
78F0
F078
F078
F078
F078
FFF8
FFF8
FFF8
F078
F078
F078
ENDCHAR
STARTCHAR uni1EA2.ss01
ENCODING -1
SWIDTH 753 0
DWIDTH 15 0
BBX 13 20 1 0
BITMAP
0F00
0780
0380
0300
0100
0000
0F80
3FE0
7FF0
78F0
F078
F078
F078
F078
FFF8
FFF8
FFF8
F078
F078
F078
ENDCHAR
STARTCHAR uni0202.ss01
ENCODING -1
SWIDTH 753 0
DWIDTH 15 0
BBX 13 18 1 0
BITMAP
0780
0F80
1DC0
0000
0F80
3FE0
7FF0
78F0
F078
F078
F078
F078
FFF8
FFF8
FFF8
F078
F078
F078
ENDCHAR
STARTCHAR Amacron.ss01
ENCODING -1
SWIDTH 753 0
DWIDTH 15 0
BBX 13 17 1 0
BITMAP
1FC0
1FC0
0000
0F80
3FE0
7FF0
78F0
F078
F078
F078
F078
FFF8
FFF8
FFF8
F078
F078
F078
ENDCHAR
STARTCHAR Aogonek.ss01
ENCODING -1
SWIDTH 753 0
DWIDTH 15 0
BBX 13 19 1 -5
BITMAP
0F80
3FE0
7FF0
78F0
F078
F078
F078
F078
FFF8
FFF8
FFF8
F078
F078
F078
0070
00E0
00E0
00F0
0070
ENDCHAR
STARTCHAR Aring.ss01
ENCODING -1
SWIDTH 753 0
DWIDTH 15 0
BBX 13 20 1 0
BITMAP
0700
0D80
0D80
0F80
0700
0000
0F80
3FE0
7FF0
78F0
F078
F078
F078
F078
FFF8
FFF8
FFF8
F078
F078
F078
ENDCHAR
STARTCHAR Aringacute.ss01
ENCODING -1
SWIDTH 753 0
DWIDTH 15 0
BBX 13 23 1 0
BITMAP
0180
07C0
0600
0700
0D80
0D80
0F80
0700
0000
0F80
3FE0
7FF0
78F0
F078
F078
F078
F078
FFF8
FFF8
FFF8
F078
F078
F078
ENDCHAR
STARTCHAR Atilde.ss01
ENCODING -1
SWIDTH 753 0
DWIDTH 15 0
BBX 13 18 1 0
BITMAP
0CC0
1FC0
19C0
0000
0F80
3FE0
7FF0
78F0
F078
F078
F078
F078
FFF8
FFF8
FFF8
F078
F078
F078
ENDCHAR
STARTCHAR uni01C4.ss01
ENCODING -1
SWIDTH 1442 0
DWIDTH 29 0
BBX 27 18 1 0
BITMAP
00007380
00003F00
00001E00
00000000
FF81FFE0
FFE1FFE0
FFF1FFE0
F0F803C0
F0780780
F03CFF80
F03CFFC0
F03CFFC0
F03C3FC0
F0787800
F078F000
FFF1FFE0
FFE1FFE0
FF81FFE0
ENDCHAR
STARTCHAR uni01C5.ss01
ENCODING -1
SWIDTH 1321 0
DWIDTH 26 0
BBX 25 15 1 0
BITMAP
0000E700
FF807E00
FFE03C00
FFF00000
F0F9FF80
F079FF80
F03DFF00
F03C1E00
F03CFF00
F03CFF00
F0787800
F078F000
FFF1FF80
FFE1FF80
FF81FF80
ENDCHAR
STARTCHAR E.ss01
ENCODING -1
SWIDTH 641 0
DWIDTH 13 0
BBX 12 14 1 0
BITMAP
1FC0
7FE0
FFC0
F040
7000
7F80
3F80
7F80
F000
E000
F060
FFE0
7FF0
3F80
ENDCHAR
STARTCHAR Eacute.ss01
ENCODING -1
SWIDTH 641 0
DWIDTH 13 0
BBX 12 19 1 0
BITMAP
0200
03C0
0700
0E00
0000
1FC0
7FE0
FFC0
F040
7000
7F80
3F80
7F80
F000
E000
F060
FFE0
7FF0
3F80
ENDCHAR
STARTCHAR Ebreve.ss01
ENCODING -1
SWIDTH 641 0
DWIDTH 13 0
BBX 12 18 1 0
BITMAP
1980
1F80
0F00
0000
1FC0
7FE0
FFC0
F040
7000
7F80
3F80
7F80
F000
E000
F060
FFE0
7FF0
3F80
ENDCHAR
STARTCHAR Ecaron.ss01
ENCODING -1
SWIDTH 641 0
DWIDTH 13 0
BBX 12 18 1 0
BITMAP
39C0
1F00
0F00
0000
1FC0
7FE0
FFC0
F040
7000
7F80
3F80
7F80
F000
E000
F060
FFE0
7FF0
3F80
ENDCHAR
STARTCHAR uni1E1C.ss01
ENCODING -1
SWIDTH 641 0
DWIDTH 13 0
BBX 12 23 1 -5
BITMAP
3B80
1F00
0E00
0000
1FC0
7FE0
FFC0
F040
7000
7F80
3F80
7F80
F000
E000
F060
FFE0
7FF0
3FC0
0600
0F00
0300
0F00
0E00
ENDCHAR
STARTCHAR Ecircumflex.ss01
ENCODING -1
SWIDTH 641 0
DWIDTH 13 0
BBX 12 18 1 0
BITMAP
0F00
1F80
39C0
0000
1FC0
7FE0
FFC0
F040
7000
7F80
3F80
7F80
F000
E000
F060
FFE0
7FF0
3F80
ENDCHAR
STARTCHAR uni1EBE.ss01
ENCODING -1
SWIDTH 641 0
DWIDTH 13 0
BBX 12 21 1 0
BITMAP
0300
0780
0E00
0000
0F00
1F80
39C0
1FC0
7FE0
FFC0
F040
7000
7F80
3F80
7F80
F000
E000
F060
FFE0
7FF0
3F80
ENDCHAR
STARTCHAR uni1EC6.ss01
ENCODING -1
SWIDTH 641 0
DWIDTH 13 0
BBX 12 23 1 -5
BITMAP
0F00
1F00
39C0
0000
1FC0
7FE0
FFC0
F040
7000
7F80
3F80
7F80
F000
E000
F060
FFE0
7FF0
3F80
0000
0600
0F00
0F00
0600
ENDCHAR
STARTCHAR uni1EC0.ss01
ENCODING -1
SWIDTH 641 0
DWIDTH 13 0
BBX 12 21 1 0
BITMAP
0C00
3E00
0700
0000
0F00
1F80
39C0
1FC0
7FE0
FFC0
F040
7000
7F80
3F80
7F80
F000
E000
F060
FFE0
7FF0
3F80
ENDCHAR
STARTCHAR uni1EC2.ss01
ENCODING -1
SWIDTH 641 0
DWIDTH 13 0
BBX 12 22 1 0
BITMAP
0200
0F00
0300
0600
0000
0F80
1F80
39C0
1FC0
7FE0
FFC0
F040
7000
7F80
3F80
7F80
F000
E000
F060
FFE0
7FF0
3F80
ENDCHAR
STARTCHAR uni1EC4.ss01
ENCODING -1
SWIDTH 641 0
DWIDTH 13 0
BBX 12 20 1 0
BITMAP
1F80
3F80
3380
0F00
1F80
39C0
1FC0
7FE0
FFC0
F040
7000
7F80
3F80
7F80
F000
E000
F060
FFE0
7FF0
3F80
ENDCHAR
STARTCHAR uni0204.ss01
ENCODING -1
SWIDTH 641 0
DWIDTH 13 0
BBX 12 19 1 0
BITMAP
1100
7F00
3B80
1DC0
0000
1FC0
7FE0
FFC0
F040
7000
7F80
3F80
7F80
F000
E000
F060
FFE0
7FF0
3F80
ENDCHAR
STARTCHAR Edieresis.ss01
ENCODING -1
SWIDTH 641 0
DWIDTH 13 0
BBX 12 18 1 0
BITMAP
1980
1F80
1980
0000
1FC0
7FE0
FFC0
F040
7000
7F80
3F80
7F80
F000
E000
F060
FFE0
7FF0
3F80
ENDCHAR
STARTCHAR Edotaccent.ss01
ENCODING -1
SWIDTH 641 0
DWIDTH 13 0
BBX 12 19 1 0
BITMAP
0600
0F00
0F00
0600
0000
1FC0
7FE0
FFC0
F040
7000
7F80
3F80
7F80
F000
E000
F060
FFE0
7FF0
3F80
ENDCHAR
STARTCHAR uni1EB8.ss01
ENCODING -1
SWIDTH 641 0
DWIDTH 13 0
BBX 12 19 1 -5
BITMAP
1FC0
7FE0
FFC0
F040
7000
7F80
3F80
7F80
F000
E000
F060
FFE0
7FF0
3F80
0000
0600
0F00
0F00
0600
ENDCHAR
STARTCHAR Egrave.ss01
ENCODING -1
SWIDTH 641 0
DWIDTH 13 0
BBX 12 19 1 0
BITMAP
0400
1C00
0E00
0700
0000
1FC0
7FE0
FFC0
F040
7000
7F80
3F80
7F80
F000
E000
F060
FFE0
7FF0
3F80
ENDCHAR
STARTCHAR uni1EBA.ss01
ENCODING -1
SWIDTH 641 0
DWIDTH 13 0
BBX 12 20 1 0
BITMAP
0F00
0F00
0300
0700
0200
0000
1FC0
7FE0
FFC0
F040
7000
7F80
3F80
7F80
F000
E000
F060
FFE0
7FF0
3F80
ENDCHAR
STARTCHAR uni0206.ss01
ENCODING -1
SWIDTH 641 0
DWIDTH 13 0
BBX 12 18 1 0
BITMAP
0F00
1F80
1980
0000
1FC0
7FE0
FFC0
F040
7000
7F80
3F80
7F80
F000
E000
F060
FFE0
7FF0
3F80
ENDCHAR
STARTCHAR Emacron.ss01
ENCODING -1
SWIDTH 641 0
DWIDTH 13 0
BBX 12 17 1 0
BITMAP
1F80
1F80
0000
1FC0
7FE0
FFC0
F040
7000
7F80
3F80
7F80
F000
E000
F060
FFE0
7FF0
3F80
ENDCHAR
STARTCHAR uni1E16.ss01
ENCODING -1
SWIDTH 641 0
DWIDTH 13 0
BBX 12 21 1 0
BITMAP
0300
0780
0E00
0000
1F80
1F80
0000
1FC0
7FE0
FFC0
F040
7000
7F80
3F80
7F80
F000
E000
F060
FFE0
7FF0
3F80
ENDCHAR
STARTCHAR uni1E14.ss01
ENCODING -1
SWIDTH 641 0
DWIDTH 13 0
BBX 12 21 1 0
BITMAP
0C00
1E00
0700
0000
1F80
1F80
0000
1FC0
7FE0
FFC0
F040
7000
7F80
3F80
7F80
F000
E000
F060
FFE0
7FF0
3F80
ENDCHAR
STARTCHAR Eogonek.ss01
ENCODING -1
SWIDTH 641 0
DWIDTH 13 0
BBX 12 18 1 -4
BITMAP
1FC0
7FE0
FFC0
F040
7000
7F80
3F80
7F80
F000
E000
F060
FFE0
7FF0
3FE0
00C0
01C0
01E0
00E0
ENDCHAR
STARTCHAR uni1EBC.ss01
ENCODING -1
SWIDTH 641 0
DWIDTH 13 0
BBX 12 18 1 0
BITMAP
1CC0
1FC0
1B80
2000
1FC0
7FE0
FFC0
F040
7000
7F80
3F80
7F80
F000
E000
F060
FFE0
7FF0
3F80
ENDCHAR
STARTCHAR F.ss01
ENCODING -1
SWIDTH 559 0
DWIDTH 11 0
BBX 10 14 1 0
BITMAP
1F80
7FC0
7FC0
F040
F000
F000
FF80
FF80
FF80
F000
F000
F000
F000
F000
ENDCHAR
STARTCHAR G.ss01
ENCODING -1
SWIDTH 743 0
DWIDTH 15 0
BBX 14 14 0 0
BITMAP
07E0
1FF8
3FFC
7C18
7810
7000
F000
F01C
701C
781C
7C3C
3FFC
1FFC
07DC
ENDCHAR
STARTCHAR Gbreve.ss01
ENCODING -1
SWIDTH 743 0
DWIDTH 15 0
BBX 14 18 0 0
BITMAP
0660
07E0
03C0
0000
07E0
1FF8
3FFC
7C18
7810
7000
F000
F01C
701C
781C
7C3C
3FFC
1FFC
07DC
ENDCHAR
STARTCHAR Gcaron.ss01
ENCODING -1
SWIDTH 743 0
DWIDTH 15 0
BBX 14 18 0 0
BITMAP
0EE0
07C0
03C0
0000
07E0
1FF8
3FFC
7C18
7810
7000
F000
F01C
701C
781C
7C3C
3FFC
1FFC
07DC
ENDCHAR
STARTCHAR Gcircumflex.ss01
ENCODING -1
SWIDTH 743 0
DWIDTH 15 0
BBX 14 18 0 0
BITMAP
03C0
07C0
0E70
0000
07E0
1FF8
3FFC
7C18
7810
7000
F000
F01C
701C
781C
7C3C
3FFC
1FFC
07DC
ENDCHAR
STARTCHAR Gcommaaccent.ss01
ENCODING -1
SWIDTH 743 0
DWIDTH 15 0
BBX 14 19 0 -5
BITMAP
07E0
1FF8
3FFC
7C18
7810
7000
F000
F01C
701C
781C
7C3C
3FFC
1FFC
07DC
0000
0380
0380
0300
0300
ENDCHAR
STARTCHAR Gdotaccent.ss01
ENCODING -1
SWIDTH 743 0
DWIDTH 15 0
BBX 14 19 0 0
BITMAP
0180
03C0
03C0
0180
0000
07E0
1FF8
3FFC
7C18
7810
7000
F000
F01C
701C
781C
7C3C
3FFC
1FFC
07DC
ENDCHAR
STARTCHAR uni1E20.ss01
ENCODING -1
SWIDTH 743 0
DWIDTH 15 0
BBX 14 17 0 0
BITMAP
0FE0
0FE0
0000
07E0
1FF8
3FFC
7C18
7810
7000
F000
F01C
701C
781C
7C3C
3FFC
1FFC
07DC
ENDCHAR
STARTCHAR I.ss01
ENCODING -1
SWIDTH 507 0
DWIDTH 10 0
BBX 8 14 1 0
BITMAP
FF
FF
FF
3C
3C
3C
3C
3C
3C
3C
3C
FF
FF
FF
ENDCHAR
STARTCHAR IJ.ss01
ENCODING -1
SWIDTH 1046 0
DWIDTH 21 0
BBX 19 16 1 -2
BITMAP
FF3FE0
FF3FE0
FF3FE0
3C01E0
3C01E0
3C01E0
3C01E0
3C01E0
3C01E0
3C01E0
3C01E0
FF21E0
FF31E0
FF7FC0
003FC0
000F00
ENDCHAR
STARTCHAR Iacute.ss01
ENCODING -1
SWIDTH 507 0
DWIDTH 10 0
BBX 8 19 1 0
BITMAP
08
0F
1C
38
00
FF
FF
FF
3C
3C
3C
3C
3C
3C
3C
3C
FF
FF
FF
ENDCHAR
STARTCHAR Iacute_J.loclNLD
ENCODING -1
SWIDTH 858 0
DWIDTH 17 0
BBX 15 19 1 0
BITMAP
2010
3C1C
7838
E070
0000
F1FE
F1FE
F1FE
F01E
F01E
F01E
F01E
F01E
F01E
F01E
F31E
F7FE
F3FC
F1F8
ENDCHAR
STARTCHAR Iacute_J.loclNLD.ss01
ENCODING -1
SWIDTH 1046 0
DWIDTH 21 0
BBX 19 21 1 -2
BITMAP
080100
0F03C0
1C0380
380700
000000
FF3FE0
FF3FE0
FF3FE0
3C01E0
3C01E0
3C01E0
3C01E0
3C01E0
3C01E0
3C01E0
3C01E0
FF21E0
FF31E0
FF7FC0
003FC0
000F00
ENDCHAR
STARTCHAR Ibreve.ss01
ENCODING -1
SWIDTH 507 0
DWIDTH 10 0
BBX 8 18 1 0
BITMAP
66
7E
3C
00
FF
FF
FF
3C
3C
3C
3C
3C
3C
3C
3C
FF
FF
FF
ENDCHAR
STARTCHAR Icircumflex.ss01
ENCODING -1
SWIDTH 507 0
DWIDTH 10 0
BBX 8 18 1 0
BITMAP
3C
7E
E7
00
FF
FF
FF
3C
3C
3C
3C
3C
3C
3C
3C
FF
FF
FF
ENDCHAR
STARTCHAR uni0208.ss01
ENCODING -1
SWIDTH 507 0
DWIDTH 10 0
BBX 9 19 0 0
BITMAP
1200
FF00
7700
3B80
0000
7F80
7F80
7F80
1E00
1E00
1E00
1E00
1E00
1E00
1E00
1E00
7F80
7F80
7F80
ENDCHAR
STARTCHAR Idieresis.ss01
ENCODING -1
SWIDTH 507 0
DWIDTH 10 0
BBX 8 18 1 0
BITMAP
66
7F
66
00
FF
FF
FF
3C
3C
3C
3C
3C
3C
3C
3C
FF
FF
FF
ENDCHAR
STARTCHAR uni1E2E.ss01
ENCODING -1
SWIDTH 507 0
DWIDTH 10 0
BBX 8 22 1 0
BITMAP
0C
1E
38
00
66
7F
66
00
FF
FF
FF
3C
3C
3C
3C
3C
3C
3C
3C
FF
FF
FF
ENDCHAR
STARTCHAR Idotaccent.ss01
ENCODING -1
SWIDTH 507 0
DWIDTH 10 0
BBX 8 19 1 0
BITMAP
18
3C
3C
18
00
FF
FF
FF
3C
3C
3C
3C
3C
3C
3C
3C
FF
FF
FF
ENDCHAR
STARTCHAR uni1ECA.ss01
ENCODING -1
SWIDTH 507 0
DWIDTH 10 0
BBX 8 19 1 -5
BITMAP
FF
FF
FF
3C
3C
3C
3C
3C
3C
3C
3C
FF
FF
FF
00
18
3C
3C
18
ENDCHAR
STARTCHAR Igrave.ss01
ENCODING -1
SWIDTH 507 0
DWIDTH 10 0
BBX 8 19 1 0
BITMAP
10
70
38
1C
00
FF
FF
FF
3C
3C
3C
3C
3C
3C
3C
3C
FF
FF
FF
ENDCHAR
STARTCHAR uni1EC8.ss01
ENCODING -1
SWIDTH 507 0
DWIDTH 10 0
BBX 8 20 1 0
BITMAP
3C
3C
0C
1C
08
00
FF
FF
FF
3C
3C
3C
3C
3C
3C
3C
3C
FF
FF
FF
ENDCHAR
STARTCHAR uni020A.ss01
ENCODING -1
SWIDTH 507 0
DWIDTH 10 0
BBX 8 18 1 0
BITMAP
3C
7E
66
00
FF
FF
FF
3C
3C
3C
3C
3C
3C
3C
3C
FF
FF
FF
ENDCHAR
STARTCHAR Imacron.ss01
ENCODING -1
SWIDTH 507 0
DWIDTH 10 0
BBX 8 17 1 0
BITMAP
7F
7F
00
FF
FF
FF
3C
3C
3C
3C
3C
3C
3C
3C
FF
FF
FF
ENDCHAR
STARTCHAR Iogonek.ss01
ENCODING -1
SWIDTH 507 0
DWIDTH 10 0
BBX 8 19 1 -5
BITMAP
FF
FF
FF
3C
3C
3C
3C
3C
3C
3C
3C
FF
FF
FF
38
70
70
78
38
ENDCHAR
STARTCHAR Itilde.ss01
ENCODING -1
SWIDTH 507 0
DWIDTH 10 0
BBX 8 18 1 0
BITMAP
73
7F
6E
00
FF
FF
FF
3C
3C
3C
3C
3C
3C
3C
3C
FF
FF
FF
ENDCHAR
STARTCHAR J.ss01
ENCODING -1
SWIDTH 539 0
DWIDTH 11 0
BBX 10 16 0 -2
BITMAP
7FC0
7FC0
7FC0
03C0
03C0
03C0
03C0
03C0
03C0
03C0
03C0
43C0
63C0
FF80
7F00
3E00
ENDCHAR
STARTCHAR Jacute
ENCODING -1
SWIDTH 539 0
DWIDTH 11 0
BBX 10 19 0 0
BITMAP
0400
0780
0F00
0E00
0000
7FC0
7FC0
7FC0
03C0
03C0
03C0
03C0
03C0
03C0
03C0
63C0
FF80
FF80
3E00
ENDCHAR
STARTCHAR Jacute.ss01
ENCODING -1
SWIDTH 539 0
DWIDTH 11 0
BBX 10 21 0 -2
BITMAP
0200
0780
0700
0E00
0000
7FC0
7FC0
7FC0
03C0
03C0
03C0
03C0
03C0
03C0
03C0
03C0
43C0
63C0
FF80
7F00
3E00
ENDCHAR
STARTCHAR Jcircumflex.ss01
ENCODING -1
SWIDTH 539 0
DWIDTH 11 0
BBX 10 20 0 -2
BITMAP
0E00
1F00
3B80
0000
7FC0
7FC0
7FC0
03C0
03C0
03C0
03C0
03C0
03C0
03C0
03C0
43C0
63C0
FF80
7F00
3E00
ENDCHAR
STARTCHAR uni01C7.ss01
ENCODING -1
SWIDTH 1102 0
DWIDTH 22 0
BBX 20 16 1 -2
BITMAP
F01FF0
F01FF0
F01FF0
F000F0
F000F0
F000F0
F000F0
F000F0
F000F0
F000F0
F000F0
FFD0F0
FFD8F0
FFFFE0
001FE0
000780
ENDCHAR
STARTCHAR M.ss01
ENCODING -1
SWIDTH 1175 0
DWIDTH 24 0
BBX 21 14 1 0
BITMAP
F3C3E0
FFF7F0
FFFFF8
F8FC78
F07838
F07838
F07838
F07838
F07838
F07838
F07838
F07838
F07838
F07838
ENDCHAR
STARTCHAR uni1E42.ss01
ENCODING -1
SWIDTH 1175 0
DWIDTH 24 0
BBX 21 19 1 -5
BITMAP
F3C3E0
FFF7F0
FFFFF8
F8FC78
F07838
F07838
F07838
F07838
F07838
F07838
F07838
F07838
F07838
F07838
000000
003000
007800
007800
003000
ENDCHAR
STARTCHAR N.ss01
ENCODING -1
SWIDTH 764 0
DWIDTH 15 0
BBX 13 14 1 0
BITMAP
F3E0
FFF0
FFF8
F878
F078
F078
F078
F078
F078
F078
F078
F078
F078
F078
ENDCHAR
STARTCHAR uni01CA.ss01
ENCODING -1
SWIDTH 1303 0
DWIDTH 26 0
BBX 24 16 1 -2
BITMAP
F3E1FF
FFF1FF
FFF9FF
F8780F
F0780F
F0780F
F0780F
F0780F
F0780F
F0780F
F0780F
F0790F
F0798F
F07BFE
0001FE
000078
ENDCHAR
STARTCHAR Nacute.ss01
ENCODING -1
SWIDTH 764 0
DWIDTH 15 0
BBX 13 19 1 0
BITMAP
0100
01E0
03C0
0700
0000
F3E0
FFF0
FFF8
F878
F078
F078
F078
F078
F078
F078
F078
F078
F078
F078
ENDCHAR
STARTCHAR Ncaron.ss01
ENCODING -1
SWIDTH 764 0
DWIDTH 15 0
BBX 13 18 1 0
BITMAP
1CE0
0FC0
0780
0000
F3E0
FFF0
FFF8
F878
F078
F078
F078
F078
F078
F078
F078
F078
F078
F078
ENDCHAR
STARTCHAR Ncommaaccent.ss01
ENCODING -1
SWIDTH 764 0
DWIDTH 15 0
BBX 13 19 1 -5
BITMAP
F3E0
FFF0
FFF8
F878
F078
F078
F078
F078
F078
F078
F078
F078
F078
F078
0000
0700
0700
0600
0600
ENDCHAR
STARTCHAR uni1E44.ss01
ENCODING -1
SWIDTH 764 0
DWIDTH 15 0
BBX 13 19 1 0
BITMAP
0380
0780
0780
0380
0000
F3E0
FFF0
FFF8
F878
F078
F078
F078
F078
F078
F078
F078
F078
F078
F078
ENDCHAR
STARTCHAR uni1E46.ss01
ENCODING -1
SWIDTH 764 0
DWIDTH 15 0
BBX 13 19 1 -5
BITMAP
F3E0
FFF0
FFF8
F878
F078
F078
F078
F078
F078
F078
F078
F078
F078
F078
0000
0700
0700
0780
0700
ENDCHAR
STARTCHAR Eng.ss01
ENCODING -1
SWIDTH 765 0
DWIDTH 15 0
BBX 13 18 1 -4
BITMAP
F3E0
FFF0
FFF8
F878
F078
F078
F078
F078
F078
F078
F078
F078
F078
F078
0478
07F8
07F0
03E0
ENDCHAR
STARTCHAR uni01CB.ss01
ENCODING -1
SWIDTH 1077 0
DWIDTH 22 0
BBX 19 20 1 -4
BITMAP
0000E0
0000E0
F3E0E0
FFF0E0
FFF800
F878E0
F078E0
F078E0
F078E0
F078E0
F078E0
F078E0
F078E0
F078E0
F078E0
F078E0
0000E0
0003E0
0007E0
0007C0
ENDCHAR
STARTCHAR uni1E48.ss01
ENCODING -1
SWIDTH 764 0
DWIDTH 15 0
BBX 13 18 1 -4
BITMAP
F3E0
FFF0
FFF8
F878
F078
F078
F078
F078
F078
F078
F078
F078
F078
F078
0000
0000
0FC0
0FC0
ENDCHAR
STARTCHAR Ntilde.ss01
ENCODING -1
SWIDTH 764 0
DWIDTH 15 0
BBX 13 18 1 0
BITMAP
0660
0FE0
0DC0
0000
F3E0
FFF0
FFF8
F878
F078
F078
F078
F078
F078
F078
F078
F078
F078
F078
ENDCHAR
STARTCHAR Q.ss01
ENCODING -1
SWIDTH 804 0
DWIDTH 16 0
BBX 16 16 0 -2
BITMAP
07E0
1FF8
3FFC
7C3E
781E
700E
F00F
F00F
798E
799E
7DBE
3FFC
1FF8
07E0
0180
0180
ENDCHAR
STARTCHAR uni018F.ss01
ENCODING -1
SWIDTH 773 0
DWIDTH 15 0
BBX 15 14 0 0
BITMAP
0FC0
1FF0
3FF8
1C3C
083C
007E
03FE
0FDE
FF1E
781C
7C3C
3FF8
1FF0
07C0
ENDCHAR
STARTCHAR T.ss01
ENCODING -1
SWIDTH 687 0
DWIDTH 14 0
BBX 13 14 0 0
BITMAP
1FC0
FFF8
7FF8
77B8
0780
0780
0780
0780
0780
0780
0780
0780
0780
0780
ENDCHAR
STARTCHAR Tbar.ss01
ENCODING -1
SWIDTH 687 0
DWIDTH 14 0
BBX 13 14 0 0
BITMAP
1FC0
FFF8
7FF8
77B8
0780
0780
0780
3FE0
3FE0
0780
0780
0780
0780
0780
ENDCHAR
STARTCHAR Tcaron.ss01
ENCODING -1
SWIDTH 687 0
DWIDTH 14 0
BBX 13 18 0 0
BITMAP
1DC0
0F80
0780
0000
1FC0
FFF8
7FF8
77B8
0780
0780
0780
0780
0780
0780
0780
0780
0780
0780
ENDCHAR
STARTCHAR uni0162.ss01
ENCODING -1
SWIDTH 687 0
DWIDTH 14 0
BBX 13 19 0 -5
BITMAP
1FC0
FFF8
7FF8
77B8
0780
0780
0780
0780
0780
0780
0780
0780
0780
0780
0300
0700
0180
0780
0F00
ENDCHAR
STARTCHAR uni021A.ss01
ENCODING -1
SWIDTH 687 0
DWIDTH 14 0
BBX 13 19 0 -5
BITMAP
1FC0
FFF8
7FF8
77B8
0780
0780
0780
0780
0780
0780
0780
0780
0780
0780
0000
0700
0700
0600
0600
ENDCHAR
STARTCHAR uni1E6C.ss01
ENCODING -1
SWIDTH 687 0
DWIDTH 14 0
BBX 13 19 0 -5
BITMAP
1FC0
FFF8
7FF8
77B8
0780
0780
0780
0780
0780
0780
0780
0780
0780
0780
0000
0700
0780
0780
0700
ENDCHAR
STARTCHAR uni1E6E.ss01
ENCODING -1
SWIDTH 687 0
DWIDTH 14 0
BBX 13 18 0 -4
BITMAP
1FC0
FFF8
7FF8
77B8
0780
0780
0780
0780
0780
0780
0780
0780
0780
0780
0000
0000
0FC0
0FC0
ENDCHAR
STARTCHAR U.ss01
ENCODING -1
SWIDTH 764 0
DWIDTH 15 0
BBX 13 14 1 0
BITMAP
F078
F078
F078
F078
F078
F078
F078
F078
F078
F078
F8F8
7FF8
7FF8
1E78
ENDCHAR
STARTCHAR Uacute.ss01
ENCODING -1
SWIDTH 764 0
DWIDTH 15 0
BBX 13 19 1 0
BITMAP
0100
01C0
0380
0700
0000
F078
F078
F078
F078
F078
F078
F078
F078
F078
F078
F8F8
7FF8
7FF8
1E78
ENDCHAR
STARTCHAR Ubreve.ss01
ENCODING -1
SWIDTH 764 0
DWIDTH 15 0
BBX 13 18 1 0
BITMAP
1DC0
0F80
0780
0000
F078
F078
F078
F078
F078
F078
F078
F078
F078
F078
F8F8
7FF8
7FF8
1E78
ENDCHAR
STARTCHAR Ucircumflex.ss01
ENCODING -1
SWIDTH 764 0
DWIDTH 15 0
BBX 13 18 1 0
BITMAP
0780
0F80
1DC0
0000
F078
F078
F078
F078
F078
F078
F078
F078
F078
F078
F8F8
7FF8
7FF8
1E78
ENDCHAR
STARTCHAR uni0214.ss01
ENCODING -1
SWIDTH 764 0
DWIDTH 15 0
BBX 13 19 1 0
BITMAP
0880
3B80
1DC0
1DC0
0000
F078
F078
F078
F078
F078
F078
F078
F078
F078
F078
F8F8
7FF8
7FF8
1E78
ENDCHAR
STARTCHAR Udieresis.alt
ENCODING -1
SWIDTH 749 0
DWIDTH 15 0
BBX 13 14 1 0
BITMAP
F778
F778
F078
F278
F778
F678
F078
F078
F078
F078
78F0
7FF0
3FE0
1FC0
ENDCHAR
STARTCHAR Udieresis.ss01
ENCODING -1
SWIDTH 764 0
DWIDTH 15 0
BBX 13 18 1 0
BITMAP
0CC0
1DC0
0DC0
0000
F078
F078
F078
F078
F078
F078
F078
F078
F078
F078
F8F8
7FF8
7FF8
1E78
ENDCHAR
STARTCHAR Udieresis.ss01.alt
ENCODING -1
SWIDTH 764 0
DWIDTH 15 0
BBX 13 14 1 0
BITMAP
F778
F778
F078
F278
F778
F778
F078
F078
F078
F078
F8F8
7FF8
7FF8
3F78
ENDCHAR
STARTCHAR uni1EE4.ss01
ENCODING -1
SWIDTH 764 0
DWIDTH 15 0
BBX 13 19 1 -5
BITMAP
F078
F078
F078
F078
F078
F078
F078
F078
F078
F078
F8F8
7FF8
7FF8
1E78
0000
0700
0700
0780
0700
ENDCHAR
STARTCHAR Ugrave.ss01
ENCODING -1
SWIDTH 764 0
DWIDTH 15 0
BBX 13 19 1 0
BITMAP
0200
1E00
0F00
0700
0000
F078
F078
F078
F078
F078
F078
F078
F078
F078
F078
F8F8
7FF8
7FF8
1E78
ENDCHAR
STARTCHAR uni1EE6.ss01
ENCODING -1
SWIDTH 764 0
DWIDTH 15 0
BBX 13 20 1 0
BITMAP
0F00
0780
0180
0300
0100
0000
F078
F078
F078
F078
F078
F078
F078
F078
F078
F078
F8F8
7FF8
7FF8
1E78
ENDCHAR
STARTCHAR Uhorn.ss01
ENCODING -1
SWIDTH 804 0
DWIDTH 16 0
BBX 15 17 1 0
BITMAP
000A
0006
0006
F07E
F07C
F078
F078
F078
F078
F078
F078
F078
F078
F8F8
7FF8
7FF8
1E78
ENDCHAR
STARTCHAR uni1EE8.ss01
ENCODING -1
SWIDTH 804 0
DWIDTH 16 0
BBX 15 19 1 0
BITMAP
0100
01C0
038A
0706
0006
F07E
F07C
F078
F078
F078
F078
F078
F078
F078
F078
F8F8
7FF8
7FF8
1E78
ENDCHAR
STARTCHAR uni1EF0.ss01
ENCODING -1
SWIDTH 803 0
DWIDTH 16 0
BBX 15 22 1 -5
BITMAP
000A
0006
0006
F07E
F07C
F078
F078
F078
F078
F078
F078
F078
F078
F8F8
7FF8
7FF8
1E78
0000
0700
0700
0780
0700
ENDCHAR
STARTCHAR uni1EEA.ss01
ENCODING -1
SWIDTH 804 0
DWIDTH 16 0
BBX 15 19 1 0
BITMAP
0200
1E00
0E0A
0706
0006
F07E
F07C
F078
F078
F078
F078
F078
F078
F078
F078
F8F8
7FF8
7FF8
1E78
ENDCHAR
STARTCHAR uni1EEC.ss01
ENCODING -1
SWIDTH 804 0
DWIDTH 16 0
BBX 15 20 1 0
BITMAP
0F00
0780
0180
030A
0106
0006
F07E
F07C
F078
F078
F078
F078
F078
F078
F078
F078
F8F8
7FF8
7FF8
1E78
ENDCHAR
STARTCHAR uni1EEE.ss01
ENCODING -1
SWIDTH 804 0
DWIDTH 16 0
BBX 15 18 1 0
BITMAP
0CC0
1FCA
19C6
0006
F07E
F07C
F078
F078
F078
F078
F078
F078
F078
F078
F8F8
7FF8
7FF8
1E78
ENDCHAR
STARTCHAR Uhungarumlaut.ss01
ENCODING -1
SWIDTH 764 0
DWIDTH 15 0
BBX 13 19 1 0
BITMAP
0880
0EE0
0EE0
1DC0
0000
F078
F078
F078
F078
F078
F078
F078
F078
F078
F078
F8F8
7FF8
7FF8
1E78
ENDCHAR
STARTCHAR uni0216.ss01
ENCODING -1
SWIDTH 764 0
DWIDTH 15 0
BBX 13 18 1 0
BITMAP
0780
0FC0
1CC0
0000
F078
F078
F078
F078
F078
F078
F078
F078
F078
F078
F8F8
7FF8
7FF8
1E78
ENDCHAR
STARTCHAR Umacron.ss01
ENCODING -1
SWIDTH 764 0
DWIDTH 15 0
BBX 13 17 1 0
BITMAP
1FC0
1FC0
0000
F078
F078
F078
F078
F078
F078
F078
F078
F078
F078
F8F8
7FF8
7FF8
1E78
ENDCHAR
STARTCHAR uni1E7A.ss01
ENCODING -1
SWIDTH 764 0
DWIDTH 15 0
BBX 13 21 1 0
BITMAP
1980
1FC0
1980
0000
1F80
1F80
0000
F078
F078
F078
F078
F078
F078
F078
F078
F078
F078
F8F8
7FF8
7FF8
1E78
ENDCHAR
STARTCHAR Uogonek.ss01
ENCODING -1
SWIDTH 764 0
DWIDTH 15 0
BBX 13 18 1 -4
BITMAP
F078
F078
F078
F078
F078
F078
F078
F078
F078
F078
F8F8
7FF8
7FF8
1E78
0060
00E0
00F0
00F0
ENDCHAR
STARTCHAR Uring.ss01
ENCODING -1
SWIDTH 764 0
DWIDTH 15 0
BBX 13 20 1 0
BITMAP
0700
0D80
0C80
0F80
0700
0000
F078
F078
F078
F078
F078
F078
F078
F078
F078
F078
F8F8
7FF8
7FF8
1E78
ENDCHAR
STARTCHAR Utilde.ss01
ENCODING -1
SWIDTH 764 0
DWIDTH 15 0
BBX 13 18 1 0
BITMAP
0CC0
1FC0
19C0
0000
F078
F078
F078
F078
F078
F078
F078
F078
F078
F078
F8F8
7FF8
7FF8
1E78
ENDCHAR
STARTCHAR uni1E78.ss01
ENCODING -1
SWIDTH 764 0
DWIDTH 15 0
BBX 13 22 1 0
BITMAP
0180
03C0
0700
0000
0000
0FC0
1FC0
1980
F078
F078
F078
F078
F078
F078
F078
F078
F078
F078
F8F8
7FF8
7FF8
1E78
ENDCHAR
STARTCHAR W.ss01
ENCODING -1
SWIDTH 1150 0
DWIDTH 23 0
BBX 21 14 1 0
BITMAP
F07078
F07078
F07078
F07078
F07078
F07078
F07078
F07078
F07078
F07078
F8F8F8
7FFFF0
3FDFE0
1F07C0
ENDCHAR
STARTCHAR Wacute.ss01
ENCODING -1
SWIDTH 1150 0
DWIDTH 23 0
BBX 21 19 1 0
BITMAP
001000
003C00
003800
007000
000000
F07078
F07078
F07078
F07078
F07078
F07078
F07078
F07078
F07078
F07078
F8F8F8
7FFFF0
3FDFE0
1F07C0
ENDCHAR
STARTCHAR Wcircumflex.ss01
ENCODING -1
SWIDTH 1150 0
DWIDTH 23 0
BBX 21 18 1 0
BITMAP
007000
00F800
01DC00
000000
F07078
F07078
F07078
F07078
F07078
F07078
F07078
F07078
F07078
F07078
F8F8F8
7FFFF0
3FDFE0
1F07C0
ENDCHAR
STARTCHAR Wdieresis.ss01
ENCODING -1
SWIDTH 1150 0
DWIDTH 23 0
BBX 21 18 1 0
BITMAP
00D800
01DC00
01DC00
000000
F07078
F07078
F07078
F07078
F07078
F07078
F07078
F07078
F07078
F07078
F8F8F8
7FFFF0
3FDFE0
1F07C0
ENDCHAR
STARTCHAR Wgrave.ss01
ENCODING -1
SWIDTH 1150 0
DWIDTH 23 0
BBX 21 19 1 0
BITMAP
004000
01E000
00E000
007000
000000
F07078
F07078
F07078
F07078
F07078
F07078
F07078
F07078
F07078
F07078
F8F8F8
7FFFF0
3FDFE0
1F07C0
ENDCHAR
STARTCHAR Y.ss01
ENCODING -1
SWIDTH 743 0
DWIDTH 15 0
BBX 13 16 1 -2
BITMAP
F078
F078
F078
F078
F078
F078
F078
F8F8
7FF8
3FF8
1E78
0078
60F0
7FF0
FFE0
1F80
ENDCHAR
STARTCHAR Yacute.ss01
ENCODING -1
SWIDTH 743 0
DWIDTH 15 0
BBX 13 21 1 -2
BITMAP
0100
03C0
0380
0700
0000
F078
F078
F078
F078
F078
F078
F078
F8F8
7FF8
3FF8
1E78
0078
60F0
7FF0
FFE0
1F80
ENDCHAR
STARTCHAR Ycircumflex.ss01
ENCODING -1
SWIDTH 743 0
DWIDTH 15 0
BBX 13 20 1 -2
BITMAP
0700
0F80
1DC0
0000
F078
F078
F078
F078
F078
F078
F078
F8F8
7FF8
3FF8
1E78
0078
60F0
7FF0
FFE0
1F80
ENDCHAR
STARTCHAR Ydieresis.ss01
ENCODING -1
SWIDTH 743 0
DWIDTH 15 0
BBX 13 20 1 -2
BITMAP
1D80
1DC0
1DC0
0000
F078
F078
F078
F078
F078
F078
F078
F8F8
7FF8
3FF8
1E78
0078
60F0
7FF0
FFE0
1F80
ENDCHAR
STARTCHAR uni1E8E.ss01
ENCODING -1
SWIDTH 743 0
DWIDTH 15 0
BBX 13 21 1 -2
BITMAP
0700
0700
0700
0700
0000
F078
F078
F078
F078
F078
F078
F078
F8F8
7FF8
3FF8
1E78
0078
60F0
7FF0
FFE0
1F80
ENDCHAR
STARTCHAR uni1EF4.ss01
ENCODING -1
SWIDTH 743 0
DWIDTH 15 0
BBX 13 21 1 -7
BITMAP
F078
F078
F078
F078
F078
F078
F078
F8F8
7FF8
3FF8
1E78
0078
60F0
7FF0
FFE0
1F80
0000
0700
0700
0700
0700
ENDCHAR
STARTCHAR Ygrave.ss01
ENCODING -1
SWIDTH 743 0
DWIDTH 15 0
BBX 13 21 1 -2
BITMAP
0400
1E00
0E00
0700
0000
F078
F078
F078
F078
F078
F078
F078
F8F8
7FF8
3FF8
1E78
0078
60F0
7FF0
FFE0
1F80
ENDCHAR
STARTCHAR uni1EF6.ss01
ENCODING -1
SWIDTH 743 0
DWIDTH 15 0
BBX 13 22 1 -2
BITMAP
0F00
0780
0380
0300
0600
0000
F078
F078
F078
F078
F078
F078
F078
F8F8
7FF8
3FF8
1E78
0078
60F0
7FF0
FFE0
1F80
ENDCHAR
STARTCHAR uni0232.ss01
ENCODING -1
SWIDTH 743 0
DWIDTH 15 0
BBX 13 19 1 -2
BITMAP
1FC0
1FC0
0000
F078
F078
F078
F078
F078
F078
F078
F8F8
7FF8
3FF8
1E78
0078
60F0
7FF0
FFE0
1F80
ENDCHAR
STARTCHAR uni1EF8.ss01
ENCODING -1
SWIDTH 743 0
DWIDTH 15 0
BBX 13 20 1 -2
BITMAP
0CC0
1FC0
1980
0000
F078
F078
F078
F078
F078
F078
F078
F8F8
7FF8
3FF8
1E78
0078
60F0
7FF0
FFE0
1F80
ENDCHAR
STARTCHAR Z.ss01
ENCODING -1
SWIDTH 676 0
DWIDTH 14 0
BBX 12 14 1 0
BITMAP
FFF0
FFF0
FFF0
03E0
07C0
7F80
7FE0
7FE0
3FE0
7C00
7800
FFF0
FFF0
FFF0
ENDCHAR
STARTCHAR Zacute.ss01
ENCODING -1
SWIDTH 676 0
DWIDTH 14 0
BBX 12 19 1 0
BITMAP
0200
0380
0700
0E00
0000
FFF0
FFF0
FFF0
03E0
07C0
7F80
7FE0
7FE0
3FE0
7C00
7800
FFF0
FFF0
FFF0
ENDCHAR
STARTCHAR Zcaron.ss01
ENCODING -1
SWIDTH 676 0
DWIDTH 14 0
BBX 12 18 1 0
BITMAP
3B80
1F00
0F00
0000
FFF0
FFF0
FFF0
03E0
07C0
7F80
7FE0
7FE0
3FE0
7C00
7800
FFF0
FFF0
FFF0
ENDCHAR
STARTCHAR Zdotaccent.ss01
ENCODING -1
SWIDTH 676 0
DWIDTH 14 0
BBX 12 19 1 0
BITMAP
0600
0F00
0F00
0600
0000
FFF0
FFF0
FFF0
03E0
07C0
7F80
7FE0
7FE0
3FE0
7C00
7800
FFF0
FFF0
FFF0
ENDCHAR
STARTCHAR uni1E92.ss01
ENCODING -1
SWIDTH 676 0
DWIDTH 14 0
BBX 12 19 1 -5
BITMAP
FFF0
FFF0
FFF0
03E0
07C0
7F80
7FE0
7FE0
3FE0
7C00
7800
FFF0
FFF0
FFF0
0000
0E00
0F00
0F00
0E00
ENDCHAR
STARTCHAR a.ss01
ENCODING -1
SWIDTH 681 0
DWIDTH 14 0
BBX 12 11 0 0
BITMAP
1F70
3FF0
7FF0
78F0
7070
F070
7070
78F0
7FF0
3FF0
1F70
ENDCHAR
STARTCHAR aacute.ss01
ENCODING -1
SWIDTH 681 0
DWIDTH 14 0
BBX 12 15 0 0
BITMAP
01C0
0380
0700
0000
1F70
3FF0
7FF0
78F0
7070
F070
7070
78F0
7FF0
3FF0
1F70
ENDCHAR
STARTCHAR abreve.ss01
ENCODING -1
SWIDTH 681 0
DWIDTH 14 0
BBX 12 15 0 0
BITMAP
0CC0
0FC0
0780
0000
1F70
3FF0
7FF0
78F0
7070
F070
7070
78F0
7FF0
3FF0
1F70
ENDCHAR
STARTCHAR uni1EAF.ss01
ENCODING -1
SWIDTH 681 0
DWIDTH 14 0
BBX 12 18 0 0
BITMAP
0180
03C0
0700
0CC0
0FC0
0780
0000
1F70
3FF0
7FF0
78F0
7070
F070
7070
78F0
7FF0
3FF0
1F70
ENDCHAR
STARTCHAR uni1EB7.ss01
ENCODING -1
SWIDTH 681 0
DWIDTH 14 0
BBX 12 20 0 -5
BITMAP
1DC0
0F80
0780
0000
1F70
3FF0
7FF0
78F0
7070
F070
7070
78F0
7FF0
3FF0
1F70
0000
0700
0700
0780
0700
ENDCHAR
STARTCHAR uni1EB1.ss01
ENCODING -1
SWIDTH 681 0
DWIDTH 14 0
BBX 12 18 0 0
BITMAP
0600
1F00
0380
0CC0
0FC0
0780
0000
1F70
3FF0
7FF0
78F0
7070
F070
7070
78F0
7FF0
3FF0
1F70
ENDCHAR
STARTCHAR uni1EB3.ss01
ENCODING -1
SWIDTH 681 0
DWIDTH 14 0
BBX 12 19 0 0
BITMAP
0200
0780
0180
0300
0CC0
0FC0
0780
0000
1F70
3FF0
7FF0
78F0
7070
F070
7070
78F0
7FF0
3FF0
1F70
ENDCHAR
STARTCHAR uni1EB5.ss01
ENCODING -1
SWIDTH 681 0
DWIDTH 14 0
BBX 12 18 0 0
BITMAP
0FC0
1FC0
19C0
1CC0
0FC0
0780
0000
1F70
3FF0
7FF0
78F0
7070
F070
7070
78F0
7FF0
3FF0
1F70
ENDCHAR
STARTCHAR acircumflex.ss01
ENCODING -1
SWIDTH 681 0
DWIDTH 14 0
BBX 12 15 0 0
BITMAP
0780
0F80
1CE0
0000
1F70
3FF0
7FF0
78F0
7070
F070
7070
78F0
7FF0
3FF0
1F70
ENDCHAR
STARTCHAR uni1EA5.ss01
ENCODING -1
SWIDTH 681 0
DWIDTH 14 0
BBX 12 18 0 0
BITMAP
0180
03C0
0700
0000
0780
0FC0
1CE0
1F70
3FF0
7FF0
78F0
7070
F070
7070
78F0
7FF0
3FF0
1F70
ENDCHAR
STARTCHAR uni1EAD.ss01
ENCODING -1
SWIDTH 681 0
DWIDTH 14 0
BBX 12 20 0 -5
BITMAP
0700
0F80
1DC0
0000
1F70
3FF0
7FF0
78F0
7070
F070
7070
78F0
7FF0
3FF0
1F70
0000
0700
0700
0780
0700
ENDCHAR
STARTCHAR uni1EA7.ss01
ENCODING -1
SWIDTH 681 0
DWIDTH 14 0
BBX 12 18 0 0
BITMAP
0600
1F00
0380
0000
0780
0FC0
1CE0
1F70
3FF0
7FF0
78F0
7070
F070
7070
78F0
7FF0
3FF0
1F70
ENDCHAR
STARTCHAR uni1EA9.ss01
ENCODING -1
SWIDTH 681 0
DWIDTH 14 0
BBX 12 19 0 0
BITMAP
0200
0780
0180
0300
0000
0780
0FC0
1CE0
1F70
3FF0
7FF0
78F0
7070
F070
7070
78F0
7FF0
3FF0
1F70
ENDCHAR
STARTCHAR uni1EAB.ss01
ENCODING -1
SWIDTH 681 0
DWIDTH 14 0
BBX 12 17 0 0
BITMAP
0FC0
1FC0
19C0
0780
0FC0
1CE0
1F70
3FF0
7FF0
78F0
7070
F070
7070
78F0
7FF0
3FF0
1F70
ENDCHAR
STARTCHAR uni0201.ss01
ENCODING -1
SWIDTH 681 0
DWIDTH 14 0
BBX 12 16 0 0
BITMAP
0880
3B80
1DC0
0CC0
0000
1F70
3FF0
7FF0
78F0
7070
F070
7070
78F0
7FF0
3FF0
1F70
ENDCHAR
STARTCHAR adieresis.ss01
ENCODING -1
SWIDTH 681 0
DWIDTH 14 0
BBX 12 15 0 0
BITMAP
0CC0
1DC0
0CC0
0000
1F70
3FF0
7FF0
78F0
7070
F070
7070
78F0
7FF0
3FF0
1F70
ENDCHAR
STARTCHAR uni1EA1.ss01
ENCODING -1
SWIDTH 681 0
DWIDTH 14 0
BBX 12 16 0 -5
BITMAP
1F70
3FF0
7FF0
78F0
7070
F070
7070
78F0
7FF0
3FF0
1F70
0000
0700
0700
0780
0700
ENDCHAR
STARTCHAR agrave.ss01
ENCODING -1
SWIDTH 681 0
DWIDTH 14 0
BBX 12 15 0 0
BITMAP
1E00
0F00
0380
0000
1F70
3FF0
7FF0
78F0
7070
F070
7070
78F0
7FF0
3FF0
1F70
ENDCHAR
STARTCHAR uni1EA3.ss01
ENCODING -1
SWIDTH 681 0
DWIDTH 14 0
BBX 12 16 0 0
BITMAP
0780
0780
0180
0380
0100
1F70
3FF0
7FF0
78F0
7070
F070
7070
78F0
7FF0
3FF0
1F70
ENDCHAR
STARTCHAR uni0203.ss01
ENCODING -1
SWIDTH 681 0
DWIDTH 14 0
BBX 12 15 0 0
BITMAP
0780
0FC0
0CC0
0000
1F70
3FF0
7FF0
78F0
7070
F070
7070
78F0
7FF0
3FF0
1F70
ENDCHAR
STARTCHAR amacron.ss01
ENCODING -1
SWIDTH 681 0
DWIDTH 14 0
BBX 12 15 0 0
BITMAP
0FC0
0FC0
0000
0000
1F70
3FF0
7FF0
78F0
7070
F070
7070
78F0
7FF0
3FF0
1F70
ENDCHAR
STARTCHAR aogonek.ss01
ENCODING -1
SWIDTH 681 0
DWIDTH 14 0
BBX 12 15 0 -4
BITMAP
1F70
3FF0
7FF0
78F0
7070
F070
7070
78F0
7FF0
3FF0
1F70
00E0
00C0
01E0
00F0
ENDCHAR
STARTCHAR aring.ss01
ENCODING -1
SWIDTH 681 0
DWIDTH 14 0
BBX 12 17 0 0
BITMAP
0700
0480
0480
0780
0700
0000
1F70
3FF0
7FF0
78F0
7070
F070
7070
78F0
7FF0
3FF0
1F70
ENDCHAR
STARTCHAR aringacute.ss01
ENCODING -1
SWIDTH 681 0
DWIDTH 14 0
BBX 12 20 0 0
BITMAP
0180
03C0
0700
0700
0480
0480
0780
0700
0000
1F70
3FF0
7FF0
78F0
7070
F070
7070
78F0
7FF0
3FF0
1F70
ENDCHAR
STARTCHAR atilde.ss01
ENCODING -1
SWIDTH 681 0
DWIDTH 14 0
BBX 12 15 0 0
BITMAP
0E60
0FC0
19C0
0000
1F70
3FF0
7FF0
78F0
7070
F070
7070
78F0
7FF0
3FF0
1F70
ENDCHAR
STARTCHAR ae.ss01
ENCODING -1
SWIDTH 958 0
DWIDTH 19 0
BBX 18 11 1 0
BITMAP
3F3E00
FFFF00
7FFF80
03E3C0
7FDFC0
FFFE00
E1E000
E3E100
FFFF80
FE7F00
7C3E00
ENDCHAR
STARTCHAR aeacute.ss01
ENCODING -1
SWIDTH 958 0
DWIDTH 19 0
BBX 18 15 1 0
BITMAP
00F000
00E000
01C000
000000
3F3E00
FFFF00
7FFF80
03E3C0
7FDFC0
FFFE00
E1E000
E3E100
FFFF80
FE7F00
7C3E00
ENDCHAR
STARTCHAR uni01C6.ss01
ENCODING -1
SWIDTH 1241 0
DWIDTH 25 0
BBX 24 15 0 0
BITMAP
0070EE
00707C
007078
007000
1F71FF
3FF1FF
7FF1FF
78F01E
7071FE
F071FE
7070F0
78F1E0
7FF1FF
3FF3FF
1F73FF
ENDCHAR
STARTCHAR e.ss01
ENCODING -1
SWIDTH 596 0
DWIDTH 12 0
BBX 12 11 0 0
BITMAP
0F80
3FC0
7FE0
78E0
71F0
FFC0
7C00
7840
7FE0
3FC0
0F80
ENDCHAR
STARTCHAR eacute.ss01
ENCODING -1
SWIDTH 596 0
DWIDTH 12 0
BBX 12 15 0 0
BITMAP
03C0
0780
0E00
0000
0F80
3FC0
7FE0
78E0
71F0
FFC0
7C00
7840
7FE0
3FC0
0F80
ENDCHAR
STARTCHAR ebreve.ss01
ENCODING -1
SWIDTH 596 0
DWIDTH 12 0
BBX 12 15 0 0
BITMAP
1980
1F80
0F00
0000
0F80
3FC0
7FE0
78E0
71F0
FFC0
7C00
7840
7FE0
3FC0
0F80
ENDCHAR
STARTCHAR ecaron.ss01
ENCODING -1
SWIDTH 596 0
DWIDTH 12 0
BBX 12 15 0 0
BITMAP
39C0
1F80
0F00
0000
0F80
3FC0
7FE0
78E0
71F0
FFC0
7C00
7840
7FE0
3FC0
0F80
ENDCHAR
STARTCHAR uni1E1D.ss01
ENCODING -1
SWIDTH 596 0
DWIDTH 12 0
BBX 12 20 0 -5
BITMAP
1980
1F80
0F00
0000
0F80
3FC0
7FE0
78E0
71E0
FFF0
7F00
7040
78C0
3FE0
1FC0
0600
0600
0380
0F80
0F00
ENDCHAR
STARTCHAR ecircumflex.ss01
ENCODING -1
SWIDTH 596 0
DWIDTH 12 0
BBX 12 15 0 0
BITMAP
0F00
0F80
39C0
0000
0F80
3FC0
7FE0
78E0
71F0
FFC0
7C00
7840
7FE0
3FC0
0F80
ENDCHAR
STARTCHAR uni1EBF.ss01
ENCODING -1
SWIDTH 596 0
DWIDTH 12 0
BBX 12 18 0 0
BITMAP
0300
0780
0E00
0000
0F00
1F80
39C0
0F80
3FC0
7FE0
78E0
71F0
FFC0
7C00
7840
7FE0
3FC0
0F80
ENDCHAR
STARTCHAR uni1EC7.ss01
ENCODING -1
SWIDTH 596 0
DWIDTH 12 0
BBX 12 20 0 -5
BITMAP
0F00
0F80
3DC0
0000
0F80
3FC0
7FE0
78E0
71F0
FFC0
7C00
7840
7FE0
3FC0
0F80
0000
0700
0F00
0F00
0600
ENDCHAR
STARTCHAR uni1EC1.ss01
ENCODING -1
SWIDTH 596 0
DWIDTH 12 0
BBX 12 18 0 0
BITMAP
0C00
1E00
0700
0000
0F00
1F80
39C0
0F80
3FC0
7FE0
78E0
71F0
FFC0
7C00
7840
7FE0
3FC0
0F80
ENDCHAR
STARTCHAR uni1EC3.ss01
ENCODING -1
SWIDTH 596 0
DWIDTH 12 0
BBX 12 19 0 0
BITMAP
0600
0F00
0300
0600
0000
0F00
1F80
39C0
0F80
3FC0
7FE0
78E0
71F0
FFC0
7C00
7840
7FE0
3FC0
0F80
ENDCHAR
STARTCHAR uni1EC5.ss01
ENCODING -1
SWIDTH 596 0
DWIDTH 12 0
BBX 12 17 0 0
BITMAP
1FC0
1F80
1380
0F00
1F80
39C0
0F80
3FC0
7FE0
78E0
71F0
FFC0
7C00
7840
7FE0
3FC0
0F80
ENDCHAR
STARTCHAR uni0205.ss01
ENCODING -1
SWIDTH 596 0
DWIDTH 12 0
BBX 12 16 0 0
BITMAP
0880
7F80
3B80
1DC0
0000
0F80
3FC0
7FE0
78E0
71F0
FFC0
7C00
7840
7FE0
3FC0
0F80
ENDCHAR
STARTCHAR edieresis.ss01
ENCODING -1
SWIDTH 596 0
DWIDTH 12 0
BBX 12 15 0 0
BITMAP
1980
1DC0
1980
0000
0F80
3FC0
7FE0
78E0
71F0
FFC0
7C00
7840
7FE0
3FC0
0F80
ENDCHAR
STARTCHAR edotaccent.ss01
ENCODING -1
SWIDTH 596 0
DWIDTH 12 0
BBX 12 16 0 0
BITMAP
0600
0F00
0F00
0600
0000
0F80
3FC0
7FE0
78E0
71F0
FFC0
7C00
7840
7FE0
3FC0
0F80
ENDCHAR
STARTCHAR uni1EB9.ss01
ENCODING -1
SWIDTH 596 0
DWIDTH 12 0
BBX 12 16 0 -5
BITMAP
0F80
3FC0
7FE0
78E0
71F0
FFC0
7C00
7840
7FE0
3FC0
0F80
0000
0700
0F00
0F00
0600
ENDCHAR
STARTCHAR egrave.ss01
ENCODING -1
SWIDTH 596 0
DWIDTH 12 0
BBX 12 15 0 0
BITMAP
1C00
0E00
0700
0000
0F80
3FC0
7FE0
78E0
71F0
FFC0
7C00
7840
7FE0
3FC0
0F80
ENDCHAR
STARTCHAR uni1EBB.ss01
ENCODING -1
SWIDTH 596 0
DWIDTH 12 0
BBX 12 16 0 0
BITMAP
0F00
0F00
0300
0700
0200
0F80
3FC0
7FE0
78E0
71F0
FFC0
7C00
7840
7FE0
3FC0
0F80
ENDCHAR
STARTCHAR uni0207.ss01
ENCODING -1
SWIDTH 596 0
DWIDTH 12 0
BBX 12 15 0 0
BITMAP
0F00
1F80
1980
0000
0F80
3FC0
7FE0
78E0
71F0
FFC0
7C00
7840
7FE0
3FC0
0F80
ENDCHAR
STARTCHAR emacron.ss01
ENCODING -1
SWIDTH 596 0
DWIDTH 12 0
BBX 12 15 0 0
BITMAP
1F80
1F80
0000
0000
0F80
3FC0
7FE0
78E0
71F0
FFC0
7C00
7840
7FE0
3FC0
0F80
ENDCHAR
STARTCHAR uni1E17.ss01
ENCODING -1
SWIDTH 596 0
DWIDTH 12 0
BBX 12 18 0 0
BITMAP
0300
0780
0E00
0000
1F80
1F80
0000
0F80
3FC0
7FE0
78E0
71F0
FFC0
7C00
7840
7FE0
3FC0
0F80
ENDCHAR
STARTCHAR uni1E15.ss01
ENCODING -1
SWIDTH 596 0
DWIDTH 12 0
BBX 12 18 0 0
BITMAP
1800
3E00
0700
0000
1F80
1F80
0000
0F80
3FC0
7FE0
78E0
71F0
FFC0
7C00
7840
7FE0
3FC0
0F80
ENDCHAR
STARTCHAR eogonek.ss01
ENCODING -1
SWIDTH 596 0
DWIDTH 12 0
BBX 12 15 0 -4
BITMAP
0F80
3FC0
7FE0
78E0
71F0
FFC0
7C00
7840
7FE0
3FC0
0F80
0180
0380
03C0
03C0
ENDCHAR
STARTCHAR uni1EBD.ss01
ENCODING -1
SWIDTH 596 0
DWIDTH 12 0
BBX 12 15 0 0
BITMAP
1CC0
1FC0
1B80
0000
0F80
3FC0
7FE0
78E0
71F0
FFC0
7C00
7840
7FE0
3FC0
0F80
ENDCHAR
STARTCHAR uni0259.ss01
ENCODING -1
SWIDTH 596 0
DWIDTH 12 0
BBX 11 11 0 0
BITMAP
1F00
7FC0
7FE0
21E0
03E0
3FE0
FCE0
71E0
7FE0
3FC0
1F00
ENDCHAR
STARTCHAR f.orig
ENCODING -1
SWIDTH 390 0
DWIDTH 8 0
BBX 8 15 1 0
BITMAP
1F
3F
7E
78
78
FE
FE
78
78
78
78
78
78
78
78
ENDCHAR
STARTCHAR f.ss01
ENCODING -1
SWIDTH 355 0
DWIDTH 7 0
BBX 7 15 1 0
BITMAP
3E
7C
FC
F0
FC
FC
FC
F0
F0
F0
F0
F0
F0
F0
F0
ENDCHAR
STARTCHAR iacute_j.loclNLD
ENCODING -1
SWIDTH 628 0
DWIDTH 13 0
BBX 12 19 1 -4
BITMAP
3CF0
78E0
E1C0
0000
F1C0
F1C0
F1C0
F1C0
F1C0
F1C0
F1C0
F1C0
F1C0
F1C0
F1C0
01C0
07C0
0FC0
0F80
ENDCHAR
STARTCHAR i.loclTRK
ENCODING -1
SWIDTH 313 0
DWIDTH 6 0
BBX 4 16 1 0
BITMAP
60
F0
F0
60
00
F0
F0
F0
F0
F0
F0
F0
F0
F0
F0
F0
ENDCHAR
STARTCHAR uni0237.orig
ENCODING -1
SWIDTH 312 0
DWIDTH 6 0
BBX 7 15 -2 -4
BITMAP
1E
1E
1E
1E
1E
1E
1E
1E
1E
1E
1E
1E
7E
FC
78
ENDCHAR
STARTCHAR jacute
ENCODING -1
SWIDTH 312 0
DWIDTH 6 0
BBX 8 19 -1 -4
BITMAP
0F
1E
38
00
3C
3C
3C
3C
3C
3C
3C
3C
3C
3C
3C
3C
FC
F8
F0
ENDCHAR
STARTCHAR l.ss01
ENCODING -1
SWIDTH 346 0
DWIDTH 7 0
BBX 6 15 1 0
BITMAP
F0
F0
F0
F0
F0
F0
F0
F0
F0
F0
F0
F0
FC
7C
3C
ENDCHAR
STARTCHAR lacute.ss01
ENCODING -1
SWIDTH 346 0
DWIDTH 7 0
BBX 6 19 1 0
BITMAP
38
70
E0
00
F0
F0
F0
F0
F0
F0
F0
F0
F0
F0
F0
F0
FC
7C
3C
ENDCHAR
STARTCHAR lcaron.ss01
ENCODING -1
SWIDTH 419 0
DWIDTH 8 0
BBX 8 15 1 0
BITMAP
F7
F7
F7
F6
F0
F0
F0
F0
F0
F0
F0
F0
FC
7C
3C
ENDCHAR
STARTCHAR lcommaaccent.ss01
ENCODING -1
SWIDTH 346 0
DWIDTH 7 0
BBX 6 20 1 -5
BITMAP
F0
F0
F0
F0
F0
F0
F0
F0
F0
F0
F0
F0
FC
7C
3C
00
38
30
70
60
ENDCHAR
STARTCHAR ldot.ss01
ENCODING -1
SWIDTH 435 0
DWIDTH 9 0
BBX 8 15 1 0
BITMAP
F0
F0
F0
F0
F0
F7
F7
FF
F7
F0
F0
F0
FC
7C
3C
ENDCHAR
STARTCHAR uni1E37.ss01
ENCODING -1
SWIDTH 346 0
DWIDTH 7 0
BBX 6 20 1 -5
BITMAP
F0
F0
F0
F0
F0
F0
F0
F0
F0
F0
F0
F0
FC
7C
3C
00
38
78
78
38
ENDCHAR
STARTCHAR uni01C9.ss01
ENCODING -1
SWIDTH 658 0
DWIDTH 13 0
BBX 11 20 1 -4
BITMAP
00C0
F1E0
F1E0
F0C0
F000
F1E0
F1E0
F1E0
F1E0
F1E0
F1E0
F1E0
F1E0
FDE0
7DE0
3DE0
01E0
07E0
07C0
0780
ENDCHAR
STARTCHAR uni1E3B.ss01
ENCODING -1
SWIDTH 346 0
DWIDTH 7 0
BBX 6 19 1 -4
BITMAP
F0
F0
F0
F0
F0
F0
F0
F0
F0
F0
F0
F0
FC
7C
3C
00
00
FC
FC
ENDCHAR
STARTCHAR lslash.ss01
ENCODING -1
SWIDTH 422 0
DWIDTH 8 0
BBX 8 15 0 0
BITMAP
3C
3C
3C
3C
3D
3F
3E
3C
FC
FC
3C
3C
3F
1F
0F
ENDCHAR
STARTCHAR oe.ss01
ENCODING -1
SWIDTH 1009 0
DWIDTH 20 0
BBX 20 11 0 0
BITMAP
0F8F80
3FDFC0
7FFFE0
78F8F0
7073F0
F07FC0
707800
78F840
7FFFF0
3FDFE0
0F8F80
ENDCHAR
STARTCHAR t.ss01
ENCODING -1
SWIDTH 401 0
DWIDTH 8 0
BBX 7 14 1 0
BITMAP
F0
F0
F0
FC
FC
FC
F0
F0
F0
F0
F0
FC
7C
3E
ENDCHAR
STARTCHAR tbar.ss01
ENCODING -1
SWIDTH 401 0
DWIDTH 8 0
BBX 7 14 1 0
BITMAP
F0
F0
F0
F0
FC
FC
F0
FE
FE
F0
F0
FC
7C
3E
ENDCHAR
STARTCHAR tcaron.ss01
ENCODING -1
SWIDTH 401 0
DWIDTH 8 0
BBX 7 15 1 0
BITMAP
06
F6
F6
F0
FC
FC
FC
F0
F0
F0
F0
F0
FC
7C
3E
ENDCHAR
STARTCHAR uni0163.ss01
ENCODING -1
SWIDTH 401 0
DWIDTH 8 0
BBX 7 18 1 -5
BITMAP
F0
F0
F0
FC
FC
FC
F0
F0
F0
F0
F4
FC
7E
18
38
0C
3C
78
ENDCHAR
STARTCHAR uni021B.ss01
ENCODING -1
SWIDTH 401 0
DWIDTH 8 0
BBX 7 19 1 -5
BITMAP
F0
F0
F0
FC
FC
FC
F0
F0
F0
F0
F0
FC
7C
3E
00
38
38
30
30
ENDCHAR
STARTCHAR uni1E97.ss01
ENCODING -1
SWIDTH 401 0
DWIDTH 8 0
BBX 8 17 0 0
BITMAP
CC
EE
CC
78
78
78
7E
7E
7E
78
78
78
78
78
7E
3E
1F
ENDCHAR
STARTCHAR uni1E6D.ss01
ENCODING -1
SWIDTH 401 0
DWIDTH 8 0
BBX 7 19 1 -5
BITMAP
F0
F0
F0
FC
FC
FC
F0
F0
F0
F0
F0
FC
7C
3E
00
38
3C
3C
38
ENDCHAR
STARTCHAR uni1E6F.ss01
ENCODING -1
SWIDTH 401 0
DWIDTH 8 0
BBX 7 18 1 -4
BITMAP
F0
F0
F0
FC
FC
FC
F0
F0
F0
F0
F0
FC
7C
3E
00
00
7E
7E
ENDCHAR
STARTCHAR w.ss01
ENCODING -1
SWIDTH 980 0
DWIDTH 20 0
BBX 18 11 1 0
BITMAP
F1E3C0
F1E3C0
F1E3C0
F1E3C0
F1E3C0
F1E3C0
F1E3C0
F1E380
7FFF80
7F7F00
3E1E00
ENDCHAR
STARTCHAR wacute.ss01
ENCODING -1
SWIDTH 980 0
DWIDTH 20 0
BBX 18 15 1 0
BITMAP
007000
00E000
01C000
000000
F1E3C0
F1E3C0
F1E3C0
F1E3C0
F1E3C0
F1E3C0
F1E3C0
F1E380
7FFF80
7F7F00
3E1E00
ENDCHAR
STARTCHAR wcircumflex.ss01
ENCODING -1
SWIDTH 980 0
DWIDTH 20 0
BBX 18 15 1 0
BITMAP
01E000
03E000
073800
000000
F1E3C0
F1E3C0
F1E3C0
F1E3C0
F1E3C0
F1E3C0
F1E3C0
F1E380
7FFF80
7F7F00
3E1E00
ENDCHAR
STARTCHAR wdieresis.ss01
ENCODING -1
SWIDTH 980 0
DWIDTH 20 0
BBX 18 15 1 0
BITMAP
033000
077000
033000
000000
F1E3C0
F1E3C0
F1E3C0
F1E3C0
F1E3C0
F1E3C0
F1E3C0
F1E380
7FFF80
7F7F00
3E1E00
ENDCHAR
STARTCHAR wgrave.ss01
ENCODING -1
SWIDTH 980 0
DWIDTH 20 0
BBX 18 15 1 0
BITMAP
078000
03C000
01C000
000000
F1E3C0
F1E3C0
F1E3C0
F1E3C0
F1E3C0
F1E3C0
F1E3C0
F1E380
7FFF80
7F7F00
3E1E00
ENDCHAR
STARTCHAR y.ss01
ENCODING -1
SWIDTH 667 0
DWIDTH 13 0
BBX 11 15 1 -4
BITMAP
F0E0
F0E0
F0E0
F0E0
F0E0
F1E0
F1E0
FFE0
7EE0
3CE0
01E0
41E0
7FC0
FFC0
3F00
ENDCHAR
STARTCHAR yacute.ss01
ENCODING -1
SWIDTH 667 0
DWIDTH 13 0
BBX 11 19 1 -4
BITMAP
0780
0700
0E00
0000
F0E0
F0E0
F0E0
F0E0
F0E0
F1E0
F1E0
FFE0
7EE0
3CE0
01E0
41E0
7FC0
FFC0
3F00
ENDCHAR
STARTCHAR ycircumflex.ss01
ENCODING -1
SWIDTH 667 0
DWIDTH 13 0
BBX 11 19 1 -4
BITMAP
0E00
1F00
3B80
0000
F0E0
F0E0
F0E0
F0E0
F0E0
F1E0
F1E0
FFE0
7EE0
3CE0
01E0
41E0
7FC0
FFC0
3F00
ENDCHAR
STARTCHAR ydieresis.ss01
ENCODING -1
SWIDTH 667 0
DWIDTH 13 0
BBX 11 19 1 -4
BITMAP
1B80
3B80
3B80
0000
F0E0
F0E0
F0E0
F0E0
F0E0
F1E0
F1E0
FFE0
7EE0
3CE0
01E0
41E0
7FC0
FFC0
3F00
ENDCHAR
STARTCHAR uni1EF5.ss01
ENCODING -1
SWIDTH 667 0
DWIDTH 13 0
BBX 11 20 1 -9
BITMAP
F0E0
F0E0
F0E0
F0E0
F0E0
F1E0
F1E0
FFE0
7EE0
3CE0
01E0
41E0
7FC0
FFC0
3F00
0000
0C00
1E00
1E00
0C00
ENDCHAR
STARTCHAR ygrave.ss01
ENCODING -1
SWIDTH 667 0
DWIDTH 13 0
BBX 11 19 1 -4
BITMAP
3C00
1C00
0E00
0000
F0E0
F0E0
F0E0
F0E0
F0E0
F1E0
F1E0
FFE0
7EE0
3CE0
01E0
41E0
7FC0
FFC0
3F00
ENDCHAR
STARTCHAR uni1EF7.ss01
ENCODING -1
SWIDTH 667 0
DWIDTH 13 0
BBX 11 20 1 -4
BITMAP
1E00
0F00
0300
0600
0200
F0E0
F0E0
F0E0
F0E0
F0E0
F1E0
F1E0
FFE0
7EE0
3CE0
01E0
41E0
7FC0
FFC0
3F00
ENDCHAR
STARTCHAR uni0233.ss01
ENCODING -1
SWIDTH 667 0
DWIDTH 13 0
BBX 11 19 1 -4
BITMAP
3F80
3F80
0000
0000
F0E0
F0E0
F0E0
F0E0
F0E0
F1E0
F1E0
FFE0
7EE0
3CE0
01E0
41E0
7FC0
FFC0
3F00
ENDCHAR
STARTCHAR uni1EF9.ss01
ENCODING -1
SWIDTH 667 0
DWIDTH 13 0
BBX 11 19 1 -4
BITMAP
1980
3F80
3380
0000
F0E0
F0E0
F0E0
F0E0
F0E0
F1E0
F1E0
FFE0
7EE0
3CE0
01E0
41E0
7FC0
FFC0
3F00
ENDCHAR
STARTCHAR z.ss01
ENCODING -1
SWIDTH 555 0
DWIDTH 11 0
BBX 10 11 1 0
BITMAP
FF80
FF80
FF80
0F00
FF80
FF80
7800
7800
FFC0
FFC0
FFC0
ENDCHAR
STARTCHAR zacute.ss01
ENCODING -1
SWIDTH 555 0
DWIDTH 11 0
BBX 10 15 1 0
BITMAP
0700
0E00
1C00
0000
FF80
FF80
FF80
0F00
FF80
FF80
7800
7800
FFC0
FFC0
FFC0
ENDCHAR
STARTCHAR zcaron.ss01
ENCODING -1
SWIDTH 555 0
DWIDTH 11 0
BBX 10 15 1 0
BITMAP
7300
3E00
1E00
0000
FF80
FF80
FF80
0F00
FF80
FF80
7800
7800
FFC0
FFC0
FFC0
ENDCHAR
STARTCHAR zdotaccent.ss01
ENCODING -1
SWIDTH 555 0
DWIDTH 11 0
BBX 10 16 1 0
BITMAP
1C00
1C00
1E00
1C00
0000
FF80
FF80
FF80
0F00
FF80
FF80
7800
7800
FFC0
FFC0
FFC0
ENDCHAR
STARTCHAR uni1E93.ss01
ENCODING -1
SWIDTH 555 0
DWIDTH 11 0
BBX 10 16 1 -5
BITMAP
FF80
FF80
FF80
0F00
FF80
FF80
7800
7800
FFC0
FFC0
FFC0
0000
1C00
1C00
1C00
1C00
ENDCHAR
STARTCHAR T_h
ENCODING -1
SWIDTH 1209 0
DWIDTH 24 0
BBX 23 14 0 0
BITMAP
FFFF00
FFFF00
FFFF00
0F0F78
0F0FFC
0F0FFE
0F0F1E
0F0F0E
0F0F0E
0F0F0E
0F0F0E
0F0F0E
0F0F0E
0F0F0E
ENDCHAR
STARTCHAR fi.ss01
ENCODING -1
SWIDTH 668 0
DWIDTH 13 0
BBX 11 16 1 0
BITMAP
00E0
3FE0
7DE0
FCC0
F000
FDE0
FDE0
FDE0
F1E0
F1E0
F1E0
F1E0
F1E0
F1E0
F1E0
F1E0
ENDCHAR
STARTCHAR fl.ss01
ENCODING -1
SWIDTH 742 0
DWIDTH 15 0
BBX 14 17 1 -2
BITMAP
1F80
3FE0
7FE0
78F0
78F0
FEF0
FEF0
FEF0
78F0
78F0
78F0
78F0
78F0
78F0
78FC
007C
003C
ENDCHAR
STARTCHAR a.sc
ENCODING -1
SWIDTH 647 0
DWIDTH 13 0
BBX 13 12 0 0
BITMAP
0700
0F80
0F80
1FC0
1DC0
3DE0
39E0
3FE0
7FF0
7FF0
F078
E078
ENDCHAR
STARTCHAR a.sc.ss01
ENCODING -1
SWIDTH 663 0
DWIDTH 13 0
BBX 11 12 1 0
BITMAP
1F00
3FC0
7FC0
F1E0
F0E0
F0E0
F0E0
FFE0
FFE0
FFE0
F0E0
F0E0
ENDCHAR
STARTCHAR aacute.sc
ENCODING -1
SWIDTH 647 0
DWIDTH 13 0
BBX 13 16 0 0
BITMAP
03C0
0380
0700
0000
0700
0F80
0F80
1FC0
1DC0
3DE0
39E0
3FE0
7FF0
7FF0
F078
E078
ENDCHAR
STARTCHAR aacute.sc.ss01
ENCODING -1
SWIDTH 663 0
DWIDTH 13 0
BBX 11 16 1 0
BITMAP
0380
0700
0E00
0000
1F00
3FC0
7FC0
F1E0
F0E0
F0E0
F0E0
FFE0
FFE0
FFE0
F0E0
F0E0
ENDCHAR
STARTCHAR abreve.sc
ENCODING -1
SWIDTH 647 0
DWIDTH 13 0
BBX 13 16 0 0
BITMAP
1DC0
0F80
0700
0000
0700
0F80
0F80
1FC0
1DC0
3DE0
39E0
3FE0
7FF0
7FF0
F078
E078
ENDCHAR
STARTCHAR abreve.sc.ss01
ENCODING -1
SWIDTH 663 0
DWIDTH 13 0
BBX 11 16 1 0
BITMAP
3B80
1F00
0E00
0000
1F00
3FC0
7FC0
F1E0
F0E0
F0E0
F0E0
FFE0
FFE0
FFE0
F0E0
F0E0
ENDCHAR
STARTCHAR uni1EAF.sc
ENCODING -1
SWIDTH 647 0
DWIDTH 13 0
BBX 13 19 0 0
BITMAP
0380
07C0
0E00
19C0
1F80
0700
0000
0700
0F80
0F80
1FC0
1DC0
3DE0
39E0
3FE0
7FF0
7FF0
F078
E078
ENDCHAR
STARTCHAR uni1EAF.sc.ss01
ENCODING -1
SWIDTH 663 0
DWIDTH 13 0
BBX 11 19 1 0
BITMAP
0300
0780
0E00
3980
1F80
0E00
0000
1F00
3FC0
7FC0
F1E0
F0E0
F0E0
F0E0
FFE0
FFE0
FFE0
F0E0
F0E0
ENDCHAR
STARTCHAR uni1EB7.sc
ENCODING -1
SWIDTH 647 0
DWIDTH 13 0
BBX 13 21 0 -5
BITMAP
19C0
1F80
0F00
0000
0700
0F80
0F80
1FC0
1DC0
3DE0
39E0
3FE0
7FF0
7FF0
F078
E078
0000
0700
0F00
0F00
0700
ENDCHAR
STARTCHAR uni1EB7.sc.ss01
ENCODING -1
SWIDTH 663 0
DWIDTH 13 0
BBX 11 21 1 -5
BITMAP
3B80
1F00
0E00
0000
1F00
3FC0
7FC0
F1E0
F0E0
F0E0
F0E0
FFE0
FFE0
FFE0
F0E0
F0E0
0000
0E00
0E00
0E00
0E00
ENDCHAR
STARTCHAR uni1EB1.sc
ENCODING -1
SWIDTH 647 0
DWIDTH 13 0
BBX 13 19 0 0
BITMAP
0C00
1E00
0700
18C0
0F80
0700
0000
0700
0F80
0F80
1FC0
1DC0
3DE0
39E0
3FE0
7FF0
7FF0
F078
E078
ENDCHAR
STARTCHAR uni1EB1.sc.ss01
ENCODING -1
SWIDTH 663 0
DWIDTH 13 0
BBX 11 19 1 0
BITMAP
1800
3E00
0600
3980
1F80
0F00
0000
1F00
3FC0
7FC0
F1E0
F0E0
F0E0
F0E0
FFE0
FFE0
FFE0
F0E0
F0E0
ENDCHAR
STARTCHAR uni1EB3.sc
ENCODING -1
SWIDTH 647 0
DWIDTH 13 0
BBX 13 20 0 0
BITMAP
0200
0F00
0300
0600
18C0
0F80
0700
0000
0700
0F80
0F80
1FC0
1DC0
3DE0
39E0
3FE0
7FF0
7FF0
F078
E078
ENDCHAR
STARTCHAR uni1EB3.sc.ss01
ENCODING -1
SWIDTH 663 0
DWIDTH 13 0
BBX 11 20 1 0
BITMAP
0400
1E00
0600
0600
3980
1F80
0F00
0000
1F00
3FC0
7FC0
F1E0
F0E0
F0E0
F0E0
FFE0
FFE0
FFE0
F0E0
F0E0
ENDCHAR
STARTCHAR uni1EB5.sc
ENCODING -1
SWIDTH 647 0
DWIDTH 13 0
BBX 13 19 0 0
BITMAP
1FC0
1FC0
1980
19C0
1F80
0F00
0000
0700
0F80
0F80
1FC0
1DC0
3DE0
39E0
3FE0
7FF0
7FF0
F078
E078
ENDCHAR
STARTCHAR uni1EB5.sc.ss01
ENCODING -1
SWIDTH 663 0
DWIDTH 13 0
BBX 11 18 1 0
BITMAP
1F80
3F80
3380
1F00
0E00
0000
1F00
3FC0
7FC0
F1E0
F0E0
F0E0
F0E0
FFE0
FFE0
FFE0
F0E0
F0E0
ENDCHAR
STARTCHAR acircumflex.sc
ENCODING -1
SWIDTH 647 0
DWIDTH 13 0
BBX 13 16 0 0
BITMAP
0700
0F80
1DC0
0000
0700
0F80
0F80
1FC0
1DC0
3DE0
39E0
3FE0
7FF0
7FF0
F078
E078
ENDCHAR
STARTCHAR acircumflex.sc.ss01
ENCODING -1
SWIDTH 663 0
DWIDTH 13 0
BBX 11 16 1 0
BITMAP
0F00
1F00
3B80
0000
1F00
3FC0
7FC0
F1E0
F0E0
F0E0
F0E0
FFE0
FFE0
FFE0
F0E0
F0E0
ENDCHAR
STARTCHAR uni1EA5.sc
ENCODING -1
SWIDTH 647 0
DWIDTH 13 0
BBX 13 19 0 0
BITMAP
0380
07C0
0E00
0000
0F80
1F80
39E0
0700
0F80
0F80
1FC0
1DC0
3DE0
39E0
3FE0
7FF0
7FF0
F078
E078
ENDCHAR
STARTCHAR uni1EA5.sc.ss01
ENCODING -1
SWIDTH 663 0
DWIDTH 13 0
BBX 11 19 1 0
BITMAP
0300
0780
0E00
0000
1F00
1F80
79C0
1F00
3FC0
7FC0
F1E0
F0E0
F0E0
F0E0
FFE0
FFE0
FFE0
F0E0
F0E0
ENDCHAR
STARTCHAR uni1EAD.sc
ENCODING -1
SWIDTH 647 0
DWIDTH 13 0
BBX 13 21 0 -5
BITMAP
0F00
0F80
1DC0
0000
0700
0F80
0F80
1FC0
1DC0
3DE0
39E0
3FE0
7FF0
7FF0
F078
E078
0000
0700
0F00
0F00
0700
ENDCHAR
STARTCHAR uni1EAD.sc.ss01
ENCODING -1
SWIDTH 663 0
DWIDTH 13 0
BBX 11 21 1 -5
BITMAP
0F00
1F00
3B80
0000
1F00
3FC0
7FC0
F1E0
F0E0
F0E0
F0E0
FFE0
FFE0
FFE0
F0E0
F0E0
0000
0E00
0E00
0E00
0E00
ENDCHAR
STARTCHAR uni1EA7.sc
ENCODING -1
SWIDTH 647 0
DWIDTH 13 0
BBX 13 19 0 0
BITMAP
0C00
1E00
0700
0000
0F80
1D80
39E0
0700
0F80
0F80
1FC0
1DC0
3DE0
39E0
3FE0
7FF0
7FF0
F078
E078
ENDCHAR
STARTCHAR uni1EA7.sc.ss01
ENCODING -1
SWIDTH 663 0
DWIDTH 13 0
BBX 11 19 1 0
BITMAP
1800
3C00
0600
0000
1F00
1F80
79C0
1F00
3FC0
7FC0
F1E0
F0E0
F0E0
F0E0
FFE0
FFE0
FFE0
F0E0
F0E0
ENDCHAR
STARTCHAR uni1EA9.sc
ENCODING -1
SWIDTH 647 0
DWIDTH 13 0
BBX 13 20 0 0
BITMAP
0200
0F00
0300
0600
0000
0F80
1F80
39E0
0700
0F80
0F80
1FC0
1DC0
3DE0
39E0
3FE0
7FF0
7FF0
F078
E078
ENDCHAR
STARTCHAR uni1EA9.sc.ss01
ENCODING -1
SWIDTH 663 0
DWIDTH 13 0
BBX 11 20 1 0
BITMAP
0400
1E00
0600
0600
0000
1F00
1F80
79C0
1F00
3FC0
7FC0
F1E0
F0E0
F0E0
F0E0
FFE0
FFE0
FFE0
F0E0
F0E0
ENDCHAR
STARTCHAR uni1EAB.sc
ENCODING -1
SWIDTH 647 0
DWIDTH 13 0
BBX 13 18 0 0
BITMAP
1FC0
1FC0
1180
0F80
1F80
39C0
0700
0F80
0F80
1FC0
1DC0
3DE0
39E0
3FE0
7FF0
7FF0
F078
E078
ENDCHAR
STARTCHAR uni1EAB.sc.ss01
ENCODING -1
SWIDTH 663 0
DWIDTH 13 0
BBX 11 18 1 0
BITMAP
1F80
3F80
3300
1F00
3B80
7BC0
1F00
3FC0
7FC0
F1E0
F0E0
F0E0
F0E0
FFE0
FFE0
FFE0
F0E0
F0E0
ENDCHAR
STARTCHAR uni0201.sc
ENCODING -1
SWIDTH 647 0
DWIDTH 13 0
BBX 13 17 0 0
BITMAP
0880
3B80
3B80
1DC0
0000
0700
0F80
0F80
1FC0
1DC0
3DE0
39E0
3FE0
7FF0
7FF0
F078
E078
ENDCHAR
STARTCHAR uni0201.sc.ss01
ENCODING -1
SWIDTH 663 0
DWIDTH 13 0
BBX 11 17 1 0
BITMAP
1100
7700
3B80
3B80
0000
1F00
3FC0
7FC0
F1E0
F0E0
F0E0
F0E0
FFE0
FFE0
FFE0
F0E0
F0E0
ENDCHAR
STARTCHAR adieresis.alt.sc
ENCODING -1
SWIDTH 647 0
DWIDTH 13 0
BBX 13 16 0 0
BITMAP
1D80
1DC0
1DC0
0000
0700
0F80
0F80
1FC0
1DC0
3DE0
39E0
3FE0
7FF0
7FF0
F078
E078
ENDCHAR
STARTCHAR adieresis.sc
ENCODING -1
SWIDTH 647 0
DWIDTH 13 0
BBX 13 16 0 0
BITMAP
1D80
1DC0
1DC0
0000
0700
0F80
0F80
1FC0
1DC0
3DE0
39E0
3FE0
7FF0
7FF0
F078
E078
ENDCHAR
STARTCHAR adieresis.sc.ss01
ENCODING -1
SWIDTH 663 0
DWIDTH 13 0
BBX 11 16 1 0
BITMAP
1B80
3B80
1B80
0000
1F00
3FC0
7FC0
F1E0
F0E0
F0E0
F0E0
FFE0
FFE0
FFE0
F0E0
F0E0
ENDCHAR
STARTCHAR uni1EA1.sc
ENCODING -1
SWIDTH 647 0
DWIDTH 13 0
BBX 13 17 0 -5
BITMAP
0700
0F80
0F80
1FC0
1DC0
3DE0
39E0
3FE0
7FF0
7FF0
F078
E078
0000
0700
0F00
0F00
0700
ENDCHAR
STARTCHAR uni1EA1.sc.ss01
ENCODING -1
SWIDTH 663 0
DWIDTH 13 0
BBX 11 17 1 -5
BITMAP
1F00
3FC0
7FC0
F1E0
F0E0
F0E0
F0E0
FFE0
FFE0
FFE0
F0E0
F0E0
0000
0E00
0E00
0E00
0E00
ENDCHAR
STARTCHAR agrave.sc
ENCODING -1
SWIDTH 647 0
DWIDTH 13 0
BBX 13 16 0 0
BITMAP
1E00
0E00
0700
0000
0700
0F80
0F80
1FC0
1DC0
3DE0
39E0
3FE0
7FF0
7FF0
F078
E078
ENDCHAR
STARTCHAR agrave.sc.ss01
ENCODING -1
SWIDTH 663 0
DWIDTH 13 0
BBX 11 16 1 0
BITMAP
3C00
1E00
0E00
0000
1F00
3FC0
7FC0
F1E0
F0E0
F0E0
F0E0
FFE0
FFE0
FFE0
F0E0
F0E0
ENDCHAR
STARTCHAR uni1EA3.sc
ENCODING -1
SWIDTH 647 0
DWIDTH 13 0
BBX 13 17 0 0
BITMAP
0700
0F80
0380
0300
0600
0700
0F80
0F80
1FC0
1DC0
3DE0
39E0
3FE0
7FF0
7FF0
F078
E078
ENDCHAR
STARTCHAR uni1EA3.sc.ss01
ENCODING -1
SWIDTH 663 0
DWIDTH 13 0
BBX 11 17 1 0
BITMAP
1E00
0F00
0300
0600
0200
1F00
3FC0
7FC0
F1E0
F0E0
F0E0
F0E0
FFE0
FFE0
FFE0
F0E0
F0E0
ENDCHAR
STARTCHAR uni0203.sc
ENCODING -1
SWIDTH 647 0
DWIDTH 13 0
BBX 13 16 0 0
BITMAP
0F00
0F80
1DC0
0000
0700
0F80
0F80
1FC0
1DC0
3DE0
39E0
3FE0
7FF0
7FF0
F078
E078
ENDCHAR
STARTCHAR uni0203.sc.ss01
ENCODING -1
SWIDTH 663 0
DWIDTH 13 0
BBX 11 16 1 0
BITMAP
0F00
1F80
3980
0000
1F00
3FC0
7FC0
F1E0
F0E0
F0E0
F0E0
FFE0
FFE0
FFE0
F0E0
F0E0
ENDCHAR
STARTCHAR amacron.sc
ENCODING -1
SWIDTH 647 0
DWIDTH 13 0
BBX 13 15 0 0
BITMAP
1FC0
1FC0
0000
0700
0F80
0F80
1FC0
1DC0
3DE0
39E0
3FE0
7FF0
7FF0
F078
E078
ENDCHAR
STARTCHAR amacron.sc.ss01
ENCODING -1
SWIDTH 663 0
DWIDTH 13 0
BBX 11 15 1 0
BITMAP
1F80
1F80
0000
1F00
3FC0
7FC0
F1E0
F0E0
F0E0
F0E0
FFE0
FFE0
FFE0
F0E0
F0E0
ENDCHAR
STARTCHAR aogonek.sc
ENCODING -1
SWIDTH 647 0
DWIDTH 13 0
BBX 13 17 0 -5
BITMAP
0700
0F80
0F80
1FC0
1DC0
3DE0
39E0
3FE0
7FF0
7FF0
F078
E078
0070
00E0
00E0
00F0
0070
ENDCHAR
STARTCHAR aogonek.sc.ss01
ENCODING -1
SWIDTH 663 0
DWIDTH 13 0
BBX 11 17 1 -5
BITMAP
1F00
3FC0
7FC0
F1E0
F0E0
F0E0
F0E0
FFE0
FFE0
FFE0
F0E0
F0E0
01C0
0180
0380
01C0
01E0
ENDCHAR
STARTCHAR aring.sc
ENCODING -1
SWIDTH 647 0
DWIDTH 13 0
BBX 13 18 0 0
BITMAP
0700
0D80
0D80
0F80
0700
0000
0700
0F80
0F80
1FC0
1DC0
3DE0
39E0
3FE0
7FF0
7FF0
F078
E078
ENDCHAR
STARTCHAR aring.sc.ss01
ENCODING -1
SWIDTH 663 0
DWIDTH 13 0
BBX 11 18 1 0
BITMAP
0E00
1B00
1B00
1F00
0E00
0000
1F00
3FC0
7FC0
F1E0
F0E0
F0E0
F0E0
FFE0
FFE0
FFE0
F0E0
F0E0
ENDCHAR
STARTCHAR aringacute.sc
ENCODING -1
SWIDTH 647 0
DWIDTH 13 0
BBX 13 21 0 0
BITMAP
0380
07C0
0E00
0700
0D80
0D80
0F80
0700
0000
0700
0F80
0F80
1FC0
1DC0
3DE0
39E0
3FE0
7FF0
7FF0
F078
E078
ENDCHAR
STARTCHAR aringacute.sc.ss01
ENCODING -1
SWIDTH 663 0
DWIDTH 13 0
BBX 11 21 1 0
BITMAP
0300
0780
0E00
0E00
1B00
1B00
1F00
0E00
0000
1F00
3FC0
7FC0
F1E0
F0E0
F0E0
F0E0
FFE0
FFE0
FFE0
F0E0
F0E0
ENDCHAR
STARTCHAR atilde.sc
ENCODING -1
SWIDTH 647 0
DWIDTH 13 0
BBX 13 16 0 0
BITMAP
0CC0
1FC0
1B80
0000
0700
0F80
0F80
1FC0
1DC0
3DE0
39E0
3FE0
7FF0
7FF0
F078
E078
ENDCHAR
STARTCHAR atilde.sc.ss01
ENCODING -1
SWIDTH 663 0
DWIDTH 13 0
BBX 11 16 1 0
BITMAP
1980
3F80
3380
0000
1F00
3FC0
7FC0
F1E0
F0E0
F0E0
F0E0
FFE0
FFE0
FFE0
F0E0
F0E0
ENDCHAR
STARTCHAR ae.sc
ENCODING -1
SWIDTH 943 0
DWIDTH 19 0
BBX 18 12 0 0
BITMAP
03FFC0
07FFC0
07FFC0
0FF000
0EF000
1CFF80
1CFF80
3FFF80
3FF000
7FFFC0
70FFC0
F0FFC0
ENDCHAR
STARTCHAR aeacute.sc
ENCODING -1
SWIDTH 943 0
DWIDTH 19 0
BBX 18 16 0 0
BITMAP
001E00
003800
007000
000000
03FFC0
07FFC0
07FFC0
0FF000
0EF000
1CFF80
1CFF80
3FFF80
3FF000
7FFFC0
70FFC0
F0FFC0
ENDCHAR
STARTCHAR b.sc
ENCODING -1
SWIDTH 643 0
DWIDTH 13 0
BBX 10 12 2 0
BITMAP
FF00
FF80
FFC0
E3C0
E380
FF80
FF80
FFC0
E1C0
FFC0
FFC0
FF00
ENDCHAR
STARTCHAR c.sc
ENCODING -1
SWIDTH 594 0
DWIDTH 12 0
BBX 11 12 1 0
BITMAP
1F00
3FC0
7FE0
F0C0
E080
E000
E000
E000
F080
7FE0
3FC0
1F00
ENDCHAR
STARTCHAR cacute.sc
ENCODING -1
SWIDTH 594 0
DWIDTH 12 0
BBX 11 16 1 0
BITMAP
0380
0700
0E00
0000
1F00
3FC0
7FE0
F0C0
E080
E000
E000
E000
F080
7FE0
3FC0
1F00
ENDCHAR
STARTCHAR ccaron.sc
ENCODING -1
SWIDTH 594 0
DWIDTH 12 0
BBX 11 16 1 0
BITMAP
39C0
1F80
0F00
0000
1F00
3FC0
7FE0
F0C0
E080
E000
E000
E000
F080
7FE0
3FC0
1F00
ENDCHAR
STARTCHAR ccedilla.sc
ENCODING -1
SWIDTH 594 0
DWIDTH 12 0
BBX 11 17 1 -5
BITMAP
1F00
3FC0
7FE0
F0C0
E080
E000
E000
E000
F080
FFC0
7FE0
3F80
0C00
0E00
0700
1F00
1E00
ENDCHAR
STARTCHAR uni1E09.sc
ENCODING -1
SWIDTH 594 0
DWIDTH 12 0
BBX 11 21 1 -5
BITMAP
0300
0780
0E00
0000
1F00
3FC0
7FE0
F0C0
E080
E000
E000
E000
F080
FFC0
7FE0
3F80
0C00
0E00
0700
1F00
1E00
ENDCHAR
STARTCHAR ccircumflex.sc
ENCODING -1
SWIDTH 594 0
DWIDTH 12 0
BBX 11 16 1 0
BITMAP
0F00
1F80
39C0
0000
1F00
3FC0
7FE0
F0C0
E080
E000
E000
E000
F080
7FE0
3FC0
1F00
ENDCHAR
STARTCHAR cdotaccent.sc
ENCODING -1
SWIDTH 594 0
DWIDTH 12 0
BBX 11 17 1 0
BITMAP
0600
0F00
0F00
0600
0000
1F00
3FC0
7FE0
F0C0
E080
E000
E000
E000
F080
7FE0
3FC0
1F00
ENDCHAR
STARTCHAR d.sc
ENCODING -1
SWIDTH 674 0
DWIDTH 13 0
BBX 11 12 2 0
BITMAP
FE00
FF80
FFC0
E3C0
E1E0
E1E0
E1E0
E1E0
E3C0
FFC0
FF80
FE00
ENDCHAR
STARTCHAR eth.sc
ENCODING -1
SWIDTH 674 0
DWIDTH 13 0
BBX 13 12 0 0
BITMAP
3F80
3FE0
3FF0
38F0
3878
FE78
FE78
3878
38F0
3FF0
3FE0
3F80
ENDCHAR
STARTCHAR dcaron.sc
ENCODING -1
SWIDTH 674 0
DWIDTH 13 0
BBX 11 16 2 0
BITMAP
7700
3E00
3C00
0000
FE00
FF80
FFC0
E3C0
E1E0
E1E0
E1E0
E1E0
E3C0
FFC0
FF80
FE00
ENDCHAR
STARTCHAR dcroat.sc
ENCODING -1
SWIDTH 686 0
DWIDTH 14 0
BBX 12 12 1 0
BITMAP
7F80
7FC0
7FE0
70F0
70F0
FE70
FE70
70F0
70F0
7FE0
7FC0
7F80
ENDCHAR
STARTCHAR uni1E0D.sc
ENCODING -1
SWIDTH 674 0
DWIDTH 13 0
BBX 11 17 2 -5
BITMAP
FE00
FF80
FFC0
E3C0
E1E0
E1E0
E1E0
E1E0
E3C0
FFC0
FF80
FE00
0000
1C00
1C00
1C00
1C00
ENDCHAR
STARTCHAR uni1E0F.sc
ENCODING -1
SWIDTH 674 0
DWIDTH 13 0
BBX 11 16 2 -4
BITMAP
FE00
FF80
FFC0
E3C0
E1E0
E1E0
E1E0
E1E0
E3C0
FFC0
FF80
FE00
0000
0000
3F00
3F00
ENDCHAR
STARTCHAR uni01C6.sc
ENCODING -1
SWIDTH 1260 0
DWIDTH 25 0
BBX 23 16 2 0
BITMAP
0003B8
0001F0
0001E0
000000
FE0FFC
FF8FFC
FFCFFC
E3C078
E1E078
E1E0F0
E1E1E0
E1E3C0
E3C780
FFCFFE
FF8FFE
FE0FFE
ENDCHAR
STARTCHAR uni01C6.sc.ss01
ENCODING -1
SWIDTH 1288 0
DWIDTH 26 0
BBX 23 16 2 0
BITMAP
000398
0001F0
0000F0
000000
FE07FE
FF87FE
FFC7FE
E3C03C
E1E078
E1E7FC
E1E7FC
E1E3C0
E3C780
FFC7FE
FF8FFE
FE0FFE
ENDCHAR
STARTCHAR e.sc
ENCODING -1
SWIDTH 611 0
DWIDTH 12 0
BBX 9 12 2 0
BITMAP
FF80
FF80
FF80
E000
E000
FF00
FF00
FF00
E000
FF80
FF80
FF80
ENDCHAR
STARTCHAR e.sc.ss01
ENCODING -1
SWIDTH 563 0
DWIDTH 11 0
BBX 10 12 1 0
BITMAP
3FC0
7F80
FF80
F000
7F00
3F00
FF00
E000
E080
FF80
FFC0
3F00
ENDCHAR
STARTCHAR eacute.sc
ENCODING -1
SWIDTH 611 0
DWIDTH 12 0
BBX 9 16 2 0
BITMAP
0F00
1E00
1C00
0000
FF80
FF80
FF80
E000
E000
FF00
FF00
FF00
E000
FF80
FF80
FF80
ENDCHAR
STARTCHAR eacute.sc.ss01
ENCODING -1
SWIDTH 563 0
DWIDTH 11 0
BBX 10 16 1 0
BITMAP
0780
0F00
1C00
0000
3FC0
7F80
FF80
F000
7F00
3F00
FF00
E000
E080
FF80
FFC0
3F00
ENDCHAR
STARTCHAR ebreve.sc
ENCODING -1
SWIDTH 611 0
DWIDTH 12 0
BBX 9 16 2 0
BITMAP
6700
7E00
3C00
0000
FF80
FF80
FF80
E000
E000
FF00
FF00
FF00
E000
FF80
FF80
FF80
ENDCHAR
STARTCHAR ebreve.sc.ss01
ENCODING -1
SWIDTH 563 0
DWIDTH 11 0
BBX 10 16 1 0
BITMAP
3300
3F00
1E00
0000
3FC0
7F80
FF80
F000
7F00
3F00
FF00
E000
E080
FF80
FFC0
3F00
ENDCHAR
STARTCHAR ecaron.sc
ENCODING -1
SWIDTH 611 0
DWIDTH 12 0
BBX 9 16 2 0
BITMAP
7700
3E00
3C00
0000
FF80
FF80
FF80
E000
E000
FF00
FF00
FF00
E000
FF80
FF80
FF80
ENDCHAR
STARTCHAR ecaron.sc.ss01
ENCODING -1
SWIDTH 563 0
DWIDTH 11 0
BBX 10 16 1 0
BITMAP
7380
3F00
1E00
0000
3FC0
7F80
FF80
F000
7F00
3F00
FF00
E000
E080
FF80
FFC0
3F00
ENDCHAR
STARTCHAR uni1E1D.sc
ENCODING -1
SWIDTH 611 0
DWIDTH 12 0
BBX 9 21 2 -5
BITMAP
6700
7E00
3C00
0000
FF80
FF80
FF80
E000
E000
FF00
FF00
FF00
E000
FF80
FF80
FF80
1800
1C00
0E00
3E00
3C00
ENDCHAR
STARTCHAR uni1E1D.sc.ss01
ENCODING -1
SWIDTH 563 0
DWIDTH 11 0
BBX 10 20 1 -5
BITMAP
3300
3F00
1E00
3FC0
7F80
FF80
F000
7F00
3F00
FF00
E000
E080
FF80
FFC0
3F00
0C00
0E00
0600
1E00
1C00
ENDCHAR
STARTCHAR ecircumflex.sc
ENCODING -1
SWIDTH 611 0
DWIDTH 12 0
BBX 9 16 2 0
BITMAP
3C00
3E00
7700
0000
FF80
FF80
FF80
E000
E000
FF00
FF00
FF00
E000
FF80
FF80
FF80
ENDCHAR
STARTCHAR ecircumflex.sc.ss01
ENCODING -1
SWIDTH 563 0
DWIDTH 11 0
BBX 10 16 1 0
BITMAP
1E00
1F00
7380
0000
3FC0
7F80
FF80
F000
7F00
3F00
FF00
E000
E080
FF80
FFC0
3F00
ENDCHAR
STARTCHAR uni1EBF.sc
ENCODING -1
SWIDTH 611 0
DWIDTH 12 0
BBX 9 19 2 0
BITMAP
0C00
1F00
3800
0000
3E00
7E00
E700
FF80
FF80
FF80
E000
E000
FF00
FF00
FF00
E000
FF80
FF80
FF80
ENDCHAR
STARTCHAR uni1EBF.sc.ss01
ENCODING -1
SWIDTH 563 0
DWIDTH 11 0
BBX 10 19 1 0
BITMAP
0600
0F00
1C00
0000
1E00
3F00
7380
3FC0
7F80
FF80
F000
7F00
3F00
FF00
E000
E080
FF80
FFC0
3F00
ENDCHAR
STARTCHAR uni1EC7.sc
ENCODING -1
SWIDTH 611 0
DWIDTH 12 0
BBX 9 21 2 -5
BITMAP
1C00
3E00
7700
0000
FF80
FF80
FF80
E000
E000
FF00
FF00
FF00
E000
FF80
FF80
FF80
0000
1C00
3C00
3C00
1C00
ENDCHAR
STARTCHAR uni1EC7.sc.ss01
ENCODING -1
SWIDTH 563 0
DWIDTH 11 0
BBX 10 21 1 -5
BITMAP
1E00
3F00
7380
0000
3FC0
7F80
FF80
F000
7F00
3F00
FF00
E000
E080
FF80
FFC0
3F00
0000
0C00
1E00
1E00
0C00
ENDCHAR
STARTCHAR uni1EC1.sc
ENCODING -1
SWIDTH 611 0
DWIDTH 12 0
BBX 9 19 2 0
BITMAP
3000
7800
1C00
0000
3E00
7E00
E700
FF80
FF80
FF80
E000
E000
FF00
FF00
FF00
E000
FF80
FF80
FF80
ENDCHAR
STARTCHAR uni1EC1.sc.ss01
ENCODING -1
SWIDTH 563 0
DWIDTH 11 0
BBX 10 19 1 0
BITMAP
1800
3C00
0E00
0000
1E00
3F00
7380
3FC0
7F80
FF80
F000
7F00
3F00
FF00
E000
E080
FF80
FFC0
3F00
ENDCHAR
STARTCHAR uni1EC3.sc
ENCODING -1
SWIDTH 611 0
DWIDTH 12 0
BBX 9 20 2 0
BITMAP
0800
3C00
0C00
1800
0000
3E00
7E00
E700
FF80
FF80
FF80
E000
E000
FF00
FF00
FF00
E000
FF80
FF80
FF80
ENDCHAR
STARTCHAR uni1EC3.sc.ss01
ENCODING -1
SWIDTH 563 0
DWIDTH 11 0
BBX 10 20 1 0
BITMAP
0C00
1E00
0600
0C00
0000
1E00
3F00
7380
3FC0
7F80
FF80
F000
7F00
3F00
FF00
E000
E080
FF80
FFC0
3F00
ENDCHAR
STARTCHAR uni1EC5.sc
ENCODING -1
SWIDTH 611 0
DWIDTH 12 0
BBX 9 18 2 0
BITMAP
7F00
7F00
4600
3C00
7E00
E700
FF80
FF80
FF80
E000
E000
FF00
FF00
FF00
E000
FF80
FF80
FF80
ENDCHAR
STARTCHAR uni1EC5.sc.ss01
ENCODING -1
SWIDTH 563 0
DWIDTH 11 0
BBX 10 18 1 0
BITMAP
3F80
3F00
6700
1E00
3F00
7380
3FC0
7F80
FF80
F000
7F00
3F00
FF00
E000
E080
FF80
FFC0
3F00
ENDCHAR
STARTCHAR uni0205.sc
ENCODING -1
SWIDTH 611 0
DWIDTH 12 0
BBX 9 17 2 0
BITMAP
2200
EE00
EE00
7700
0000
FF80
FF80
FF80
E000
E000
FF00
FF00
FF00
E000
FF80
FF80
FF80
ENDCHAR
STARTCHAR uni0205.sc.ss01
ENCODING -1
SWIDTH 563 0
DWIDTH 11 0
BBX 10 17 1 0
BITMAP
1100
FF00
7700
3B80
0000
3FC0
7F80
FF80
F000
7F00
3F00
FF00
E000
E080
FF80
FFC0
3F00
ENDCHAR
STARTCHAR edieresis.sc
ENCODING -1
SWIDTH 611 0
DWIDTH 12 0
BBX 9 16 2 0
BITMAP
6600
7700
7600
0000
FF80
FF80
FF80
E000
E000
FF00
FF00
FF00
E000
FF80
FF80
FF80
ENDCHAR
STARTCHAR edieresis.sc.ss01
ENCODING -1
SWIDTH 563 0
DWIDTH 11 0
BBX 10 16 1 0
BITMAP
3300
3B80
3300
0000
3FC0
7F80
FF80
F000
7F00
3F00
FF00
E000
E080
FF80
FFC0
3F00
ENDCHAR
STARTCHAR edotaccent.sc
ENCODING -1
SWIDTH 611 0
DWIDTH 12 0
BBX 9 17 2 0
BITMAP
1C00
3C00
3C00
1C00
0000
FF80
FF80
FF80
E000
E000
FF00
FF00
FF00
E000
FF80
FF80
FF80
ENDCHAR
STARTCHAR edotaccent.sc.ss01
ENCODING -1
SWIDTH 563 0
DWIDTH 11 0
BBX 10 17 1 0
BITMAP
0C00
1E00
1E00
0C00
0000
3FC0
7F80
FF80
F000
7F00
3F00
FF00
E000
E080
FF80
FFC0
3F00
ENDCHAR
STARTCHAR uni1EB9.sc
ENCODING -1
SWIDTH 611 0
DWIDTH 12 0
BBX 9 17 2 -5
BITMAP
FF80
FF80
FF80
E000
E000
FF00
FF00
FF00
E000
FF80
FF80
FF80
0000
1C00
3C00
3C00
1C00
ENDCHAR
STARTCHAR uni1EB9.sc.ss01
ENCODING -1
SWIDTH 563 0
DWIDTH 11 0
BBX 10 17 1 -5
BITMAP
3FC0
7F80
FF80
F000
7F00
3F00
FF00
E000
E080
FF80
FFC0
3F00
0000
0C00
1E00
1E00
0C00
ENDCHAR
STARTCHAR egrave.sc
ENCODING -1
SWIDTH 611 0
DWIDTH 12 0
BBX 9 16 2 0
BITMAP
7800
3800
1C00
0000
FF80
FF80
FF80
E000
E000
FF00
FF00
FF00
E000
FF80
FF80
FF80
ENDCHAR
STARTCHAR egrave.sc.ss01
ENCODING -1
SWIDTH 563 0
DWIDTH 11 0
BBX 10 16 1 0
BITMAP
3800
1C00
0E00
0000
3FC0
7F80
FF80
F000
7F00
3F00
FF00
E000
E080
FF80
FFC0
3F00
ENDCHAR
STARTCHAR uni1EBB.sc
ENCODING -1
SWIDTH 611 0
DWIDTH 12 0
BBX 9 17 2 0
BITMAP
1C00
3E00
0E00
0C00
1800
FF80
FF80
FF80
E000
E000
FF00
FF00
FF00
E000
FF80
FF80
FF80
ENDCHAR
STARTCHAR uni1EBB.sc.ss01
ENCODING -1
SWIDTH 563 0
DWIDTH 11 0
BBX 10 17 1 0
BITMAP
1E00
1E00
0600
0E00
0400
3FC0
7F80
FF80
F000
7F00
3F00
FF00
E000
E080
FF80
FFC0
3F00
ENDCHAR
STARTCHAR uni0207.sc
ENCODING -1
SWIDTH 611 0
DWIDTH 12 0
BBX 9 16 2 0
BITMAP
3C00
7E00
6700
0000
FF80
FF80
FF80
E000
E000
FF00
FF00
FF00
E000
FF80
FF80
FF80
ENDCHAR
STARTCHAR uni0207.sc.ss01
ENCODING -1
SWIDTH 563 0
DWIDTH 11 0
BBX 10 16 1 0
BITMAP
1E00
3F00
3300
0000
3FC0
7F80
FF80
F000
7F00
3F00
FF00
E000
E080
FF80
FFC0
3F00
ENDCHAR
STARTCHAR emacron.sc
ENCODING -1
SWIDTH 611 0
DWIDTH 12 0
BBX 9 15 2 0
BITMAP
7E00
7E00
0000
FF80
FF80
FF80
E000
E000
FF00
FF00
FF00
E000
FF80
FF80
FF80
ENDCHAR
STARTCHAR emacron.sc.ss01
ENCODING -1
SWIDTH 563 0
DWIDTH 11 0
BBX 10 15 1 0
BITMAP
3F00
3F00
0000
3FC0
7F80
FF80
F000
7F00
3F00
FF00
E000
E080
FF80
FFC0
3F00
ENDCHAR
STARTCHAR uni1E17.sc
ENCODING -1
SWIDTH 611 0
DWIDTH 12 0
BBX 9 19 2 0
BITMAP
0C00
1E00
3800
0000
7E00
7E00
0000
FF80
FF80
FF80
E000
E000
FF00
FF00
FF00
E000
FF80
FF80
FF80
ENDCHAR
STARTCHAR uni1E17.sc.ss01
ENCODING -1
SWIDTH 563 0
DWIDTH 11 0
BBX 10 18 1 0
BITMAP
0600
0F00
1C00
3F00
3F00
0000
3FC0
7F80
FF80
F000
7F00
3F00
FF00
E000
E080
FF80
FFC0
3F00
ENDCHAR
STARTCHAR uni1E15.sc
ENCODING -1
SWIDTH 611 0
DWIDTH 12 0
BBX 9 19 2 0
BITMAP
3000
7800
0C00
0000
3F00
3F00
0000
FF80
FF80
FF80
E000
E000
FF00
FF00
FF00
E000
FF80
FF80
FF80
ENDCHAR
STARTCHAR uni1E15.sc.ss01
ENCODING -1
SWIDTH 563 0
DWIDTH 11 0
BBX 10 18 1 0
BITMAP
1800
3C00
0E00
3F00
3F00
0000
3FC0
7F80
FF80
F000
7F00
3F00
FF00
E000
E080
FF80
FFC0
3F00
ENDCHAR
STARTCHAR eogonek.sc
ENCODING -1
SWIDTH 611 0
DWIDTH 12 0
BBX 9 17 2 -5
BITMAP
FF80
FF80
FF80
E000
E000
FF00
FF00
FF00
E000
FF80
FF80
FF80
0380
0700
0700
0780
0380
ENDCHAR
STARTCHAR eogonek.sc.ss01
ENCODING -1
SWIDTH 563 0
DWIDTH 11 0
BBX 10 16 1 -4
BITMAP
3FC0
7F80
FF80
F000
7F00
3F00
FF00
E000
E080
FF80
FFC0
3F80
0380
0300
0380
03C0
ENDCHAR
STARTCHAR uni1EBD.sc
ENCODING -1
SWIDTH 611 0
DWIDTH 12 0
BBX 9 16 2 0
BITMAP
7300
7F00
6E00
0000
FF80
FF80
FF80
E000
E000
FF00
FF00
FF00
E000
FF80
FF80
FF80
ENDCHAR
STARTCHAR uni1EBD.sc.ss01
ENCODING -1
SWIDTH 563 0
DWIDTH 11 0
BBX 10 16 1 0
BITMAP
3980
3F80
3700
0000
3FC0
7F80
FF80
F000
7F00
3F00
FF00
E000
E080
FF80
FFC0
3F00
ENDCHAR
STARTCHAR uni0259.sc
ENCODING -1
SWIDTH 678 0
DWIDTH 14 0
BBX 12 12 1 0
BITMAP
1F00
7FC0
3FE0
10E0
00F0
FFF0
FFF0
E0F0
F1E0
7FE0
3FC0
1F00
ENDCHAR
STARTCHAR uni0259.sc.ss01
ENCODING -1
SWIDTH 662 0
DWIDTH 13 0
BBX 12 12 1 0
BITMAP
1F00
7FC0
7FE0
31E0
01E0
0FF0
3EF0
F8E0
F1E0
FFE0
7FC0
1F00
ENDCHAR
STARTCHAR f.sc
ENCODING -1
SWIDTH 559 0
DWIDTH 11 0
BBX 9 12 2 0
BITMAP
FF80
FF80
FF80
E000
E000
FF00
FF00
FF00
E000
E000
E000
E000
ENDCHAR
STARTCHAR f.sc.ss01
ENCODING -1
SWIDTH 517 0
DWIDTH 10 0
BBX 9 12 1 0
BITMAP
1F00
7F80
7F80
F080
F000
FF00
FF00
FF00
F000
F000
F000
F000
ENDCHAR
STARTCHAR g.sc
ENCODING -1
SWIDTH 646 0
DWIDTH 13 0
BBX 11 12 1 0
BITMAP
1F80
3FE0
7FC0
F0C0
E000
E000
E0E0
E0E0
F0E0
7FE0
3FE0
1F80
ENDCHAR
STARTCHAR g.sc.ss01
ENCODING -1
SWIDTH 652 0
DWIDTH 13 0
BBX 11 12 1 0
BITMAP
1F80
3FE0
7FC0
F0C0
E000
E000
E0E0
E0E0
F0E0
7FE0
7FE0
1FE0
ENDCHAR
STARTCHAR gbreve.sc
ENCODING -1
SWIDTH 646 0
DWIDTH 13 0
BBX 11 16 1 0
BITMAP
1980
1F80
0F00
0000
1F80
3FE0
7FC0
F0C0
E000
E000
E0E0
E0E0
F0E0
7FE0
3FE0
1F80
ENDCHAR
STARTCHAR gbreve.sc.ss01
ENCODING -1
SWIDTH 652 0
DWIDTH 13 0
BBX 11 16 1 0
BITMAP
1980
1F80
0F00
0000
1F80
3FE0
7FC0
F0C0
E000
E000
E0E0
E0E0
F0E0
7FE0
7FE0
1FE0
ENDCHAR
STARTCHAR gcaron.sc
ENCODING -1
SWIDTH 646 0
DWIDTH 13 0
BBX 11 16 1 0
BITMAP
39C0
1F80
0F00
0000
1F80
3FE0
7FC0
F0C0
E000
E000
E0E0
E0E0
F0E0
7FE0
3FE0
1F80
ENDCHAR
STARTCHAR gcaron.sc.ss01
ENCODING -1
SWIDTH 652 0
DWIDTH 13 0
BBX 11 16 1 0
BITMAP
39C0
1F80
0F00
0000
1F80
3FE0
7FC0
F0C0
E000
E000
E0E0
E0E0
F0E0
7FE0
7FE0
1FE0
ENDCHAR
STARTCHAR gcircumflex.sc
ENCODING -1
SWIDTH 646 0
DWIDTH 13 0
BBX 11 16 1 0
BITMAP
0F00
1F80
39C0
0000
1F80
3FE0
7FC0
F0C0
E000
E000
E0E0
E0E0
F0E0
7FE0
3FE0
1F80
ENDCHAR
STARTCHAR gcircumflex.sc.ss01
ENCODING -1
SWIDTH 652 0
DWIDTH 13 0
BBX 11 16 1 0
BITMAP
0F00
1F80
39C0
0000
1F80
3FE0
7FC0
F0C0
E000
E000
E0E0
E0E0
F0E0
7FE0
7FE0
1FE0
ENDCHAR
STARTCHAR gcommaaccent.sc
ENCODING -1
SWIDTH 646 0
DWIDTH 13 0
BBX 11 17 1 -5
BITMAP
1F80
3FE0
7FC0
F0C0
E000
E000
E0E0
E0E0
F0E0
7FE0
3FE0
1F80
0000
0E00
0E00
0C00
0C00
ENDCHAR
STARTCHAR gcommaaccent.sc.ss01
ENCODING -1
SWIDTH 652 0
DWIDTH 13 0
BBX 11 17 1 -5
BITMAP
1F80
3FE0
7FC0
F0C0
E000
E000
E0E0
E0E0
F0E0
7FE0
7FE0
1FE0
0000
0E00
0E00
0C00
0C00
ENDCHAR
STARTCHAR gdotaccent.sc
ENCODING -1
SWIDTH 646 0
DWIDTH 13 0
BBX 11 17 1 0
BITMAP
0600
0F00
0F00
0600
0000
1F80
3FE0
7FC0
F0C0
E000
E000
E0E0
E0E0
F0E0
7FE0
3FE0
1F80
ENDCHAR
STARTCHAR gdotaccent.sc.ss01
ENCODING -1
SWIDTH 652 0
DWIDTH 13 0
BBX 11 17 1 0
BITMAP
0600
0F00
0F00
0600
0000
1F80
3FE0
7FC0
F0C0
E000
E000
E0E0
E0E0
F0E0
7FE0
7FE0
1FE0
ENDCHAR
STARTCHAR uni1E21.sc
ENCODING -1
SWIDTH 646 0
DWIDTH 13 0
BBX 11 15 1 0
BITMAP
1F80
1F80
0000
1F80
3FE0
7FC0
F0C0
E000
E000
E0E0
E0E0
F0E0
7FE0
3FE0
1F80
ENDCHAR
STARTCHAR uni1E21.sc.ss01
ENCODING -1
SWIDTH 652 0
DWIDTH 13 0
BBX 11 15 1 0
BITMAP
1F80
1F80
0000
1F80
3FE0
7FC0
F0C0
E000
E000
E0E0
E0E0
F0E0
7FE0
7FE0
1FE0
ENDCHAR
STARTCHAR h.sc
ENCODING -1
SWIDTH 705 0
DWIDTH 14 0
BBX 11 12 2 0
BITMAP
E1E0
E1E0
E1E0
E1E0
E1E0
FFE0
FFE0
FFE0
E1E0
E1E0
E1E0
E1E0
ENDCHAR
STARTCHAR hbar.sc
ENCODING -1
SWIDTH 745 0
DWIDTH 15 0
BBX 14 12 0 0
BITMAP
3838
3838
FFFC
FFFC
3838
3FF8
3FF8
3FF8
3838
3838
3838
3838
ENDCHAR
STARTCHAR uni1E2B.sc
ENCODING -1
SWIDTH 705 0
DWIDTH 14 0
BBX 11 16 2 -4
BITMAP
E1E0
E1E0
E1E0
E1E0
E1E0
FFE0
FFE0
FFE0
E1E0
E1E0
E1E0
E1E0
0000
3300
3F00
1E00
ENDCHAR
STARTCHAR hcircumflex.sc
ENCODING -1
SWIDTH 705 0
DWIDTH 14 0
BBX 11 16 2 0
BITMAP
1E00
1F00
7B80
0000
E1E0
E1E0
E1E0
E1E0
E1E0
FFE0
FFE0
FFE0
E1E0
E1E0
E1E0
E1E0
ENDCHAR
STARTCHAR uni1E25.sc
ENCODING -1
SWIDTH 705 0
DWIDTH 14 0
BBX 11 17 2 -5
BITMAP
E1E0
E1E0
E1E0
E1E0
E1E0
FFE0
FFE0
FFE0
E1E0
E1E0
E1E0
E1E0
0000
0C00
1E00
1E00
0C00
ENDCHAR
STARTCHAR i.sc
ENCODING -1
SWIDTH 325 0
DWIDTH 7 0
BBX 3 12 2 0
BITMAP
E0
E0
E0
E0
E0
E0
E0
E0
E0
E0
E0
E0
ENDCHAR
STARTCHAR i.sc.ss01
ENCODING -1
SWIDTH 436 0
DWIDTH 9 0
BBX 7 12 1 0
BITMAP
FE
FE
FE
38
38
38
38
38
38
FE
FE
FE
ENDCHAR
STARTCHAR dotlessi.sc
ENCODING -1
SWIDTH 325 0
DWIDTH 7 0
BBX 3 12 2 0
BITMAP
E0
E0
E0
E0
E0
E0
E0
E0
E0
E0
E0
E0
ENDCHAR
STARTCHAR dotlessi.sc.ss01
ENCODING -1
SWIDTH 436 0
DWIDTH 9 0
BBX 7 12 1 0
BITMAP
FE
FE
FE
38
38
38
38
38
38
FE
FE
FE
ENDCHAR
STARTCHAR iacute.sc
ENCODING -1
SWIDTH 325 0
DWIDTH 7 0
BBX 6 16 1 0
BITMAP
3C
78
E0
00
70
70
70
70
70
70
70
70
70
70
70
70
ENDCHAR
STARTCHAR iacute.sc.ss01
ENCODING -1
SWIDTH 436 0
DWIDTH 9 0
BBX 7 16 1 0
BITMAP
1E
1C
38
00
FE
FE
FE
38
38
38
38
38
38
FE
FE
FE
ENDCHAR
STARTCHAR iacute_j.loclNLD.sc
ENCODING -1
SWIDTH 822 0
DWIDTH 16 0
BBX 14 16 1 0
BITMAP
3C3C
7838
E070
0000
71FC
71FC
71FC
701C
701C
701C
701C
701C
711C
73FC
73F8
71F0
ENDCHAR
STARTCHAR iacute_j.loclNLD.sc.ss01
ENCODING -1
SWIDTH 932 0
DWIDTH 19 0
BBX 16 18 1 -2
BITMAP
1E0F
1C0E
381C
0000
FE7F
FE7F
FE7F
3807
3807
3807
3807
3807
3807
FE07
FE47
FEFF
00FE
003C
ENDCHAR
STARTCHAR ibreve.sc
ENCODING -1
SWIDTH 325 0
DWIDTH 7 0
BBX 7 16 0 0
BITMAP
CE
FC
78
00
38
38
38
38
38
38
38
38
38
38
38
38
ENDCHAR
STARTCHAR ibreve.sc.ss01
ENCODING -1
SWIDTH 436 0
DWIDTH 9 0
BBX 7 16 1 0
BITMAP
EE
7C
38
00
FE
FE
FE
38
38
38
38
38
38
FE
FE
FE
ENDCHAR
STARTCHAR icircumflex.sc
ENCODING -1
SWIDTH 325 0
DWIDTH 7 0
BBX 8 16 -1 0
BITMAP
3C
3E
77
80
1C
1C
1C
1C
1C
1C
1C
1C
1C
1C
1C
1C
ENDCHAR
STARTCHAR icircumflex.sc.ss01
ENCODING -1
SWIDTH 436 0
DWIDTH 9 0
BBX 7 16 1 0
BITMAP
38
7C
EE
00
FE
FE
FE
38
38
38
38
38
38
FE
FE
FE
ENDCHAR
STARTCHAR uni0209.sc
ENCODING -1
SWIDTH 325 0
DWIDTH 7 0
BBX 9 17 -2 0
BITMAP
1100
FF00
7700
3B80
0000
0E00
0E00
0E00
0E00
0E00
0E00
0E00
0E00
0E00
0E00
0E00
0E00
ENDCHAR
STARTCHAR uni0209.sc.ss01
ENCODING -1
SWIDTH 436 0
DWIDTH 9 0
BBX 8 17 0 0
BITMAP
22
EE
EE
77
00
7F
7F
7F
1C
1C
1C
1C
1C
1C
7F
7F
7F
ENDCHAR
STARTCHAR idieresis.sc
ENCODING -1
SWIDTH 325 0
DWIDTH 7 0
BBX 7 16 0 0
BITMAP
CC
EE
EC
00
38
38
38
38
38
38
38
38
38
38
38
38
ENDCHAR
STARTCHAR idieresis.sc.ss01
ENCODING -1
SWIDTH 436 0
DWIDTH 9 0
BBX 7 16 1 0
BITMAP
EC
EE
EC
00
FE
FE
FE
38
38
38
38
38
38
FE
FE
FE
ENDCHAR
STARTCHAR uni1E2F.sc
ENCODING -1
SWIDTH 325 0
DWIDTH 7 0
BBX 7 20 0 0
BITMAP
18
3E
70
00
CC
EE
CC
00
38
38
38
38
38
38
38
38
38
38
38
38
ENDCHAR
STARTCHAR uni1E2F.sc.ss01
ENCODING -1
SWIDTH 436 0
DWIDTH 9 0
BBX 7 19 1 0
BITMAP
18
3E
70
CC
EE
EC
00
FE
FE
FE
38
38
38
38
38
38
FE
FE
FE
ENDCHAR
STARTCHAR i.sc.loclTRK
ENCODING -1
SWIDTH 325 0
DWIDTH 7 0
BBX 4 17 1 0
BITMAP
60
F0
F0
60
00
70
70
70
70
70
70
70
70
70
70
70
70
ENDCHAR
STARTCHAR uni1ECB.sc
ENCODING -1
SWIDTH 325 0
DWIDTH 7 0
BBX 4 17 1 -5
BITMAP
70
70
70
70
70
70
70
70
70
70
70
70
00
70
F0
F0
60
ENDCHAR
STARTCHAR uni1ECB.sc.ss01
ENCODING -1
SWIDTH 436 0
DWIDTH 9 0
BBX 7 17 1 -5
BITMAP
FE
FE
FE
38
38
38
38
38
38
FE
FE
FE
00
38
38
78
38
ENDCHAR
STARTCHAR igrave.sc
ENCODING -1
SWIDTH 325 0
DWIDTH 7 0
BBX 5 16 0 0
BITMAP
F0
70
38
00
38
38
38
38
38
38
38
38
38
38
38
38
ENDCHAR
STARTCHAR igrave.sc.ss01
ENCODING -1
SWIDTH 436 0
DWIDTH 9 0
BBX 7 16 1 0
BITMAP
F0
70
38
00
FE
FE
FE
38
38
38
38
38
38
FE
FE
FE
ENDCHAR
STARTCHAR uni1EC9.sc
ENCODING -1
SWIDTH 325 0
DWIDTH 7 0
BBX 5 17 1 0
BITMAP
F0
F8
30
30
60
70
70
70
70
70
70
70
70
70
70
70
70
ENDCHAR
STARTCHAR uni1EC9.sc.ss01
ENCODING -1
SWIDTH 436 0
DWIDTH 9 0
BBX 7 17 1 0
BITMAP
38
7C
1C
18
30
FE
FE
FE
38
38
38
38
38
38
FE
FE
FE
ENDCHAR
STARTCHAR uni020B.sc
ENCODING -1
SWIDTH 325 0
DWIDTH 7 0
BBX 7 16 0 0
BITMAP
78
FC
CE
00
38
38
38
38
38
38
38
38
38
38
38
38
ENDCHAR
STARTCHAR uni020B.sc.ss01
ENCODING -1
SWIDTH 436 0
DWIDTH 9 0
BBX 7 16 1 0
BITMAP
78
7C
CE
00
FE
FE
FE
38
38
38
38
38
38
FE
FE
FE
ENDCHAR
STARTCHAR ij.sc
ENCODING -1
SWIDTH 821 0
DWIDTH 16 0
BBX 13 12 2 0
BITMAP
E3F8
E3F8
E3F8
E038
E038
E038
E038
E038
E238
E7F8
E7F0
E3E0
ENDCHAR
STARTCHAR ij.sc.ss01
ENCODING -1
SWIDTH 932 0
DWIDTH 19 0
BBX 16 14 1 -2
BITMAP
FE7F
FE7F
FE7F
3807
3807
3807
3807
3807
3807
FE07
FE47
FEFF
00FE
003C
ENDCHAR
STARTCHAR imacron.sc
ENCODING -1
SWIDTH 325 0
DWIDTH 7 0
BBX 6 16 0 0
BITMAP
FC
FC
FC
00
38
38
38
38
38
38
38
38
38
38
38
38
ENDCHAR
STARTCHAR imacron.sc.ss01
ENCODING -1
SWIDTH 436 0
DWIDTH 9 0
BBX 7 15 1 0
BITMAP
FC
FC
00
FE
FE
FE
38
38
38
38
38
38
FE
FE
FE
ENDCHAR
STARTCHAR iogonek.sc
ENCODING -1
SWIDTH 325 0
DWIDTH 7 0
BBX 5 17 0 -5
BITMAP
38
38
38
38
38
38
38
38
38
38
38
38
70
E0
E0
F0
70
ENDCHAR
STARTCHAR iogonek.sc.ss01
ENCODING -1
SWIDTH 436 0
DWIDTH 9 0
BBX 7 17 1 -5
BITMAP
FE
FE
FE
38
38
38
38
38
38
FE
FE
FE
70
60
E0
F0
78
ENDCHAR
STARTCHAR itilde.sc
ENCODING -1
SWIDTH 325 0
DWIDTH 7 0
BBX 7 16 0 0
BITMAP
E6
FE
DC
00
38
38
38
38
38
38
38
38
38
38
38
38
ENDCHAR
STARTCHAR itilde.sc.ss01
ENCODING -1
SWIDTH 436 0
DWIDTH 9 0
BBX 7 16 1 0
BITMAP
66
FE
DC
00
FE
FE
FE
38
38
38
38
38
38
FE
FE
FE
ENDCHAR
STARTCHAR j.sc
ENCODING -1
SWIDTH 497 0
DWIDTH 10 0
BBX 9 12 0 0
BITMAP
7F80
7F80
7F80
0780
0780
0780
0780
0780
4780
7F00
FF00
3E00
ENDCHAR
STARTCHAR j.sc.ss01
ENCODING -1
SWIDTH 496 0
DWIDTH 10 0
BBX 8 14 0 -2
BITMAP
7F
7F
7F
07
07
07
07
07
07
07
47
FF
FF
3C
ENDCHAR
STARTCHAR jcircumflex.sc
ENCODING -1
SWIDTH 497 0
DWIDTH 10 0
BBX 9 16 0 0
BITMAP
1E00
1F00
7380
0000
7F80
7F80
7F80
0780
0780
0780
0780
0780
4780
7F00
FF00
3E00
ENDCHAR
STARTCHAR jcircumflex.sc.ss01
ENCODING -1
SWIDTH 496 0
DWIDTH 10 0
BBX 9 18 0 -2
BITMAP
1E00
3E00
7780
0000
7F00
7F00
7F00
0700
0700
0700
0700
0700
0700
0700
4700
FF00
FF00
3C00
ENDCHAR
STARTCHAR k.sc
ENCODING -1
SWIDTH 647 0
DWIDTH 13 0
BBX 11 12 2 0
BITMAP
E1E0
E3C0
E780
EF00
FE00
FE00
FF00
FF00
E780
E7C0
E3C0
E1E0
ENDCHAR
STARTCHAR kcommaaccent.sc
ENCODING -1
SWIDTH 647 0
DWIDTH 13 0
BBX 11 17 2 -5
BITMAP
E1E0
E3C0
E780
EF00
FE00
FE00
FF00
FF00
E780
E7C0
E3C0
E1E0
0000
1C00
1C00
1800
1800
ENDCHAR
STARTCHAR kgreenlandic.sc
ENCODING -1
SWIDTH 647 0
DWIDTH 13 0
BBX 11 12 2 0
BITMAP
E1E0
E3C0
E780
EF00
FE00
FE00
FF00
FF00
E780
E7C0
E3C0
E1E0
ENDCHAR
STARTCHAR l.sc
ENCODING -1
SWIDTH 495 0
DWIDTH 10 0
BBX 8 12 2 0
BITMAP
E0
E0
E0
E0
E0
E0
E0
E0
E0
FF
FF
FF
ENDCHAR
STARTCHAR lacute.sc
ENCODING -1
SWIDTH 495 0
DWIDTH 10 0
BBX 9 16 1 0
BITMAP
3C00
7800
E000
0000
7000
7000
7000
7000
7000
7000
7000
7000
7000
7F80
7F80
7F80
ENDCHAR
STARTCHAR lcaron.sc
ENCODING -1
SWIDTH 495 0
DWIDTH 10 0
BBX 8 12 2 0
BITMAP
E7
E7
E7
E7
E0
E0
E0
E0
E0
FF
FF
FF
ENDCHAR
STARTCHAR lcommaaccent.sc
ENCODING -1
SWIDTH 495 0
DWIDTH 10 0
BBX 8 17 2 -5
BITMAP
E0
E0
E0
E0
E0
E0
E0
E0
E0
FF
FF
FF
00
38
38
30
30
ENDCHAR
STARTCHAR ldot.sc
ENCODING -1
SWIDTH 495 0
DWIDTH 10 0
BBX 8 12 2 0
BITMAP
E0
E0
E0
E0
E6
E7
E6
E0
E0
FF
FF
FF
ENDCHAR
STARTCHAR uni1E37.sc
ENCODING -1
SWIDTH 495 0
DWIDTH 10 0
BBX 8 17 2 -5
BITMAP
E0
E0
E0
E0
E0
E0
E0
E0
E0
FF
FF
FF
00
38
38
3C
38
ENDCHAR
STARTCHAR uni01C9.sc
ENCODING -1
SWIDTH 992 0
DWIDTH 20 0
BBX 17 12 2 0
BITMAP
E07F80
E07F80
E07F80
E00780
E00780
E00780
E00780
E00780
E04780
FFFF00
FFFF00
FF3E00
ENDCHAR
STARTCHAR uni01C9.sc.ss01
ENCODING -1
SWIDTH 992 0
DWIDTH 20 0
BBX 16 14 2 -2
BITMAP
E07F
E07F
E07F
E007
E007
E007
E007
E007
E007
FF07
FF47
FFFF
00FE
003C
ENDCHAR
STARTCHAR uni1E3B.sc
ENCODING -1
SWIDTH 495 0
DWIDTH 10 0
BBX 8 16 2 -4
BITMAP
E0
E0
E0
E0
E0
E0
E0
E0
E0
FF
FF
FF
00
00
7E
7E
ENDCHAR
STARTCHAR lslash.sc
ENCODING -1
SWIDTH 516 0
DWIDTH 10 0
BBX 10 12 0 0
BITMAP
3800
3800
3800
3A00
3E00
3C00
F800
F800
3800
3FC0
3FC0
3FC0
ENDCHAR
STARTCHAR m.sc
ENCODING -1
SWIDTH 824 0
DWIDTH 16 0
BBX 13 12 2 0
BITMAP
E078
F078
F0F8
F8F8
F9F8
FDF8
FFB8
EFB8
EF38
E738
E738
E038
ENDCHAR
STARTCHAR m.sc.ss01
ENCODING -1
SWIDTH 1024 0
DWIDTH 20 0
BBX 17 12 2 0
BITMAP
EF1E00
FFBF00
FFFF80
F3E780
E1C380
E1C380
E1C380
E1C380
E1C380
E1C380
E1C380
E1C380
ENDCHAR
STARTCHAR uni1E43.sc
ENCODING -1
SWIDTH 824 0
DWIDTH 16 0
BBX 13 17 2 -5
BITMAP
E078
F078
F0F8
F8F8
F9F8
FDF8
FFB8
EFB8
EF38
E738
E738
E038
0000
0700
0F00
0F00
0600
ENDCHAR
STARTCHAR uni1E43.sc.ss01
ENCODING -1
SWIDTH 1024 0
DWIDTH 20 0
BBX 17 17 2 -5
BITMAP
EF1E00
FFBF00
FFFF80
F3E780
E1C380
E1C380
E1C380
E1C380
E1C380
E1C380
E1C380
E1C380
000000
01C000
03C000
03C000
01C000
ENDCHAR
STARTCHAR n.sc
ENCODING -1
SWIDTH 705 0
DWIDTH 14 0
BBX 11 12 2 0
BITMAP
E1E0
F1E0
F1E0
F9E0
FDE0
FFE0
EFE0
EFE0
E7E0
E3E0
E1E0
E1E0
ENDCHAR
STARTCHAR n.sc.ss01
ENCODING -1
SWIDTH 687 0
DWIDTH 14 0
BBX 10 12 2 0
BITMAP
EF80
FFC0
FFC0
F1C0
E1C0
E1C0
E1C0
E1C0
E1C0
E1C0
E1C0
E1C0
ENDCHAR
STARTCHAR nacute.sc
ENCODING -1
SWIDTH 705 0
DWIDTH 14 0
BBX 11 16 2 0
BITMAP
0780
0F00
1C00
0000
E1E0
F1E0
F1E0
F9E0
FDE0
FFE0
EFE0
EFE0
E7E0
E3E0
E1E0
E1E0
ENDCHAR
STARTCHAR nacute.sc.ss01
ENCODING -1
SWIDTH 687 0
DWIDTH 14 0
BBX 10 16 2 0
BITMAP
0780
0F00
1C00
0000
EF80
FFC0
FFC0
F1C0
E1C0
E1C0
E1C0
E1C0
E1C0
E1C0
E1C0
E1C0
ENDCHAR
STARTCHAR napostrophe.sc
ENCODING -1
SWIDTH 869 0
DWIDTH 17 0
BBX 15 12 1 0
BITMAP
CE0E
CF0E
CF8E
CF8E
CFCE
0FEE
0EFE
0E7E
0E7E
0E3E
0E1E
0E0E
ENDCHAR
STARTCHAR ncaron.sc
ENCODING -1
SWIDTH 705 0
DWIDTH 14 0
BBX 11 16 2 0
BITMAP
7380
3F00
1E00
0000
E1E0
F1E0
F1E0
F9E0
FDE0
FFE0
EFE0
EFE0
E7E0
E3E0
E1E0
E1E0
ENDCHAR
STARTCHAR ncaron.sc.ss01
ENCODING -1
SWIDTH 687 0
DWIDTH 14 0
BBX 10 16 2 0
BITMAP
7380
1F00
1E00
0000
EF80
FFC0
FFC0
F1C0
E1C0
E1C0
E1C0
E1C0
E1C0
E1C0
E1C0
E1C0
ENDCHAR
STARTCHAR ncommaaccent.sc
ENCODING -1
SWIDTH 705 0
DWIDTH 14 0
BBX 11 17 2 -5
BITMAP
E1E0
F1E0
F1E0
F9E0
FDE0
FFE0
EFE0
EFE0
E7E0
E3E0
E1E0
E1E0
0000
0E00
1C00
1C00
1800
ENDCHAR
STARTCHAR ncommaaccent.sc.ss01
ENCODING -1
SWIDTH 687 0
DWIDTH 14 0
BBX 10 17 2 -5
BITMAP
EF80
FFC0
FFC0
F1C0
E1C0
E1C0
E1C0
E1C0
E1C0
E1C0
E1C0
E1C0
0000
1C00
1C00
1800
1800
ENDCHAR
STARTCHAR uni1E45.sc
ENCODING -1
SWIDTH 705 0
DWIDTH 14 0
BBX 11 17 2 0
BITMAP
0C00
1E00
1E00
0C00
0000
E1E0
F1E0
F1E0
F9E0
FDE0
FFE0
EFE0
EFE0
E7E0
E3E0
E1E0
E1E0
ENDCHAR
STARTCHAR uni1E45.sc.ss01
ENCODING -1
SWIDTH 687 0
DWIDTH 14 0
BBX 10 17 2 0
BITMAP
0C00
1E00
1E00
0C00
0000
EF80
FFC0
FFC0
F1C0
E1C0
E1C0
E1C0
E1C0
E1C0
E1C0
E1C0
E1C0
ENDCHAR
STARTCHAR uni1E47.sc
ENCODING -1
SWIDTH 705 0
DWIDTH 14 0
BBX 11 17 2 -5
BITMAP
E1E0
F1E0
F1E0
F9E0
FDE0
FFE0
EFE0
EFE0
E7E0
E3E0
E1E0
E1E0
0000
0C00
1E00
1E00
0C00
ENDCHAR
STARTCHAR uni1E47.sc.ss01
ENCODING -1
SWIDTH 687 0
DWIDTH 14 0
BBX 10 17 2 -5
BITMAP
EF80
FFC0
FFC0
F1C0
E1C0
E1C0
E1C0
E1C0
E1C0
E1C0
E1C0
E1C0
0000
0C00
1E00
1E00
0C00
ENDCHAR
STARTCHAR eng.sc
ENCODING -1
SWIDTH 705 0
DWIDTH 14 0
BBX 11 16 2 -4
BITMAP
E1E0
F1E0
F1E0
F9E0
FDE0
FFE0
FFE0
EFE0
E7E0
E3E0
E3E0
E1E0
09E0
0FC0
0FC0
1F00
ENDCHAR
STARTCHAR eng.sc.ss01
ENCODING -1
SWIDTH 685 0
DWIDTH 14 0
BBX 10 16 2 -4
BITMAP
EF00
FFC0
FFC0
F3C0
E1C0
E1C0
E1C0
E1C0
E1C0
E1C0
E1C0
E1C0
09C0
0FC0
0FC0
1F00
ENDCHAR
STARTCHAR uni01CC.sc
ENCODING -1
SWIDTH 1202 0
DWIDTH 24 0
BBX 21 12 2 0
BITMAP
E1E7F8
F1E7F8
F1E7F8
F9E078
FDE078
FFE078
EFE078
EFE078
E7E678
E3E7F0
E1EFF0
E1E3E0
ENDCHAR
STARTCHAR uni01CC.sc.ss01
ENCODING -1
SWIDTH 1183 0
DWIDTH 24 0
BBX 20 14 2 -2
BITMAP
EF87F0
FFC7F0
FFC7F0
F1C070
E1C070
E1C070
E1C070
E1C070
E1C070
E1C070
E1C470
E1CFF0
000FE0
0003C0
ENDCHAR
STARTCHAR uni1E49.sc
ENCODING -1
SWIDTH 705 0
DWIDTH 14 0
BBX 11 16 2 -4
BITMAP
E1E0
F1E0
F1E0
F9E0
FDE0
FFE0
EFE0
EFE0
E7E0
E3E0
E1E0
E1E0
0000
0000
3F00
3F00
ENDCHAR
STARTCHAR uni1E49.sc.ss01
ENCODING -1
SWIDTH 687 0
DWIDTH 14 0
BBX 10 16 2 -4
BITMAP
EF80
FFC0
FFC0
F1C0
E1C0
E1C0
E1C0
E1C0
E1C0
E1C0
E1C0
E1C0
0000
0000
3F00
3F00
ENDCHAR
STARTCHAR ntilde.sc
ENCODING -1
SWIDTH 705 0
DWIDTH 14 0
BBX 11 16 2 0
BITMAP
3980
3F80
3700
4000
E1E0
F1E0
F1E0
F9E0
FDE0
FFE0
EFE0
EFE0
E7E0
E3E0
E1E0
E1E0
ENDCHAR
STARTCHAR ntilde.sc.ss01
ENCODING -1
SWIDTH 687 0
DWIDTH 14 0
BBX 10 16 2 0
BITMAP
3980
3F80
3700
0000
EF80
FFC0
FFC0
F1C0
E1C0
E1C0
E1C0
E1C0
E1C0
E1C0
E1C0
E1C0
ENDCHAR
STARTCHAR o.sc
ENCODING -1
SWIDTH 692 0
DWIDTH 14 0
BBX 12 12 1 0
BITMAP
1F80
3FC0
7FE0
F0F0
E0F0
E070
E070
E0F0
F0F0
7FE0
3FC0
1F80
ENDCHAR
STARTCHAR oacute.sc
ENCODING -1
SWIDTH 692 0
DWIDTH 14 0
BBX 12 16 1 0
BITMAP
03C0
0700
0E00
0000
1F80
3FC0
7FE0
F0F0
E0F0
E070
E070
E0F0
F0F0
7FE0
3FC0
1F80
ENDCHAR
STARTCHAR obreve.sc
ENCODING -1
SWIDTH 692 0
DWIDTH 14 0
BBX 12 16 1 0
BITMAP
1980
1F80
0F00
0000
1F80
3FC0
7FE0
F0F0
E0F0
E070
E070
E0F0
F0F0
7FE0
3FC0
1F80
ENDCHAR
STARTCHAR ocircumflex.sc
ENCODING -1
SWIDTH 692 0
DWIDTH 14 0
BBX 12 16 1 0
BITMAP
0F00
1F80
39C0
0000
1F80
3FC0
7FE0
F0F0
E0F0
E070
E070
E0F0
F0F0
7FE0
3FC0
1F80
ENDCHAR
STARTCHAR uni1ED1.sc
ENCODING -1
SWIDTH 692 0
DWIDTH 14 0
BBX 12 19 1 0
BITMAP
0300
0780
0E00
0000
0F00
1F80
39C0
1F80
3FC0
7FE0
F0F0
E0F0
E070
E070
E0F0
F0F0
7FE0
3FC0
1F80
ENDCHAR
STARTCHAR uni1ED9.sc
ENCODING -1
SWIDTH 692 0
DWIDTH 14 0
BBX 12 21 1 -5
BITMAP
0F00
1F80
39C0
0000
1F80
3FC0
7FE0
F0F0
E0F0
E070
E070
E0F0
F0F0
7FE0
3FC0
1F80
0000
0600
0F00
0F00
0600
ENDCHAR
STARTCHAR uni1ED3.sc
ENCODING -1
SWIDTH 692 0
DWIDTH 14 0
BBX 12 19 1 0
BITMAP
0C00
3E00
0700
0000
0F00
1F80
39C0
1F80
3FC0
7FE0
F0F0
E0F0
E070
E070
E0F0
F0F0
7FE0
3FC0
1F80
ENDCHAR
STARTCHAR uni1ED5.sc
ENCODING -1
SWIDTH 692 0
DWIDTH 14 0
BBX 12 20 1 0
BITMAP
0600
0F00
0300
0600
0000
0F00
1F80
39C0
1F80
3FC0
7FE0
F0F0
E0F0
E070
E070
E0F0
F0F0
7FE0
3FC0
1F80
ENDCHAR
STARTCHAR uni1ED7.sc
ENCODING -1
SWIDTH 692 0
DWIDTH 14 0
BBX 12 18 1 0
BITMAP
1F80
3F80
3300
0F00
1F80
39C0
1F80
3FC0
7FE0
F0F0
E0F0
E070
E070
E0F0
F0F0
7FE0
3FC0
1F80
ENDCHAR
STARTCHAR uni020D.sc
ENCODING -1
SWIDTH 692 0
DWIDTH 14 0
BBX 12 17 1 0
BITMAP
1100
7700
3B80
1D80
0000
1F80
3FC0
7FE0
F0F0
E0F0
E070
E070
E0F0
F0F0
7FE0
3FC0
1F80
ENDCHAR
STARTCHAR odieresis.sc
ENCODING -1
SWIDTH 692 0
DWIDTH 14 0
BBX 12 16 1 0
BITMAP
1980
1F80
1980
0000
1F80
3FC0
7FE0
F0F0
E0F0
E070
E070
E0F0
F0F0
7FE0
3FC0
1F80
ENDCHAR
STARTCHAR uni022B.sc
ENCODING -1
SWIDTH 692 0
DWIDTH 14 0
BBX 12 19 1 0
BITMAP
1F80
1F80
0000
1980
3B80
1980
0000
1F80
3FC0
7FE0
F0F0
E0F0
E070
E070
E0F0
F0F0
7FE0
3FC0
1F80
ENDCHAR
STARTCHAR uni0231.sc
ENCODING -1
SWIDTH 692 0
DWIDTH 14 0
BBX 12 19 1 0
BITMAP
0FC0
0FC0
0000
0300
0380
0300
0000
1F80
3FC0
7FE0
F0F0
E0F0
E070
E070
E0F0
F0F0
7FE0
3FC0
1F80
ENDCHAR
STARTCHAR uni1ECD.sc
ENCODING -1
SWIDTH 692 0
DWIDTH 14 0
BBX 12 17 1 -5
BITMAP
1F80
3FC0
7FE0
F0F0
E0F0
E070
E070
E0F0
F0F0
7FE0
3FC0
1F80
0000
0600
0F00
0F00
0600
ENDCHAR
STARTCHAR ograve.sc
ENCODING -1
SWIDTH 692 0
DWIDTH 14 0
BBX 12 16 1 0
BITMAP
1C00
0E00
0700
0000
1F80
3FC0
7FE0
F0F0
E0F0
E070
E070
E0F0
F0F0
7FE0
3FC0
1F80
ENDCHAR
STARTCHAR uni1ECF.sc
ENCODING -1
SWIDTH 692 0
DWIDTH 14 0
BBX 12 17 1 0
BITMAP
0F00
0F00
0300
0700
0200
1F80
3FC0
7FE0
F0F0
E0F0
E070
E070
E0F0
F0F0
7FE0
3FC0
1F80
ENDCHAR
STARTCHAR ohorn.sc
ENCODING -1
SWIDTH 722 0
DWIDTH 14 0
BBX 14 15 0 0
BITMAP
0004
001C
000C
0FDC
3FFC
3FF0
7878
7078
F038
F038
7078
7878
3FF0
1FE0
0F80
ENDCHAR
STARTCHAR uni1EDB.sc
ENCODING -1
SWIDTH 722 0
DWIDTH 14 0
BBX 14 16 0 0
BITMAP
01C0
0384
071C
000C
0FDC
3FFC
3FF0
7878
7078
F038
F038
7078
7878
3FF0
1FE0
0F80
ENDCHAR
STARTCHAR uni1EE3.sc
ENCODING -1
SWIDTH 722 0
DWIDTH 14 0
BBX 14 20 0 -5
BITMAP
0004
001C
000C
0FDC
3FFC
3FF0
7878
7078
F038
F038
7078
7878
3FF0
1FE0
0F80
0000
0700
0780
0780
0300
ENDCHAR
STARTCHAR uni1EDD.sc
ENCODING -1
SWIDTH 722 0
DWIDTH 14 0
BBX 14 16 0 0
BITMAP
0E00
0704
039C
000C
0FDC
3FFC
3FF0
7878
7078
F038
F038
7078
7878
3FF0
1FE0
0F80
ENDCHAR
STARTCHAR uni1EDF.sc
ENCODING -1
SWIDTH 722 0
DWIDTH 14 0
BBX 14 17 0 0
BITMAP
0700
0780
0184
039C
010C
0FDC
3FFC
3FF0
7878
7078
F038
F038
7078
7878
3FF0
1FE0
0F80
ENDCHAR
STARTCHAR uni1EE1.sc
ENCODING -1
SWIDTH 722 0
DWIDTH 14 0
BBX 14 16 0 0
BITMAP
0EC0
1FC4
19DC
000C
0FDC
3FFC
3FF0
7878
7078
F038
F038
7078
7878
3FF0
1FE0
0F80
ENDCHAR
STARTCHAR ohungarumlaut.sc
ENCODING -1
SWIDTH 692 0
DWIDTH 14 0
BBX 12 17 1 0
BITMAP
1100
1DC0
1DC0
3B80
0000
1F80
3FC0
7FE0
F0F0
E0F0
E070
E070
E0F0
F0F0
7FE0
3FC0
1F80
ENDCHAR
STARTCHAR uni020F.sc
ENCODING -1
SWIDTH 692 0
DWIDTH 14 0
BBX 12 16 1 0
BITMAP
0F00
1F80
1980
0000
1F80
3FC0
7FE0
F0F0
E0F0
E070
E070
E0F0
F0F0
7FE0
3FC0
1F80
ENDCHAR
STARTCHAR omacron.sc
ENCODING -1
SWIDTH 692 0
DWIDTH 14 0
BBX 12 15 1 0
BITMAP
1F80
1F80
0000
1F80
3FC0
7FE0
F0F0
E0F0
E070
E070
E0F0
F0F0
7FE0
3FC0
1F80
ENDCHAR
STARTCHAR uni1E53.sc
ENCODING -1
SWIDTH 692 0
DWIDTH 14 0
BBX 12 18 1 0
BITMAP
0300
0780
0E00
1F80
1F80
0000
1F80
3FC0
7FE0
F0F0
E0F0
E070
E070
E0F0
F0F0
7FE0
3FC0
1F80
ENDCHAR
STARTCHAR uni1E51.sc
ENCODING -1
SWIDTH 692 0
DWIDTH 14 0
BBX 12 18 1 0
BITMAP
0C00
1E00
0700
1F80
1F80
0000
1F80
3FC0
7FE0
F0F0
E0F0
E070
E070
E0F0
F0F0
7FE0
3FC0
1F80
ENDCHAR
STARTCHAR uni01EB.sc
ENCODING -1
SWIDTH 692 0
DWIDTH 14 0
BBX 12 16 1 -4
BITMAP
1F80
3FC0
7FE0
F0F0
E0F0
E070
E070
E0F0
F0F0
7FE0
3FC0
1F80
0300
0300
0780
03C0
ENDCHAR
STARTCHAR oslash.sc
ENCODING -1
SWIDTH 692 0
DWIDTH 14 0
BBX 12 13 1 0
BITMAP
0030
1FE0
3FC0
7FE0
F1F0
E3F0
E670
E670
ECF0
F8F0
7FE0
7FC0
FF80
ENDCHAR
STARTCHAR oslashacute.sc
ENCODING -1
SWIDTH 692 0
DWIDTH 14 0
BBX 12 16 1 0
BITMAP
0380
0700
0E00
0030
1FE0
3FC0
7FE0
F1F0
E3F0
E670
E670
ECF0
F8F0
7FE0
7FC0
FF80
ENDCHAR
STARTCHAR otilde.sc
ENCODING -1
SWIDTH 692 0
DWIDTH 14 0
BBX 12 16 1 0
BITMAP
1CC0
1F80
3380
0000
1F80
3FC0
7FE0
F0F0
E0F0
E070
E070
E0F0
F0F0
7FE0
3FC0
1F80
ENDCHAR
STARTCHAR uni1E4D.sc
ENCODING -1
SWIDTH 692 0
DWIDTH 14 0
BBX 12 19 1 0
BITMAP
0300
0780
0E00
0000
1FC0
1F80
3380
1F80
3FC0
7FE0
F0F0
E0F0
E070
E070
E0F0
F0F0
7FE0
3FC0
1F80
ENDCHAR
STARTCHAR uni1E4F.sc
ENCODING -1
SWIDTH 692 0
DWIDTH 14 0
BBX 12 19 1 0
BITMAP
1980
1F80
1980
0000
1FC0
1F80
3380
1F80
3FC0
7FE0
F0F0
E0F0
E070
E070
E0F0
F0F0
7FE0
3FC0
1F80
ENDCHAR
STARTCHAR uni022D.sc
ENCODING -1
SWIDTH 692 0
DWIDTH 14 0
BBX 12 18 1 0
BITMAP
1F80
1F80
0000
1FC0
1F80
3380
1F80
3FC0
7FE0
F0F0
E0F0
E070
E070
E0F0
F0F0
7FE0
3FC0
1F80
ENDCHAR
STARTCHAR oe.sc
ENCODING -1
SWIDTH 959 0
DWIDTH 19 0
BBX 17 12 1 0
BITMAP
1FFF80
3FFF80
7FFF80
F1E000
E1E000
E1FF00
E1FF00
E1FF00
F1E000
7FFF80
3FFF80
1FFF80
ENDCHAR
STARTCHAR p.sc
ENCODING -1
SWIDTH 597 0
DWIDTH 12 0
BBX 10 12 2 0
BITMAP
FE00
FF80
FF80
E380
E3C0
E380
FF80
FF80
FE00
E000
E000
E000
ENDCHAR
STARTCHAR thorn.sc
ENCODING -1
SWIDTH 603 0
DWIDTH 12 0
BBX 10 12 2 0
BITMAP
E000
E000
FE00
FF80
FF80
E3C0
E3C0
FF80
FF80
FE00
E000
E000
ENDCHAR
STARTCHAR q.sc
ENCODING -1
SWIDTH 700 0
DWIDTH 14 0
BBX 13 15 1 -3
BITMAP
1F80
3FC0
7FE0
F0F0
E0F0
E070
E070
E0F0
F0F0
7FE0
3FC0
1F90
03F0
03F8
00E0
ENDCHAR
STARTCHAR q.sc.ss01
ENCODING -1
SWIDTH 692 0
DWIDTH 14 0
BBX 12 14 1 -2
BITMAP
0F00
3FC0
7FE0
F1F0
F0F0
E070
E070
E6F0
F6F0
FFE0
7FE0
1F80
0600
0600
ENDCHAR
STARTCHAR r.sc
ENCODING -1
SWIDTH 637 0
DWIDTH 13 0
BBX 10 12 2 0
BITMAP
FF00
FF80
FFC0
E3C0
E1C0
E3C0
FF80
FF80
FF00
E780
E380
E3C0
ENDCHAR
STARTCHAR racute.sc
ENCODING -1
SWIDTH 637 0
DWIDTH 13 0
BBX 10 16 2 0
BITMAP
0F00
1C00
3800
0000
FF00
FF80
FFC0
E3C0
E1C0
E3C0
FF80
FF80
FF00
E780
E380
E3C0
ENDCHAR
STARTCHAR rcaron.sc
ENCODING -1
SWIDTH 637 0
DWIDTH 13 0
BBX 10 16 2 0
BITMAP
E700
7E00
3C00
0000
FF00
FF80
FFC0
E3C0
E1C0
E3C0
FF80
FF80
FF00
E780
E380
E3C0
ENDCHAR
STARTCHAR rcommaaccent.sc
ENCODING -1
SWIDTH 637 0
DWIDTH 13 0
BBX 10 17 2 -5
BITMAP
FF00
FF80
FFC0
E3C0
E1C0
E3C0
FF80
FF80
FF00
E780
E380
E3C0
0000
1C00
1800
1800
3800
ENDCHAR
STARTCHAR uni0211.sc
ENCODING -1
SWIDTH 637 0
DWIDTH 13 0
BBX 11 17 1 0
BITMAP
2200
EE00
7700
3B00
0000
7F80
7FC0
7FE0
71E0
70E0
71E0
7FC0
7FC0
7F80
73C0
71C0
71E0
ENDCHAR
STARTCHAR uni1E5B.sc
ENCODING -1
SWIDTH 637 0
DWIDTH 13 0
BBX 10 17 2 -5
BITMAP
FF00
FF80
FFC0
E3C0
E1C0
E3C0
FF80
FF80
FF00
E780
E380
E3C0
0000
1C00
1C00
1C00
1C00
ENDCHAR
STARTCHAR uni0213.sc
ENCODING -1
SWIDTH 637 0
DWIDTH 13 0
BBX 10 16 2 0
BITMAP
3C00
7E00
6600
0000
FF00
FF80
FFC0
E3C0
E1C0
E3C0
FF80
FF80
FF00
E780
E380
E3C0
ENDCHAR
STARTCHAR uni1E5F.sc
ENCODING -1
SWIDTH 637 0
DWIDTH 13 0
BBX 10 16 2 -4
BITMAP
FF00
FF80
FFC0
E3C0
E1C0
E3C0
FF80
FF80
FF00
E780
E380
E3C0
0000
0000
7F00
7F00
ENDCHAR
STARTCHAR s.sc
ENCODING -1
SWIDTH 580 0
DWIDTH 12 0
BBX 11 12 0 0
BITMAP
1F80
3FE0
7FC0
78C0
7C00
3F80
1FC0
43E0
71E0
FFE0
7FC0
1F80
ENDCHAR
STARTCHAR sacute.sc
ENCODING -1
SWIDTH 580 0
DWIDTH 12 0
BBX 11 16 0 0
BITMAP
03C0
0780
0E00
0000
1F80
3FE0
7FC0
78C0
7C00
3F80
1FC0
43E0
71E0
FFE0
7FC0
1F80
ENDCHAR
STARTCHAR uni1E65.sc
ENCODING -1
SWIDTH 580 0
DWIDTH 12 0
BBX 11 20 0 0
BITMAP
0600
0F00
0600
0000
0300
0F80
1C00
0000
1F80
3FE0
7FC0
78C0
7C00
3F80
1FC0
43E0
71E0
FFE0
7FC0
1F80
ENDCHAR
STARTCHAR uniA78C.sc
ENCODING -1
SWIDTH 304 0
DWIDTH 6 0
BBX 4 8 1 6
BITMAP
F0
F0
F0
F0
F0
E0
E0
E0
ENDCHAR
STARTCHAR scaron.sc
ENCODING -1
SWIDTH 580 0
DWIDTH 12 0
BBX 11 16 0 0
BITMAP
39C0
1F80
0F00
0000
1F80
3FE0
7FC0
78C0
7C00
3F80
1FC0
43E0
71E0
FFE0
7FC0
1F80
ENDCHAR
STARTCHAR uni1E67.sc
ENCODING -1
SWIDTH 580 0
DWIDTH 12 0
BBX 11 19 0 0
BITMAP
0600
0700
0600
0000
39C0
1F80
0F00
1F80
3FE0
7FC0
78C0
7C00
3F80
1FC0
43E0
71E0
FFE0
7FC0
1F80
ENDCHAR
STARTCHAR scedilla.sc
ENCODING -1
SWIDTH 580 0
DWIDTH 12 0
BBX 11 17 0 -5
BITMAP
1F80
3FE0
7FC0
78C0
7C00
7F80
3FC0
0FE0
41E0
71E0
FFC0
3F80
0600
0E00
0300
0F00
1E00
ENDCHAR
STARTCHAR scircumflex.sc
ENCODING -1
SWIDTH 580 0
DWIDTH 12 0
BBX 11 16 0 0
BITMAP
0F00
0F80
39C0
0000
1F80
3FE0
7FC0
78C0
7C00
3F80
1FC0
43E0
71E0
FFE0
7FC0
1F80
ENDCHAR
STARTCHAR scommaaccent.sc
ENCODING -1
SWIDTH 580 0
DWIDTH 12 0
BBX 11 17 0 -5
BITMAP
1F80
3FE0
7FC0
78C0
7C00
3F80
1FC0
43E0
71E0
FFE0
7FC0
1F80
0000
0E00
0E00
0C00
0C00
ENDCHAR
STARTCHAR uni1E61.sc
ENCODING -1
SWIDTH 580 0
DWIDTH 12 0
BBX 11 17 0 0
BITMAP
0600
0F00
0F00
0600
0000
1F80
3FE0
7FC0
78C0
7C00
3F80
1FC0
43E0
71E0
FFE0
7FC0
1F80
ENDCHAR
STARTCHAR uni1E63.sc
ENCODING -1
SWIDTH 580 0
DWIDTH 12 0
BBX 11 17 0 -5
BITMAP
1F80
3FE0
7FC0
78C0
7C00
3F80
1FC0
43E0
71E0
FFE0
7FC0
1F80
0000
0600
0F00
0F00
0600
ENDCHAR
STARTCHAR uni1E69.sc
ENCODING -1
SWIDTH 580 0
DWIDTH 12 0
BBX 11 22 0 -5
BITMAP
0600
0F00
0F00
0600
0000
1F80
3FE0
7FC0
78C0
7C00
3F80
1FC0
43E0
71E0
FFE0
7FC0
1F80
0000
0600
0F00
0F00
0600
ENDCHAR
ENDFONT
